<?xml version="1.0" encoding="UTF-8"?>
<svg id="Layer_1" xmlns="http://www.w3.org/2000/svg" version="1.1" viewBox="0 0 787.85 61.97">
  <!-- Generator: Adobe Illustrator 29.7.1, SVG Export Plug-In . SVG Version: 2.1.1 Build 8)  -->
  <defs>
    <style>
      .st0 {
        fill: #fff;
      }
    </style>
  </defs>
  <path class="st0" d="M0,2.5h16.18v44.21h28.27v14.18H0V2.5Z"/>
  <path class="st0" d="M42.96,38.53v-.17c0-13.09,9.42-23.6,22.77-23.6,15.51,0,22.69,11.43,22.69,24.69,0,1,0,2.17-.08,3.25h-30.19c1.25,5,4.76,7.42,9.76,7.42,3.92,0,6.76-1.34,10.01-4.59l8.76,7.25c-4.34,5.59-10.51,9.17-19.52,9.17-14.18,0-24.19-9.51-24.19-23.44ZM73.65,34.61c-.58-5-3.59-8.17-7.92-8.17s-6.92,3.17-7.84,8.17h15.76Z"/>
  <path class="st0" d="M90.25,15.76h15.85v6.34c2.92-3.75,7.09-7.34,13.51-7.34,9.68,0,15.35,6.26,15.35,16.6v29.53h-15.76v-24.44c0-5.01-2.5-7.67-6.42-7.67s-6.67,2.67-6.67,7.67v24.44h-15.85V15.76Z"/>
  <path class="st0" d="M136.38,38.53v-.17c0-12.93,10.51-23.6,24.94-23.6s24.86,10.59,24.86,23.44v.17c0,12.93-10.59,23.6-25.02,23.6s-24.77-10.51-24.77-23.44ZM170.83,38.53v-.17c0-5.59-4-10.26-9.67-10.26s-9.43,4.5-9.43,10.09v.17c0,5.51,4,10.18,9.59,10.18s9.51-4.59,9.51-10.01Z"/>
  <path class="st0" d="M181.92,15.76h16.68l8.67,26.36,8.76-26.36h16.35l-18.02,45.46h-14.43l-18.02-45.46Z"/>
  <path class="st0" d="M227.97,38.53v-.17c0-12.93,10.51-23.6,24.94-23.6s24.86,10.59,24.86,23.44v.17c0,12.93-10.59,23.6-25.02,23.6s-24.77-10.51-24.77-23.44ZM262.42,38.53v-.17c0-5.59-4-10.26-9.67-10.26s-9.43,4.5-9.43,10.09v.17c0,5.51,4,10.18,9.59,10.18s9.51-4.59,9.51-10.01Z"/>
  <path class="st0" d="M295.96,52.21l9.01-10.76c5.92,4.67,12.26,7.01,18.93,7.01,4.42,0,6.76-1.42,6.76-4v-.17c0-2.5-1.92-3.67-9.93-5.67-12.34-2.84-22.02-6.26-22.02-18.27v-.17c0-10.93,8.59-18.68,22.6-18.68,10.01,0,17.68,2.67,24.02,7.76l-8.09,11.43c-5.34-3.92-11.09-5.75-16.35-5.75-3.92,0-5.84,1.5-5.84,3.75v.17c0,2.58,2,3.92,10.18,5.67,13.35,2.92,21.69,7.26,21.69,18.18v.17c0,11.93-9.43,19.02-23.6,19.02-10.43,0-20.02-3.25-27.36-9.68Z"/>
  <path class="st0" d="M347.09,38.53v-.17c0-13.09,9.42-23.6,22.77-23.6,15.51,0,22.69,11.43,22.69,24.69,0,1,0,2.17-.08,3.25h-30.19c1.25,5,4.76,7.42,9.76,7.42,3.92,0,6.76-1.34,10.01-4.59l8.76,7.25c-4.34,5.59-10.51,9.17-19.52,9.17-14.18,0-24.19-9.51-24.19-23.44ZM377.78,34.61c-.58-5-3.59-8.17-7.92-8.17s-6.92,3.17-7.84,8.17h15.76Z"/>
  <path class="st0" d="M394.38,15.76h15.85v9.09c2.59-6.09,6.67-10.18,14.26-9.84v16.68h-1.33c-8.34,0-12.93,4.67-12.93,15.1v14.1h-15.85V15.76Z"/>
  <path class="st0" d="M421.66,15.76h16.68l8.67,26.36,8.76-26.36h16.35l-18.02,45.46h-14.43l-18.02-45.46Z"/>
  <path class="st0" d="M472.29,0h16.43v11.68h-16.43V0ZM472.63,15.76h15.77v45.12h-15.77V15.76Z"/>
  <path class="st0" d="M490.56,38.53v-.17c0-12.76,9.84-23.52,24.1-23.52,9.34,0,15.35,4.01,19.27,10.01l-10.68,8.01c-2.25-2.92-4.67-4.75-8.42-4.75-5.17,0-8.92,4.5-8.92,10.09v.17c0,5.76,3.67,10.26,9.01,10.26,3.92,0,6.26-1.75,8.67-4.67l10.59,7.67c-4.25,6.26-10.09,10.34-20.02,10.34-13.68,0-23.6-10.68-23.6-23.44Z"/>
  <path class="st0" d="M531.77,38.53v-.17c0-13.09,9.42-23.6,22.77-23.6,15.51,0,22.69,11.43,22.69,24.69,0,1,0,2.17-.08,3.25h-30.19c1.25,5,4.76,7.42,9.76,7.42,3.92,0,6.76-1.34,10.01-4.59l8.76,7.25c-4.34,5.59-10.51,9.17-19.52,9.17-14.18,0-24.19-9.51-24.19-23.44ZM562.46,34.61c-.58-5-3.59-8.17-7.92-8.17s-6.92,3.17-7.84,8.17h15.76Z"/>
  <path class="st0" d="M600,2.5h22.6c20.77,0,32.86,11.93,32.86,28.86v.17c0,16.93-12.26,29.36-33.2,29.36h-22.27V2.5ZM616.18,16.76v29.78h6.59c9.76,0,16.18-5.34,16.18-14.76v-.17c0-9.42-6.42-14.85-16.18-14.85h-6.59Z"/>
  <path class="st0" d="M656.22,38.53v-.17c0-13.09,9.42-23.6,22.77-23.6,15.51,0,22.69,11.43,22.69,24.69,0,1,0,2.17-.08,3.25h-30.19c1.25,5,4.76,7.42,9.76,7.42,3.92,0,6.76-1.34,10.01-4.59l8.76,7.25c-4.34,5.59-10.51,9.17-19.52,9.17-14.18,0-24.19-9.51-24.19-23.44ZM686.92,34.61c-.58-5-3.59-8.17-7.92-8.17s-6.92,3.17-7.84,8.17h15.76Z"/>
  <path class="st0" d="M700.18,55.13l5.92-9.51c5.26,3.42,10.76,5.17,15.43,5.17,2.75,0,4.09-.83,4.09-2.42v-.17c0-1.92-2.59-2.58-7.34-3.92-8.93-2.25-16.01-5.34-16.01-14.35v-.17c0-9.59,7.76-14.93,18.1-14.93,6.67,0,13.35,1.92,18.6,5.26l-5.42,10.01c-4.67-2.67-9.76-4.25-13.35-4.25-2.42,0-3.67.92-3.67,2.25v.17c0,1.75,2.67,2.58,7.34,4,8.92,2.42,16.01,5.59,16.01,14.35v.17c0,9.93-7.42,15.1-18.43,15.1-7.67,0-15.01-2.17-21.27-6.76Z"/>
  <path class="st0" d="M741.39,0h15.85v30.86l12.26-15.1h17.93l-15.68,18.02,16.1,27.11h-17.52l-9.01-15.43-4.09,4.76v10.68h-15.85V0Z"/>
</svg>