<?xml version="1.0" encoding="UTF-8"?>
<svg id="Layer_1" xmlns="http://www.w3.org/2000/svg" version="1.1" viewBox="0 0 800 508.62">
  <!-- Generator: Adobe Illustrator 29.7.1, SVG Export Plug-In . SVG Version: 2.1.1 Build 8)  -->
  <defs>
    <style>
      .st0 {
        opacity: .2;
      }

      .st0, .st1 {
        fill: #fff;
      }
    </style>
  </defs>
  <g>
    <path class="st1" d="M204.94,122.25v-.12c0-7.66,5.76-11.46,12.75-12.45l.55-6.62h3.13l.98,9.93-.31.31c-8.03.18-12.2,3.5-12.2,8.64v.12c0,4.41,3.37,7.97,8.95,7.97,4.48,0,7.97-2.08,11.1-5.76l3.13,3c-3.49,4.23-7.79,7.11-14.35,7.11-8.34,0-13.73-5.15-13.73-12.14ZM217.08,90.93h5.64v6.44h-5.64v-6.44Z"/>
    <path class="st1" d="M237.32,90.93h31.02v4.41h-26.18v14.65h23.42v4.41h-23.42v15.02h26.49v4.41h-31.33v-42.92Z"/>
    <path class="st1" d="M271.28,129.8l2.39-3.37c3.43,2.64,7.23,4.05,10.97,4.05s6.56-1.9,6.56-5.03v-.12c0-3.13-3.74-4.41-7.91-5.58-4.91-1.47-10.48-3.07-10.48-8.95v-.12c0-5.46,4.54-9.07,10.79-9.07,3.92,0,8.15,1.35,11.4,3.5l-2.15,3.56c-2.94-1.9-6.25-3.07-9.38-3.07-3.74,0-6.13,1.96-6.13,4.6v.12c0,3,3.92,4.17,8.15,5.46,4.9,1.47,10.18,3.37,10.18,9.07v.12c0,6.01-4.97,9.5-11.28,9.5-4.6,0-9.5-1.78-13.12-4.66Z"/>
    <path class="st1" d="M301.82,125.44v-19.13h-4.41v-4.17h4.41v-9.56h4.72v9.56h10.06v4.17h-10.06v18.52c0,3.92,2.15,5.27,5.33,5.27,1.66,0,2.94-.31,4.6-1.1v4.05c-1.66.92-3.43,1.35-5.7,1.35-5.15,0-8.95-2.51-8.95-8.95Z"/>
    <path class="st1" d="M318.86,124.65v-.12c0-6.62,5.52-10.24,13.55-10.24,4.11,0,6.87.55,9.75,1.35v-1.1c0-5.7-3.5-8.64-9.44-8.64-3.74,0-6.68.92-9.62,2.33l-1.41-3.86c3.49-1.66,6.87-2.64,11.53-2.64s7.91,1.16,10.24,3.49c2.15,2.15,3.25,5.27,3.25,9.26v19.37h-4.54v-4.78c-2.21,2.88-5.83,5.46-11.47,5.46s-11.83-3.31-11.83-9.87ZM342.22,122.19v-3.07c-2.39-.67-5.39-1.35-9.32-1.35-5.95,0-9.26,2.58-9.26,6.56v.12c0,3.99,3.74,6.32,7.97,6.32,5.89,0,10.61-3.56,10.61-8.58Z"/>
    <path class="st1" d="M364.11,129.49l3.99-6.13c3.62,2.64,7.23,3.92,10.36,3.92,2.7,0,3.92-.98,3.92-2.45v-.12c0-2.02-3.19-2.64-6.81-3.8-4.6-1.29-9.81-3.49-9.81-9.87v-.12c0-6.68,5.4-10.42,12.02-10.42,4.17,0,8.64,1.41,12.26,3.8l-3.56,6.44c-3.25-1.9-6.5-3.07-8.89-3.07-2.27,0-3.43.98-3.43,2.27v.12c0,1.72,3.13,2.82,6.68,3.92,4.6,1.47,9.93,3.74,9.93,9.75v.12c0,7.3-5.46,10.61-12.57,10.61-4.66,0-9.69-1.53-14.1-4.97Z"/>
    <path class="st1" d="M392.19,117.59v-.12c0-9.44,7.6-17.11,17.84-17.11s17.72,7.48,17.72,16.98v.12c0,9.44-7.6,17.11-17.84,17.11s-17.72-7.48-17.72-16.98ZM418.55,117.59v-.12c0-4.84-3.5-9.07-8.64-9.07s-8.52,4.05-8.52,8.95v.12c0,4.84,3.5,9.07,8.64,9.07s8.52-4.05,8.52-8.95Z"/>
    <path class="st1" d="M431.24,89.09h9.32v44.76h-9.32v-44.76Z"/>
    <path class="st1" d="M445.4,122.25v-21.27h9.32v18.33c0,4.41,2.02,6.68,5.64,6.68s5.82-2.27,5.82-6.68v-18.33h9.32v32.86h-9.32v-4.66c-2.15,2.76-4.97,5.27-9.63,5.27-7.11,0-11.16-4.6-11.16-12.2Z"/>
    <path class="st1" d="M478.57,117.59v-.12c0-9.38,7.17-17.11,17.23-17.11,6.19,0,9.99,2.08,13.12,5.52l-5.7,6.13c-2.15-2.21-4.11-3.62-7.48-3.62-4.66,0-7.97,4.05-7.97,8.95v.12c0,5.09,3.25,9.07,8.34,9.07,3.13,0,5.27-1.35,7.54-3.49l5.46,5.52c-3.19,3.49-6.87,6.01-13.43,6.01-9.87,0-17.11-7.66-17.11-16.98Z"/>
    <path class="st1" d="M511.68,89.09h9.81v8.28h-9.81v-8.28ZM511.93,100.98h9.32v32.86h-9.32v-32.86Z"/>
    <path class="st1" d="M524.74,117.59v-.12c0-9.44,7.6-17.11,17.84-17.11s17.72,7.48,17.72,16.98v.12c0,9.44-7.6,17.11-17.84,17.11s-17.72-7.48-17.72-16.98ZM551.1,117.59v-.12c0-4.84-3.5-9.07-8.64-9.07s-8.52,4.05-8.52,8.95v.12c0,4.84,3.5,9.07,8.64,9.07s8.52-4.05,8.52-8.95ZM545.65,86.51l8.03,3.49-7.97,7.36h-6.87l6.81-10.85Z"/>
    <path class="st1" d="M563.37,100.98h9.32v4.66c2.15-2.76,4.97-5.27,9.63-5.27,7.11,0,11.16,4.6,11.16,12.2v21.27h-9.32v-18.33c0-4.41-2.02-6.68-5.64-6.68s-5.82,2.27-5.82,6.68v18.33h-9.32v-32.86Z"/>
    <path class="st1" d="M153.1,206.99v-19.13h-4.41v-4.17h4.41v-9.56h4.72v9.56h10.06v4.17h-10.06v18.52c0,3.92,2.15,5.27,5.33,5.27,1.66,0,2.94-.31,4.6-1.1v4.05c-1.66.92-3.43,1.35-5.7,1.35-5.15,0-8.95-2.51-8.95-8.95Z"/>
    <path class="st1" d="M169.66,199.64v-.12c0-9.14,6.38-16.49,15.21-16.49,9.38,0,14.78,7.48,14.78,16.74,0,.67,0,.98-.06,1.53h-25.14c.67,6.87,5.52,10.73,11.16,10.73,4.42,0,7.36-1.78,9.99-4.48l2.94,2.64c-3.19,3.62-6.99,5.95-13.06,5.95-8.64,0-15.82-6.68-15.82-16.49ZM194.85,197.8c-.49-5.7-3.74-10.79-10.12-10.79-5.58,0-9.62,4.66-10.3,10.79h20.42Z"/>
    <path class="st1" d="M218.95,183.7h4.72v6.38c2.64-3.74,6.25-7.05,12.14-7.05,7.6,0,15.14,6.01,15.14,16.43v.12c0,10.3-7.48,16.49-15.14,16.49-5.89,0-9.69-3.13-12.14-6.74v15.88h-4.72v-41.51ZM246.11,199.64v-.12c0-7.54-5.09-12.26-11.16-12.26s-11.46,5.03-11.46,12.2v.12c0,7.36,5.58,12.26,11.46,12.26s11.16-4.54,11.16-12.2Z"/>
    <path class="st1" d="M254.02,199.64v-.12c0-9.14,6.38-16.49,15.21-16.49,9.38,0,14.78,7.48,14.78,16.74,0,.67,0,.98-.06,1.53h-25.14c.67,6.87,5.52,10.73,11.16,10.73,4.42,0,7.36-1.78,9.99-4.48l2.94,2.64c-3.19,3.62-6.99,5.95-13.06,5.95-8.64,0-15.82-6.68-15.82-16.49ZM279.22,197.8c-.49-5.7-3.74-10.79-10.12-10.79-5.58,0-9.62,4.66-10.3,10.79h20.42Z"/>
    <path class="st1" d="M288.6,183.7h4.72v8.28c2.33-5.27,6.93-9.01,12.94-8.83v5.09h-.37c-6.93,0-12.57,4.97-12.57,14.53v12.63h-4.72v-31.7Z"/>
    <path class="st1" d="M309.75,183.7h4.72v5.33c2.15-3.19,4.91-6.01,10.24-6.01s8.46,2.7,10.18,6.31c2.33-3.5,5.58-6.31,11.16-6.31,7.36,0,11.77,4.84,11.77,12.75v19.62h-4.72v-18.52c0-6.13-3.07-9.56-8.22-9.56-4.72,0-8.77,3.56-8.77,9.81v18.27h-4.66v-18.64c0-5.95-3.07-9.44-8.15-9.44s-8.83,4.17-8.83,9.99v18.09h-4.72v-31.7Z"/>
    <path class="st1" d="M364.32,171.56h5.39v5.21h-5.39v-5.21ZM364.62,183.7h4.72v31.7h-4.72v-31.7Z"/>
    <path class="st1" d="M378.29,206.99v-19.13h-4.41v-4.17h4.41v-9.56h4.72v9.56h10.06v4.17h-10.06v18.52c0,3.92,2.15,5.27,5.33,5.27,1.66,0,2.94-.31,4.6-1.1v4.05c-1.66.92-3.43,1.35-5.7,1.35-5.15,0-8.95-2.51-8.95-8.95Z"/>
    <path class="st1" d="M394.85,199.64v-.12c0-9.14,6.38-16.49,15.21-16.49,9.38,0,14.78,7.48,14.78,16.74,0,.67,0,.98-.06,1.53h-25.14c.67,6.87,5.52,10.73,11.16,10.73,4.42,0,7.36-1.78,9.99-4.48l2.94,2.64c-3.19,3.62-6.99,5.95-13.06,5.95-8.64,0-15.82-6.68-15.82-16.49ZM420.05,197.8c-.49-5.7-3.74-10.79-10.12-10.79-5.58,0-9.62,4.66-10.3,10.79h20.42Z"/>
    <path class="st1" d="M441.75,206.2v-.12c0-6.62,5.52-10.24,13.55-10.24,4.11,0,6.87.55,9.75,1.35v-1.1c0-5.7-3.5-8.64-9.44-8.64-3.74,0-6.68.92-9.62,2.33l-1.41-3.86c3.49-1.66,6.87-2.64,11.53-2.64s7.91,1.16,10.24,3.49c2.15,2.15,3.25,5.27,3.25,9.26v19.37h-4.54v-4.78c-2.21,2.88-5.83,5.46-11.46,5.46s-11.83-3.31-11.83-9.87ZM465.11,203.75v-3.07c-2.39-.67-5.39-1.35-9.32-1.35-5.95,0-9.26,2.58-9.26,6.56v.12c0,3.99,3.74,6.32,7.97,6.32,5.89,0,10.61-3.56,10.61-8.58Z"/>
    <path class="st1" d="M471.61,183.7h5.21l10.67,26.3,10.73-26.3h5.09l-13.79,31.94h-4.17l-13.73-31.94Z"/>
    <path class="st1" d="M503.12,206.2v-.12c0-6.62,5.52-10.24,13.55-10.24,4.11,0,6.87.55,9.75,1.35v-1.1c0-5.7-3.5-8.64-9.44-8.64-3.74,0-6.68.92-9.62,2.33l-1.41-3.86c3.49-1.66,6.87-2.64,11.53-2.64s7.91,1.16,10.24,3.49c2.15,2.15,3.25,5.27,3.25,9.26v19.37h-4.54v-4.78c-2.21,2.88-5.83,5.46-11.47,5.46s-11.83-3.31-11.83-9.87ZM526.48,203.75v-3.07c-2.39-.67-5.39-1.35-9.32-1.35-5.95,0-9.26,2.58-9.26,6.56v.12c0,3.99,3.74,6.32,7.97,6.32,5.89,0,10.61-3.56,10.61-8.58Z"/>
    <path class="st1" d="M537.33,183.7h4.72v5.52c2.15-3.43,5.4-6.19,10.85-6.19,7.6,0,12.14,5.15,12.14,12.69v19.68h-4.72v-18.52c0-5.89-3.13-9.56-8.77-9.56s-9.5,3.99-9.5,9.93v18.15h-4.72v-31.7Z"/>
    <path class="st1" d="M569.58,212.39l21.03-24.71h-20.29v-3.99h26.73v3l-21.09,24.71h21.09v3.99h-27.47v-3Z"/>
    <path class="st1" d="M599.44,206.2v-.12c0-6.62,5.52-10.24,13.55-10.24,4.11,0,6.87.55,9.75,1.35v-1.1c0-5.7-3.5-8.64-9.44-8.64-3.74,0-6.68.92-9.62,2.33l-1.41-3.86c3.49-1.66,6.87-2.64,11.53-2.64s7.91,1.16,10.24,3.49c2.15,2.15,3.25,5.27,3.25,9.26v19.37h-4.54v-4.78c-2.21,2.88-5.83,5.46-11.46,5.46s-11.83-3.31-11.83-9.87ZM622.8,203.75v-3.07c-2.39-.67-5.39-1.35-9.32-1.35-5.95,0-9.26,2.58-9.26,6.56v.12c0,3.99,3.74,6.32,7.97,6.32,5.89,0,10.61-3.56,10.61-8.58Z"/>
    <path class="st1" d="M633.65,183.7h4.72v8.28c2.33-5.27,6.93-9.01,12.94-8.83v5.09h-.37c-6.93,0-12.57,4.97-12.57,14.53v12.63h-4.72v-31.7Z"/>
    <path class="st1" d="M230.51,281.19v-.12c0-9.14,6.38-16.49,15.21-16.49,9.38,0,14.78,7.48,14.78,16.74,0,.67,0,.98-.06,1.53h-25.14c.67,6.87,5.52,10.73,11.16,10.73,4.42,0,7.36-1.78,9.99-4.48l2.94,2.64c-3.19,3.62-6.99,5.95-13.06,5.95-8.64,0-15.82-6.68-15.82-16.49ZM255.71,279.35c-.49-5.7-3.74-10.79-10.12-10.79-5.58,0-9.62,4.66-10.3,10.79h20.42Z"/>
    <path class="st1" d="M265.09,265.25h4.72v5.52c2.15-3.43,5.4-6.19,10.85-6.19,7.6,0,12.14,5.15,12.14,12.69v19.68h-4.72v-18.52c0-5.89-3.13-9.56-8.77-9.56s-9.5,3.99-9.5,9.93v18.15h-4.72v-31.7Z"/>
    <path class="st1" d="M315.55,288.55v-19.13h-4.41v-4.17h4.41v-9.56h4.72v9.56h10.06v4.17h-10.06v18.52c0,3.92,2.15,5.27,5.33,5.27,1.66,0,2.94-.31,4.6-1.1v4.05c-1.66.92-3.43,1.35-5.7,1.35-5.15,0-8.95-2.51-8.95-8.95Z"/>
    <path class="st1" d="M334.49,284.93v-19.68h4.72v18.52c0,5.89,3.13,9.56,8.77,9.56s9.5-3.99,9.5-9.93v-18.15h4.66v31.7h-4.66v-5.52c-2.15,3.43-5.4,6.19-10.85,6.19-7.6,0-12.14-5.15-12.14-12.69Z"/>
    <path class="st1" d="M377.84,306.57v-7.3c.74.12,1.41.18,1.96.18,1.96,0,3.31-1.04,3.31-3.8v-31.58h9.32v32.31c0,7.3-3.62,10.54-10.54,10.54-1.72,0-2.76-.12-4.05-.37ZM382.87,252.19h9.81v8.28h-9.81v-8.28Z"/>
    <path class="st1" d="M397.27,285.36v-21.27h9.32v18.33c0,4.41,2.02,6.68,5.64,6.68s5.82-2.27,5.82-6.68v-18.33h9.32v32.86h-9.32v-4.66c-2.15,2.76-4.97,5.27-9.63,5.27-7.11,0-11.16-4.6-11.16-12.2Z"/>
    <path class="st1" d="M432.22,303.45l3.19-6.99c3.43,1.9,6.68,3,11.1,3,6.38,0,9.38-3.07,9.38-8.95v-1.59c-2.76,3.37-5.76,5.33-10.73,5.33-7.66,0-14.59-5.52-14.59-15.33v-.12c0-9.81,7.05-15.33,14.59-15.33,5.09,0,8.09,2.15,10.61,4.91v-4.29h9.32v25.44c0,5.83-1.41,10.18-4.17,12.94-3.13,3.13-7.79,4.42-14.16,4.42-5.4,0-10.36-1.23-14.53-3.43ZM455.89,278.92v-.12c0-4.48-3.43-7.6-8.03-7.6s-7.97,3.13-7.97,7.6v.12c0,4.6,3.37,7.6,7.97,7.6s8.03-3.13,8.03-7.6Z"/>
    <path class="st1" d="M467.78,287.51v-.12c0-7.11,5.46-10.48,13.24-10.48,3.37,0,5.64.55,8.03,1.35v-.55c0-3.92-2.39-6.01-7.05-6.01-3.62,0-6.07.61-9.07,1.78l-2.33-7.11c3.62-1.53,7.17-2.64,12.75-2.64,5.15,0,8.71,1.29,11.1,3.68,2.45,2.45,3.56,6.07,3.56,10.48v19.07h-9.01v-3.56c-2.27,2.51-5.33,4.17-9.93,4.17-6.19,0-11.28-3.5-11.28-10.05ZM489.18,285.36v-1.66c-1.66-.74-3.68-1.23-5.95-1.23-3.99,0-6.44,1.59-6.44,4.54v.12c0,2.51,2.08,3.99,5.09,3.99,4.41,0,7.3-2.33,7.3-5.76Z"/>
    <path class="st1" d="M500.89,280.58v-.12c0-10.97,7.17-16.98,14.96-16.98,4.97,0,8.03,2.27,10.24,4.91v-16.19h9.32v44.76h-9.32v-4.72c-2.27,3.13-5.33,5.33-10.24,5.33-7.66,0-14.96-6.01-14.96-16.98ZM526.21,280.58v-.12c0-5.46-3.62-9.07-7.97-9.07s-8.03,3.56-8.03,9.07v.12c0,5.46,3.68,9.07,8.03,9.07s7.97-3.62,7.97-9.07Z"/>
    <path class="st1" d="M538.1,287.51v-.12c0-7.11,5.46-10.48,13.24-10.48,3.37,0,5.64.55,8.03,1.35v-.55c0-3.92-2.39-6.01-7.05-6.01-3.62,0-6.07.61-9.07,1.78l-2.33-7.11c3.62-1.53,7.17-2.64,12.75-2.64,5.15,0,8.71,1.29,11.1,3.68,2.45,2.45,3.56,6.07,3.56,10.48v19.07h-9.01v-3.56c-2.27,2.51-5.33,4.17-9.93,4.17-6.19,0-11.28-3.5-11.28-10.05ZM559.5,285.36v-1.66c-1.66-.74-3.68-1.23-5.95-1.23-3.99,0-6.44,1.59-6.44,4.54v.12c0,2.51,2.08,3.99,5.09,3.99,4.41,0,7.3-2.33,7.3-5.76Z"/>
    <path class="st1" d="M223.06,362.25v-.12c0-9.38,6.68-17.11,16.25-17.11,10.97,0,16,8.52,16,17.84,0,.74-.06,1.53-.12,2.45h-22.87c.92,4.23,3.86,6.44,8.03,6.44,3.13,0,5.33-.98,7.97-3.37l5.33,4.72c-3.13,3.86-7.48,6.13-13.43,6.13-9.87,0-17.17-6.93-17.17-16.98ZM246.23,359.49c-.55-4.17-3-6.99-6.93-6.99s-6.38,2.76-7.11,6.99h14.04Z"/>
    <path class="st1" d="M258.56,345.64h9.32v4.66c2.15-2.76,4.97-5.27,9.69-5.27,4.35,0,7.54,1.84,9.26,5.21,2.88-3.43,6.32-5.21,10.79-5.21,6.93,0,11.1,4.17,11.1,12.08v21.4h-9.32v-18.33c0-4.41-1.96-6.68-5.46-6.68s-5.64,2.27-5.64,6.68v18.33h-9.32v-18.33c0-4.41-1.96-6.68-5.46-6.68s-5.64,2.27-5.64,6.68v18.33h-9.32v-32.86Z"/>
    <path class="st1" d="M313.13,345.64h9.32v4.72c2.27-3.13,5.33-5.33,10.24-5.33,7.66,0,14.96,6.01,14.96,16.98v.12c0,10.97-7.17,16.98-14.96,16.98-4.97,0-8.03-2.27-10.24-4.91v14.1h-9.32v-42.67ZM338.32,362.13v-.12c0-5.46-3.68-9.07-8.03-9.07s-7.97,3.62-7.97,9.07v.12c0,5.46,3.62,9.07,7.97,9.07s8.03-3.56,8.03-9.07Z"/>
    <path class="st1" d="M350.83,345.64h9.32v6.62c1.9-4.48,4.9-7.48,10.48-7.24v9.75h-.49c-6.19,0-9.99,3.68-9.99,11.59v12.14h-9.32v-32.86Z"/>
    <path class="st1" d="M370.27,362.25v-.12c0-9.38,6.68-17.11,16.25-17.11,10.97,0,16,8.52,16,17.84,0,.74-.06,1.53-.12,2.45h-22.87c.92,4.23,3.86,6.44,8.03,6.44,3.13,0,5.33-.98,7.97-3.37l5.33,4.72c-3.13,3.86-7.48,6.13-13.43,6.13-9.87,0-17.17-6.93-17.17-16.98ZM393.44,359.49c-.55-4.17-3-6.99-6.93-6.99s-6.38,2.76-7.11,6.99h14.04Z"/>
    <path class="st1" d="M403.19,374.15l3.99-6.13c3.62,2.64,7.23,3.92,10.36,3.92,2.7,0,3.92-.98,3.92-2.45v-.12c0-2.02-3.19-2.64-6.81-3.8-4.6-1.29-9.81-3.49-9.81-9.87v-.12c0-6.68,5.4-10.42,12.02-10.42,4.17,0,8.64,1.41,12.26,3.8l-3.56,6.44c-3.25-1.9-6.5-3.07-8.89-3.07-2.27,0-3.43.98-3.43,2.27v.12c0,1.72,3.13,2.82,6.68,3.92,4.6,1.47,9.93,3.74,9.93,9.75v.12c0,7.3-5.46,10.61-12.57,10.61-4.66,0-9.69-1.53-14.1-4.97Z"/>
    <path class="st1" d="M430.9,369.06v-.12c0-7.11,5.46-10.48,13.24-10.48,3.37,0,5.64.55,8.03,1.35v-.55c0-3.92-2.39-6.01-7.05-6.01-3.62,0-6.07.61-9.07,1.78l-2.33-7.11c3.62-1.53,7.17-2.64,12.75-2.64,5.15,0,8.71,1.29,11.1,3.68,2.45,2.45,3.56,6.07,3.56,10.48v19.07h-9.01v-3.56c-2.27,2.51-5.33,4.17-9.93,4.17-6.19,0-11.28-3.5-11.28-10.05ZM452.3,366.91v-1.66c-1.66-.74-3.68-1.23-5.95-1.23-3.99,0-6.44,1.59-6.44,4.54v.12c0,2.51,2.08,3.99,5.09,3.99,4.41,0,7.3-2.33,7.3-5.76Z"/>
    <path class="st1" d="M465.48,345.64h9.32v6.62c1.9-4.48,4.9-7.48,10.48-7.24v9.75h-.49c-6.19,0-9.99,3.68-9.99,11.59v12.14h-9.32v-32.86Z"/>
    <path class="st1" d="M487.62,333.74h9.81v8.28h-9.81v-8.28ZM487.86,345.64h9.32v32.86h-9.32v-32.86Z"/>
    <path class="st1" d="M500.31,369.06v-.12c0-7.11,5.46-10.48,13.24-10.48,3.37,0,5.64.55,8.03,1.35v-.55c0-3.92-2.39-6.01-7.05-6.01-3.62,0-6.07.61-9.07,1.78l-2.33-7.11c3.62-1.53,7.17-2.64,12.75-2.64,5.15,0,8.71,1.29,11.1,3.68,2.45,2.45,3.56,6.07,3.56,10.48v19.07h-9.01v-3.56c-2.27,2.51-5.33,4.17-9.93,4.17-6.19,0-11.28-3.5-11.28-10.05ZM521.71,366.91v-1.66c-1.66-.74-3.68-1.23-5.95-1.23-3.99,0-6.44,1.59-6.44,4.54v.12c0,2.51,2.08,3.99,5.09,3.99,4.41,0,7.3-2.33,7.3-5.76Z"/>
    <path class="st1" d="M535.32,333.74h9.32v44.76h-9.32v-44.76Z"/>
    <path class="st1" d="M556.22,353.97l.31-.31c7.79-.31,10.73-2.33,10.73-5.58v-.12c0-2.76-2.02-4.35-5.64-4.35s-6.32,1.35-9.2,4.23l-5.64-6.19c3.62-3.92,8.34-6.62,15.02-6.62,8.83,0,14.84,4.54,14.84,12.69v.12c0,7.79-5.4,11.04-12.08,12.32l-.67,3.74h-6.25l-1.41-9.93ZM555.61,368.69h9.93v9.81h-9.93v-9.81Z"/>
  </g>
  <g>
    <g>
      <path class="st1" d="M95.79,491.52c-23.37,0-42.39-19.02-42.39-42.39V56.45c0-23.37,19.02-42.39,42.39-42.39v16.04c-14.53,0-26.35,11.82-26.35,26.35v392.68c0,14.53,11.82,26.35,26.35,26.35v16.04Z"/>
      <path class="st0" d="M69.44,72.75h-16.04v28.96c0,11.39-4.52,22.31-12.57,30.36l-8.34,8.34c-5.31,5.31-8.3,12.52-8.3,20.03v186.52c0,9.02,7.31,16.33,16.33,16.33h28.93V72.75Z"/>
      <rect class="st1" x="43.32" y="374.05" width="4.7" height="4.7"/>
      <rect class="st1" x="43.32" y="384.82" width="4.7" height="25.74"/>
      <path class="st0" d="M26.66,422.63h42.78v28.87H26.66c-1.37,0-2.48-1.11-2.48-2.48v-23.92c0-1.37,1.11-2.48,2.48-2.48Z"/>
      <rect class="st1" x="104.04" y="25.89" width="81.42" height="4.21"/>
      <rect class="st0" x="190.42" y="14.83" width="22.68" height="15.27"/>
      <rect class="st0" x="219.29" y="14.83" width="22.68" height="15.27"/>
      <rect class="st1" x="193.17" y="25.89" width="2.64" height="2.29"/>
      <rect class="st1" x="95.79" y="8.48" width="5.58" height="5.58"/>
      <rect class="st1" x="99.91" y="487.93" width="3.55" height="3.55"/>
      <rect class="st1" x="99.91" y="475.67" width="3.55" height="3.55"/>
    </g>
    <g>
      <path class="st1" d="M704.21,491.52c23.37,0,42.39-19.02,42.39-42.39V56.45c0-23.37-19.02-42.39-42.39-42.39v16.04c14.53,0,26.35,11.82,26.35,26.35v392.68c0,14.53-11.82,26.35-26.35,26.35v16.04Z"/>
      <path class="st0" d="M730.56,72.75h16.04v28.96c0,11.39,4.52,22.31,12.57,30.36l8.34,8.34c5.31,5.31,8.3,12.52,8.3,20.03v186.52c0,9.02-7.31,16.33-16.33,16.33h-28.93V72.75Z"/>
      <rect class="st1" x="751.98" y="374.05" width="4.7" height="4.7" transform="translate(1508.66 752.8) rotate(-180)"/>
      <rect class="st1" x="751.98" y="384.82" width="4.7" height="25.74" transform="translate(1508.66 795.38) rotate(-180)"/>
      <path class="st0" d="M733.04,422.63h42.78v28.87h-42.78c-1.37,0-2.48-1.11-2.48-2.48v-23.92c0-1.37,1.11-2.48,2.48-2.48Z" transform="translate(1506.37 874.12) rotate(-180)"/>
      <rect class="st1" x="614.54" y="25.89" width="81.42" height="4.21" transform="translate(1310.51 55.99) rotate(-180)"/>
      <rect class="st0" x="586.9" y="14.83" width="22.68" height="15.27" transform="translate(1196.48 44.92) rotate(-180)"/>
      <rect class="st0" x="558.03" y="14.83" width="22.68" height="15.27" transform="translate(1138.74 44.92) rotate(-180)"/>
      <rect class="st1" x="604.2" y="25.89" width="2.64" height="2.29" transform="translate(1211.03 54.07) rotate(-180)"/>
      <rect class="st1" x="698.63" y="8.48" width="5.58" height="5.58" transform="translate(1402.84 22.54) rotate(-180)"/>
      <rect class="st1" x="696.53" y="487.93" width="3.55" height="3.55" transform="translate(1396.62 979.41) rotate(-180)"/>
      <rect class="st1" x="696.53" y="475.67" width="3.55" height="3.55" transform="translate(1396.62 954.89) rotate(-180)"/>
    </g>
    <g>
      <path class="st1" d="M31.74,352.42v-2.82h7.71v-4.93h2.47v7.75h-10.18Z"/>
      <path class="st1" d="M38.02,344.05h-.03c-2.28,0-4.12-1.64-4.12-3.97,0-2.71,1.99-3.96,4.31-3.96.17,0,.38,0,.57.01v5.27c.87-.22,1.29-.83,1.29-1.7,0-.68-.23-1.18-.8-1.75l1.27-1.53c.97.76,1.6,1.83,1.6,3.4,0,2.47-1.66,4.22-4.09,4.22ZM37.34,338.7c-.87.1-1.43.63-1.43,1.38s.55,1.21,1.43,1.37v-2.75Z"/>
      <path class="st1" d="M34.05,334.93v-2.76h1.11c-.65-.51-1.28-1.24-1.28-2.36,0-1.69,1.09-2.68,2.9-2.68h5.15v2.75h-4.26c-.87,0-1.34.44-1.34,1.12s.47,1.16,1.34,1.16h4.26v2.76h-7.87Z"/>
      <path class="st1" d="M38.02,326.01h-.03c-2.26,0-4.12-1.83-4.12-4.35s1.85-4.34,4.09-4.34h.03c2.26,0,4.12,1.85,4.12,4.37s-1.83,4.32-4.09,4.32ZM38.02,320h-.03c-.97,0-1.79.7-1.79,1.69s.79,1.64,1.76,1.64h.03c.96,0,1.77-.7,1.77-1.67s-.8-1.66-1.75-1.66Z"/>
      <path class="st1" d="M34.05,317.19v-2.91l4.6-1.51-4.6-1.53v-2.85l7.93,3.14v2.52l-7.93,3.14Z"/>
      <path class="st1" d="M38.02,308.28h-.03c-2.26,0-4.12-1.83-4.12-4.35s1.85-4.34,4.09-4.34h.03c2.26,0,4.12,1.85,4.12,4.37s-1.83,4.32-4.09,4.32ZM38.02,302.27h-.03c-.97,0-1.79.7-1.79,1.69s.79,1.64,1.76,1.64h.03c.96,0,1.77-.7,1.77-1.67s-.8-1.66-1.75-1.66Z"/>
      <path class="st1" d="M31.74,293.9v-4.38c0-2.56,1.31-4.22,3.56-4.22h.03c2.42,0,3.68,1.85,3.68,4.36v1.41h2.91v2.82h-10.18ZM36.8,289.73c0-.99-.52-1.61-1.34-1.61h-.03c-.87,0-1.32.63-1.32,1.63v1.34h2.69v-1.35Z"/>
      <path class="st1" d="M31.3,284.2v-2.75h10.62v2.75h-10.62Z"/>
      <path class="st1" d="M39.67,280.27h-.03c-1.64,0-2.47-1.24-2.47-3.08,0-.74.13-1.44.31-1.89h-.13c-.83,0-1.29.51-1.29,1.57,0,.83.16,1.47.44,2.18l-1.93.57c-.36-.89-.61-1.83-.61-3.19s.33-2.37.96-3c.58-.6,1.4-.84,2.5-.84h4.52v2.72h-.83c.6.57,1,1.28,1,2.33,0,1.5-.87,2.63-2.43,2.63ZM39.07,275.26h-.36c-.12.29-.2.68-.2,1.09,0,.81.38,1.27.97,1.27h.03c.54,0,.86-.41.86-.97,0-.81-.49-1.38-1.29-1.38Z"/>
      <path class="st1" d="M34.05,266.17v-2.84l7.68,2.88c1.86.7,2.56,1.41,2.56,3,0,.99-.26,1.77-.68,2.52l-1.93-.84c.28-.45.42-.9.42-1.21,0-.28-.07-.47-.32-.65l-7.73,3.08v-2.88l4.74-1.57-4.74-1.48Z"/>
      <path class="st1" d="M36.86,262.6h-.03c-2.97,0-5.3-2.27-5.3-5.35,0-2.07.87-3.43,2.11-4.32l1.64,2.12c-.71.58-1.19,1.24-1.19,2.23,0,1.43,1.22,2.43,2.71,2.43h.03c1.53,0,2.72-1,2.72-2.43,0-1.06-.49-1.67-1.24-2.3l1.51-2.12c1.32.97,2.3,2.26,2.3,4.5,0,2.91-2.23,5.25-5.27,5.25Z"/>
      <path class="st1" d="M31.3,251.79v-2.76h3.83c-.65-.51-1.25-1.24-1.25-2.36,0-1.69,1.09-2.68,2.9-2.68h5.15v2.75h-4.26c-.87,0-1.34.44-1.34,1.12s.47,1.16,1.34,1.16h4.26v2.76h-10.62Z"/>
      <path class="st1" d="M38.02,242.86h-.03c-2.28,0-4.12-1.64-4.12-3.97,0-2.71,1.99-3.96,4.31-3.96.17,0,.38,0,.57.01v5.27c.87-.22,1.29-.83,1.29-1.7,0-.68-.23-1.18-.8-1.75l1.27-1.53c.97.76,1.6,1.83,1.6,3.4,0,2.47-1.66,4.22-4.09,4.22ZM37.34,237.51c-.87.1-1.43.63-1.43,1.38s.55,1.21,1.43,1.37v-2.75Z"/>
      <path class="st1" d="M38.02,234.05h-.03c-2.23,0-4.1-1.72-4.1-4.2,0-1.63.7-2.68,1.75-3.36l1.4,1.86c-.51.39-.83.81-.83,1.47,0,.9.79,1.56,1.76,1.56h.03c1,0,1.79-.64,1.79-1.57,0-.68-.31-1.09-.81-1.51l1.34-1.85c1.09.74,1.8,1.76,1.8,3.49,0,2.39-1.86,4.12-4.09,4.12Z"/>
      <path class="st1" d="M31.3,225.46v-2.76h5.38l-2.63-2.14v-3.13l3.14,2.74,4.73-2.81v3.06l-2.69,1.57.83.71h1.86v2.76h-10.62Z"/>
      <path class="st1" d="M31.74,212.16v-3.94c0-3.62,2.08-5.73,5.03-5.73h.03c2.95,0,5.12,2.14,5.12,5.79v3.88h-10.18ZM34.23,209.34h5.19v-1.15c0-1.7-.93-2.82-2.58-2.82h-.03c-1.64,0-2.59,1.12-2.59,2.82v1.15Z"/>
      <path class="st1" d="M38.02,201.48h-.03c-2.28,0-4.12-1.64-4.12-3.97,0-2.71,1.99-3.96,4.31-3.96.17,0,.38,0,.57.01v5.27c.87-.22,1.29-.83,1.29-1.7,0-.68-.23-1.18-.8-1.75l1.27-1.53c.97.76,1.6,1.83,1.6,3.4,0,2.47-1.66,4.22-4.09,4.22ZM37.34,196.12c-.87.1-1.43.63-1.43,1.38s.55,1.21,1.43,1.37v-2.75Z"/>
      <path class="st1" d="M40.92,192.93l-1.66-1.03c.6-.92.9-1.88.9-2.69,0-.48-.15-.71-.42-.71h-.03c-.33,0-.45.45-.68,1.28-.39,1.56-.93,2.79-2.5,2.79h-.03c-1.67,0-2.6-1.35-2.6-3.16,0-1.16.33-2.33.92-3.24l1.75.95c-.47.81-.74,1.7-.74,2.33,0,.42.16.64.39.64h.03c.31,0,.45-.47.7-1.28.42-1.56.97-2.79,2.5-2.79h.03c1.73,0,2.63,1.29,2.63,3.22,0,1.34-.38,2.62-1.18,3.71Z"/>
      <path class="st1" d="M31.3,184.87v-2.76h5.38l-2.63-2.14v-3.13l3.14,2.74,4.73-2.81v3.06l-2.69,1.57.83.71h1.86v2.76h-10.62Z"/>
    </g>
    <g>
      <path class="st1" d="M767.86,176.77v2.82h-7.71v4.93h-2.47v-7.75h10.18Z"/>
      <path class="st1" d="M761.58,185.14h.03c2.28,0,4.12,1.64,4.12,3.97,0,2.71-1.99,3.96-4.31,3.96-.17,0-.38,0-.57-.01v-5.27c-.87.22-1.29.83-1.29,1.7,0,.68.23,1.18.8,1.75l-1.27,1.53c-.97-.76-1.6-1.83-1.6-3.4,0-2.47,1.66-4.22,4.09-4.22ZM762.26,190.49c.87-.1,1.43-.63,1.43-1.38s-.55-1.21-1.43-1.37v2.75Z"/>
      <path class="st1" d="M765.55,194.26v2.76h-1.11c.65.51,1.28,1.24,1.28,2.36,0,1.69-1.09,2.68-2.9,2.68h-5.15v-2.75h4.26c.87,0,1.34-.44,1.34-1.12s-.47-1.16-1.34-1.16h-4.26v-2.76h7.87Z"/>
      <path class="st1" d="M761.58,203.18h.03c2.26,0,4.12,1.83,4.12,4.35s-1.85,4.34-4.09,4.34h-.03c-2.26,0-4.12-1.85-4.12-4.37s1.83-4.32,4.09-4.32ZM761.58,209.19h.03c.97,0,1.79-.7,1.79-1.69s-.79-1.64-1.76-1.64h-.03c-.96,0-1.77.7-1.77,1.67s.8,1.66,1.75,1.66Z"/>
      <path class="st1" d="M765.55,212v2.91l-4.6,1.51,4.6,1.53v2.85l-7.93-3.14v-2.52l7.93-3.14Z"/>
      <path class="st1" d="M761.58,220.91h.03c2.26,0,4.12,1.83,4.12,4.35s-1.85,4.34-4.09,4.34h-.03c-2.26,0-4.12-1.85-4.12-4.37s1.83-4.32,4.09-4.32ZM761.58,226.92h.03c.97,0,1.79-.7,1.79-1.69s-.79-1.64-1.76-1.64h-.03c-.96,0-1.77.7-1.77,1.67s.8,1.66,1.75,1.66Z"/>
      <path class="st1" d="M767.86,235.29v4.38c0,2.56-1.31,4.22-3.56,4.22h-.03c-2.42,0-3.68-1.85-3.68-4.36v-1.41h-2.91v-2.82h10.18ZM762.8,239.46c0,.99.52,1.61,1.34,1.61h.03c.87,0,1.32-.63,1.32-1.63v-1.34h-2.69v1.35Z"/>
      <path class="st1" d="M768.3,244.99v2.75h-10.62v-2.75h10.62Z"/>
      <path class="st1" d="M759.93,248.92h.03c1.64,0,2.47,1.24,2.47,3.08,0,.74-.13,1.44-.31,1.89h.13c.83,0,1.29-.51,1.29-1.57,0-.83-.16-1.47-.44-2.18l1.93-.57c.36.89.61,1.83.61,3.19s-.33,2.37-.96,3c-.58.6-1.4.84-2.5.84h-4.52v-2.72h.83c-.6-.57-1-1.28-1-2.33,0-1.5.87-2.63,2.43-2.63ZM760.53,253.93h.36c.12-.29.2-.68.2-1.09,0-.81-.38-1.27-.97-1.27h-.03c-.54,0-.86.41-.86.97,0,.81.49,1.38,1.29,1.38Z"/>
      <path class="st1" d="M765.55,263.02v2.84l-7.68-2.88c-1.86-.7-2.56-1.41-2.56-3,0-.99.26-1.77.68-2.52l1.93.84c-.28.45-.42.9-.42,1.21,0,.28.07.47.32.65l7.73-3.08v2.88l-4.74,1.57,4.74,1.48Z"/>
      <path class="st1" d="M762.74,266.59h.03c2.97,0,5.3,2.27,5.3,5.35,0,2.07-.87,3.43-2.11,4.32l-1.64-2.12c.71-.58,1.19-1.24,1.19-2.23,0-1.43-1.22-2.43-2.71-2.43h-.03c-1.53,0-2.72,1-2.72,2.43,0,1.06.49,1.67,1.24,2.3l-1.51,2.12c-1.32-.97-2.3-2.26-2.3-4.5,0-2.91,2.23-5.25,5.27-5.25Z"/>
      <path class="st1" d="M768.3,277.4v2.76h-3.83c.65.51,1.25,1.24,1.25,2.36,0,1.69-1.09,2.68-2.9,2.68h-5.15v-2.75h4.26c.87,0,1.34-.44,1.34-1.12s-.47-1.16-1.34-1.16h-4.26v-2.76h10.62Z"/>
      <path class="st1" d="M761.58,286.32h.03c2.28,0,4.12,1.64,4.12,3.97,0,2.71-1.99,3.96-4.31,3.96-.17,0-.38,0-.57-.01v-5.27c-.87.22-1.29.83-1.29,1.7,0,.68.23,1.18.8,1.75l-1.27,1.53c-.97-.76-1.6-1.83-1.6-3.4,0-2.47,1.66-4.22,4.09-4.22ZM762.26,291.68c.87-.1,1.43-.63,1.43-1.38s-.55-1.21-1.43-1.37v2.75Z"/>
      <path class="st1" d="M761.58,295.14h.03c2.23,0,4.1,1.72,4.1,4.2,0,1.63-.7,2.68-1.75,3.36l-1.4-1.86c.51-.39.83-.81.83-1.47,0-.9-.79-1.56-1.76-1.56h-.03c-1,0-1.79.64-1.79,1.57,0,.68.31,1.09.81,1.51l-1.34,1.85c-1.09-.74-1.8-1.76-1.8-3.49,0-2.39,1.86-4.12,4.09-4.12Z"/>
      <path class="st1" d="M768.3,303.73v2.76h-5.38l2.63,2.14v3.13l-3.14-2.74-4.73,2.81v-3.06l2.69-1.57-.83-.71h-1.86v-2.76h10.62Z"/>
      <path class="st1" d="M767.86,317.03v3.94c0,3.62-2.08,5.73-5.03,5.73h-.03c-2.95,0-5.12-2.14-5.12-5.79v-3.88h10.18ZM765.37,319.85h-5.19v1.15c0,1.7.93,2.82,2.58,2.82h.03c1.64,0,2.59-1.12,2.59-2.82v-1.15Z"/>
      <path class="st1" d="M761.58,327.71h.03c2.28,0,4.12,1.64,4.12,3.97,0,2.71-1.99,3.96-4.31,3.96-.17,0-.38,0-.57-.01v-5.27c-.87.22-1.29.83-1.29,1.7,0,.68.23,1.18.8,1.75l-1.27,1.53c-.97-.76-1.6-1.83-1.6-3.4,0-2.47,1.66-4.22,4.09-4.22ZM762.26,333.07c.87-.1,1.43-.63,1.43-1.38s-.55-1.21-1.43-1.37v2.75Z"/>
      <path class="st1" d="M758.68,336.25l1.66,1.03c-.6.92-.9,1.88-.9,2.69,0,.48.15.71.42.71h.03c.33,0,.45-.45.68-1.28.39-1.56.93-2.79,2.5-2.79h.03c1.67,0,2.6,1.35,2.6,3.16,0,1.16-.33,2.33-.92,3.24l-1.75-.95c.47-.81.74-1.7.74-2.33,0-.42-.16-.64-.39-.64h-.03c-.31,0-.45.47-.7,1.28-.42,1.56-.97,2.79-2.5,2.79h-.03c-1.73,0-2.63-1.29-2.63-3.22,0-1.34.38-2.62,1.18-3.71Z"/>
      <path class="st1" d="M768.3,344.32v2.76h-5.38l2.63,2.14v3.13l-3.14-2.74-4.73,2.81v-3.06l2.69-1.57-.83-.71h-1.86v-2.76h10.62Z"/>
    </g>
  </g>
</svg>