<?xml version="1.0" encoding="UTF-8"?>
<svg id="Layer_1" xmlns="http://www.w3.org/2000/svg" version="1.1" viewBox="0 0 1125.1 517.46">
  <!-- Generator: Adobe Illustrator 29.7.1, SVG Export Plug-In . SVG Version: 2.1.1 Build 8)  -->
  <defs>
    <style>
      .st0 {
        opacity: .2;
      }

      .st0, .st1 {
        fill: #fff;
      }
    </style>
  </defs>
  <g>
    <path class="st1" d="M149.89,150.17v-.18c0-11.25,8.46-16.83,18.72-18.27l.81-9.72h4.59l1.44,14.58-.45.45c-11.79.27-17.91,5.13-17.91,12.69v.18c0,6.48,4.95,11.7,13.14,11.7,6.57,0,11.7-3.06,16.29-8.46l4.59,4.41c-5.13,6.21-11.43,10.44-21.06,10.44-12.24,0-20.16-7.56-20.16-17.82ZM167.71,104.19h8.28v9.45h-8.28v-9.45Z"/>
    <path class="st1" d="M253.03,169.07l-8.37-7.47c-5.4,4.23-11.97,6.66-19.8,6.66-19.17,0-32.04-15.03-32.04-32.4v-.18c0-17.37,13.05-32.58,32.22-32.58s32.04,15.03,32.04,32.4v.18c0,7.92-2.7,15.3-7.47,21.06l8.28,7.02-4.86,5.31ZM239.53,157.1l-11.7-10.17,4.77-5.31,11.79,10.71c3.51-4.59,5.31-10.08,5.31-16.47v-.18c0-14.31-10.44-26.01-24.84-26.01s-24.66,11.52-24.66,25.83v.18c0,14.31,10.44,26.01,24.84,26.01,5.67,0,10.53-1.71,14.49-4.59Z"/>
    <path class="st1" d="M264.82,149.55v-28.89h6.93v27.18c0,8.64,4.59,14.04,12.87,14.04s13.95-5.85,13.95-14.58v-26.64h6.84v46.53h-6.84v-8.1c-3.15,5.04-7.92,9.09-15.93,9.09-11.16,0-17.82-7.56-17.82-18.63Z"/>
    <path class="st1" d="M315.76,102.84h7.92v7.65h-7.92v-7.65ZM316.21,120.66h6.93v46.53h-6.93v-46.53Z"/>
    <path class="st1" d="M330.97,144.06v-.18c0-13.41,9.36-24.21,22.32-24.21,13.77,0,21.69,10.98,21.69,24.57,0,.99,0,1.44-.09,2.25h-36.9c.99,10.08,8.1,15.75,16.38,15.75,6.48,0,10.8-2.61,14.67-6.57l4.32,3.87c-4.68,5.31-10.26,8.73-19.17,8.73-12.69,0-23.22-9.81-23.22-24.21ZM367.96,141.36c-.72-8.37-5.49-15.84-14.85-15.84-8.19,0-14.13,6.84-15.12,15.84h29.97Z"/>
    <path class="st1" d="M381.72,120.66h6.93v12.15c3.42-7.74,10.17-13.23,18.99-12.96v7.47h-.54c-10.17,0-18.45,7.29-18.45,21.33v18.54h-6.93v-46.53Z"/>
    <path class="st1" d="M407.92,144.06v-.18c0-13.41,9.36-24.21,22.32-24.21,13.77,0,21.69,10.98,21.69,24.57,0,.99,0,1.44-.09,2.25h-36.9c.99,10.08,8.1,15.75,16.38,15.75,6.48,0,10.8-2.61,14.67-6.57l4.32,3.87c-4.68,5.31-10.26,8.73-19.17,8.73-12.69,0-23.22-9.81-23.22-24.21ZM444.9,141.36c-.72-8.37-5.49-15.84-14.85-15.84-8.19,0-14.13,6.84-15.12,15.84h29.97Z"/>
    <path class="st1" d="M454.81,161.24l3.51-4.95c5.04,3.87,10.62,5.94,16.11,5.94s9.63-2.79,9.63-7.38v-.18c0-4.59-5.49-6.48-11.61-8.19-7.2-2.16-15.39-4.5-15.39-13.14v-.18c0-8.01,6.66-13.32,15.84-13.32,5.76,0,11.97,1.98,16.74,5.13l-3.15,5.22c-4.32-2.79-9.18-4.5-13.77-4.5-5.49,0-9,2.88-9,6.75v.18c0,4.41,5.76,6.12,11.97,8.01,7.2,2.16,14.94,4.95,14.94,13.32v.18c0,8.82-7.29,13.95-16.56,13.95-6.75,0-13.95-2.61-19.26-6.84Z"/>
    <path class="st1" d="M519.69,120.66h6.93v12.15c3.42-7.74,10.17-13.23,18.99-12.96v7.47h-.54c-10.17,0-18.45,7.29-18.45,21.33v18.54h-6.93v-46.53Z"/>
    <path class="st1" d="M545.88,144.06v-.18c0-13.41,9.36-24.21,22.32-24.21,13.77,0,21.69,10.98,21.69,24.57,0,.99,0,1.44-.09,2.25h-36.9c.99,10.08,8.1,15.75,16.38,15.75,6.48,0,10.8-2.61,14.67-6.57l4.32,3.87c-4.68,5.31-10.26,8.73-19.17,8.73-12.69,0-23.22-9.81-23.22-24.21ZM582.87,141.36c-.72-8.37-5.49-15.84-14.85-15.84-8.19,0-14.13,6.84-15.12,15.84h29.97Z"/>
    <path class="st1" d="M589.8,120.66h7.65l15.66,38.61,15.75-38.61h7.47l-20.25,46.89h-6.12l-20.16-46.89Z"/>
    <path class="st1" d="M642,102.84h7.92v7.65h-7.92v-7.65ZM642.45,120.66h6.93v46.53h-6.93v-46.53Z"/>
    <path class="st1" d="M656.22,161.24l3.51-4.95c5.04,3.87,10.62,5.94,16.11,5.94s9.63-2.79,9.63-7.38v-.18c0-4.59-5.49-6.48-11.61-8.19-7.2-2.16-15.39-4.5-15.39-13.14v-.18c0-8.01,6.66-13.32,15.84-13.32,5.76,0,11.97,1.98,16.74,5.13l-3.15,5.22c-4.32-2.79-9.18-4.5-13.77-4.5-5.49,0-9,2.88-9,6.75v.18c0,4.41,5.76,6.12,11.97,8.01,7.2,2.16,14.94,4.95,14.94,13.32v.18c0,8.82-7.29,13.95-16.56,13.95-6.75,0-13.95-2.61-19.26-6.84Z"/>
    <path class="st1" d="M696,153.68v-.18c0-9.72,8.1-15.03,19.89-15.03,6.03,0,10.08.81,14.31,1.98v-1.62c0-8.37-5.13-12.69-13.86-12.69-5.49,0-9.81,1.35-14.13,3.42l-2.07-5.67c5.13-2.43,10.08-3.87,16.92-3.87s11.61,1.71,15.03,5.13c3.15,3.15,4.77,7.74,4.77,13.59v28.44h-6.66v-7.02c-3.24,4.23-8.55,8.01-16.83,8.01s-17.37-4.86-17.37-14.49ZM730.29,150.09v-4.5c-3.51-.99-7.92-1.98-13.68-1.98-8.73,0-13.59,3.78-13.59,9.63v.18c0,5.85,5.49,9.27,11.7,9.27,8.64,0,15.57-5.22,15.57-12.6Z"/>
    <path class="st1" d="M746.22,120.66h6.93v12.15c3.42-7.74,10.17-13.23,18.99-12.96v7.47h-.54c-10.17,0-18.45,7.29-18.45,21.33v18.54h-6.93v-46.53Z"/>
    <path class="st1" d="M795.99,144.15v-.18c0-13.23,10.17-24.3,24.3-24.3s24.21,10.98,24.21,24.12v.18c0,13.23-10.35,24.3-24.39,24.3s-24.12-10.98-24.12-24.12ZM837.39,144.15v-.18c0-9.99-7.47-18.18-17.28-18.18s-17.01,8.19-17.01,18v.18c0,9.99,7.38,18.09,17.19,18.09s17.1-8.19,17.1-17.91Z"/>
    <path class="st1" d="M854.04,154.85v-28.08h-6.48v-6.12h6.48v-14.04h6.93v14.04h14.76v6.12h-14.76v27.18c0,5.76,3.15,7.74,7.83,7.74,2.43,0,4.32-.45,6.75-1.62v5.94c-2.43,1.35-5.04,1.98-8.37,1.98-7.56,0-13.14-3.69-13.14-13.14Z"/>
    <path class="st1" d="M882.57,120.66h6.93v12.15c3.42-7.74,10.17-13.23,18.99-12.96v7.47h-.54c-10.17,0-18.45,7.29-18.45,21.33v18.54h-6.93v-46.53Z"/>
    <path class="st1" d="M907.86,153.68v-.18c0-9.72,8.1-15.03,19.89-15.03,6.03,0,10.08.81,14.31,1.98v-1.62c0-8.37-5.13-12.69-13.86-12.69-5.49,0-9.81,1.35-14.13,3.42l-2.07-5.67c5.13-2.43,10.08-3.87,16.92-3.87s11.61,1.71,15.03,5.13c3.15,3.15,4.77,7.74,4.77,13.59v28.44h-6.66v-7.02c-3.24,4.23-8.55,8.01-16.83,8.01s-17.37-4.86-17.37-14.49ZM942.15,150.09v-4.5c-3.51-.99-7.92-1.98-13.68-1.98-8.73,0-13.59,3.78-13.59,9.63v.18c0,5.85,5.49,9.27,11.7,9.27,8.64,0,15.57-5.22,15.57-12.6Z"/>
    <path class="st1" d="M119.29,289.4v-5.67c1.08.27,2.43.27,3.42.27,3.15,0,5.31-1.89,5.31-6.21v-49.14h6.93v49.23c0,8.28-4.23,11.97-11.34,11.97-1.71,0-2.79-.09-4.32-.45ZM127.57,210.84h7.92v7.65h-7.92v-7.65Z"/>
    <path class="st1" d="M144.94,257.55v-28.89h6.93v27.18c0,8.64,4.59,14.04,12.87,14.04s13.95-5.85,13.95-14.58v-26.64h6.84v46.53h-6.84v-8.1c-3.15,5.04-7.92,9.09-15.93,9.09-11.16,0-17.82-7.56-17.82-18.63Z"/>
    <path class="st1" d="M195.16,283.28l3.15-5.4c5.4,3.87,11.16,5.94,17.91,5.94,10.35,0,16.92-5.67,16.92-16.56v-5.49c-4.05,5.4-9.72,9.81-18.27,9.81-11.16,0-21.87-8.46-21.87-21.78v-.18c0-13.59,10.71-21.96,21.87-21.96,8.73,0,14.31,4.32,18.18,9.36v-8.37h6.93v38.43c0,7.2-2.07,12.6-5.94,16.47-4.23,4.23-10.26,6.21-17.73,6.21s-14.94-2.16-21.15-6.48ZM233.32,249.72v-.18c0-9.54-8.28-15.75-17.1-15.75s-16.11,6.12-16.11,15.66v.18c0,9.36,7.47,15.84,16.11,15.84s17.1-6.39,17.1-15.75Z"/>
    <path class="st1" d="M246.55,261.68v-.18c0-9.72,8.1-15.03,19.89-15.03,6.03,0,10.08.81,14.31,1.98v-1.62c0-8.37-5.13-12.69-13.86-12.69-5.49,0-9.81,1.35-14.13,3.42l-2.07-5.67c5.13-2.43,10.08-3.87,16.92-3.87s11.61,1.71,15.03,5.13c3.15,3.15,4.77,7.74,4.77,13.59v28.44h-6.66v-7.02c-3.24,4.23-8.55,8.01-16.83,8.01s-17.37-4.86-17.37-14.49ZM280.83,258.09v-4.5c-3.51-.99-7.92-1.98-13.68-1.98-8.73,0-13.59,3.78-13.59,9.63v.18c0,5.85,5.49,9.27,11.7,9.27,8.64,0,15.57-5.22,15.57-12.6Z"/>
    <path class="st1" d="M294.07,252.06v-.18c0-15.12,11.07-24.21,22.23-24.21,8.64,0,14.22,4.59,17.82,9.9v-28.08h6.93v65.7h-6.93v-9.36c-3.87,5.58-9.18,10.35-17.82,10.35-11.16,0-22.23-8.82-22.23-24.12ZM334.38,251.96v-.18c0-10.71-8.19-17.91-16.83-17.91s-16.38,6.66-16.38,17.91v.18c0,11.07,7.47,18,16.38,18s16.83-7.29,16.83-18Z"/>
    <path class="st1" d="M347.61,261.68v-.18c0-9.72,8.1-15.03,19.89-15.03,6.03,0,10.08.81,14.31,1.98v-1.62c0-8.37-5.13-12.69-13.86-12.69-5.49,0-9.81,1.35-14.13,3.42l-2.07-5.67c5.13-2.43,10.08-3.87,16.92-3.87s11.61,1.71,15.03,5.13c3.15,3.15,4.77,7.74,4.77,13.59v28.44h-6.66v-7.02c-3.24,4.23-8.55,8.01-16.83,8.01s-17.37-4.86-17.37-14.49ZM381.9,258.09v-4.5c-3.51-.99-7.92-1.98-13.68-1.98-8.73,0-13.59,3.78-13.59,9.63v.18c0,5.85,5.49,9.27,11.7,9.27,8.64,0,15.57-5.22,15.57-12.6Z"/>
    <path class="st1" d="M419.43,228.66h6.93v9.36c3.87-5.49,9.18-10.35,17.82-10.35,11.16,0,22.23,8.82,22.23,24.12v.18c0,15.12-10.98,24.21-22.23,24.21-8.64,0-14.22-4.59-17.82-9.9v23.31h-6.93v-60.93ZM459.3,252.06v-.18c0-11.07-7.47-18-16.38-18s-16.83,7.38-16.83,17.91v.18c0,10.8,8.19,18,16.83,18s16.38-6.66,16.38-17.91Z"/>
    <path class="st1" d="M473.79,228.66h6.93v12.15c3.42-7.74,10.17-13.23,18.99-12.96v7.47h-.54c-10.17,0-18.45,7.29-18.45,21.33v18.54h-6.93v-46.53Z"/>
    <path class="st1" d="M499.98,252.15v-.18c0-13.23,10.17-24.3,24.3-24.3s24.21,10.98,24.21,24.12v.18c0,13.23-10.35,24.3-24.39,24.3s-24.12-10.98-24.12-24.12ZM541.38,252.15v-.18c0-9.99-7.47-18.18-17.28-18.18s-17.01,8.19-17.01,18v.18c0,9.99,7.38,18.09,17.19,18.09s17.1-8.19,17.1-17.91Z"/>
    <path class="st1" d="M562.53,266.27v8.91h-6.93v-65.7h6.93v28.53c3.87-5.49,9.18-10.35,17.82-10.35,11.16,0,22.23,8.82,22.23,24.12v.18c0,15.12-10.98,24.21-22.23,24.21-8.64,0-14.22-4.59-17.82-9.9ZM595.47,252.06v-.18c0-11.07-7.47-18-16.38-18s-16.83,7.38-16.83,17.91v.18c0,10.8,8.19,18,16.83,18s16.38-6.66,16.38-17.91Z"/>
    <path class="st1" d="M610.59,209.49h6.93v65.7h-6.93v-65.7Z"/>
    <path class="st1" d="M625.35,252.06v-.18c0-13.41,9.36-24.21,22.32-24.21,13.77,0,21.69,10.98,21.69,24.57,0,.99,0,1.44-.09,2.25h-36.9c.99,10.08,8.1,15.75,16.38,15.75,6.48,0,10.8-2.61,14.67-6.57l4.32,3.87c-4.68,5.31-10.26,8.73-19.17,8.73-12.69,0-23.22-9.81-23.22-24.21ZM662.34,249.36c-.72-8.37-5.49-15.84-14.85-15.84-8.19,0-14.13,6.84-15.12,15.84h29.97Z"/>
    <path class="st1" d="M676.11,228.66h6.93v7.83c3.15-4.68,7.2-8.82,15.03-8.82s12.42,3.96,14.94,9.27c3.42-5.13,8.19-9.27,16.38-9.27,10.8,0,17.28,7.11,17.28,18.72v28.8h-6.93v-27.18c0-9-4.5-14.04-12.06-14.04-6.93,0-12.87,5.22-12.87,14.4v26.82h-6.84v-27.36c0-8.73-4.5-13.86-11.97-13.86s-12.96,6.12-12.96,14.67v26.55h-6.93v-46.53Z"/>
    <path class="st1" d="M752.52,261.68v-.18c0-9.72,8.1-15.03,19.89-15.03,6.03,0,10.08.81,14.31,1.98v-1.62c0-8.37-5.13-12.69-13.86-12.69-5.49,0-9.81,1.35-14.13,3.42l-2.07-5.67c5.13-2.43,10.08-3.87,16.92-3.87s11.61,1.71,15.03,5.13c3.15,3.15,4.77,7.74,4.77,13.59v28.44h-6.66v-7.02c-3.24,4.23-8.55,8.01-16.83,8.01s-17.37-4.86-17.37-14.49ZM786.81,258.09v-4.5c-3.51-.99-7.92-1.98-13.68-1.98-8.73,0-13.59,3.78-13.59,9.63v.18c0,5.85,5.49,9.27,11.7,9.27,8.64,0,15.57-5.22,15.57-12.6ZM779.97,208.59l7.2,3.33-10.26,9.72h-5.4l8.46-13.05Z"/>
    <path class="st1" d="M804.72,262.85v-28.08h-6.48v-6.12h6.48v-14.04h6.93v14.04h14.76v6.12h-14.76v27.18c0,5.76,3.15,7.74,7.83,7.74,2.43,0,4.32-.45,6.75-1.62v5.94c-2.43,1.35-5.04,1.98-8.37,1.98-7.56,0-13.14-3.69-13.14-13.14Z"/>
    <path class="st1" d="M833.43,210.84h7.92v7.65h-7.92v-7.65ZM833.88,228.66h6.93v46.53h-6.93v-46.53Z"/>
    <path class="st1" d="M848.64,252.15v-.18c0-13.23,10.17-24.3,23.85-24.3,8.82,0,14.22,3.6,18.63,8.28l-4.59,4.86c-3.69-3.87-7.74-7.02-14.13-7.02-9.45,0-16.65,7.92-16.65,18v.18c0,10.08,7.38,18.09,17.1,18.09,6.03,0,10.53-2.97,14.22-6.93l4.41,4.14c-4.68,5.31-10.26,9-18.99,9-13.68,0-23.85-11.07-23.85-24.12Z"/>
    <path class="st1" d="M894,261.68v-.18c0-9.72,8.1-15.03,19.89-15.03,6.03,0,10.08.81,14.31,1.98v-1.62c0-8.37-5.13-12.69-13.86-12.69-5.49,0-9.81,1.35-14.13,3.42l-2.07-5.67c5.13-2.43,10.08-3.87,16.92-3.87s11.61,1.71,15.03,5.13c3.15,3.15,4.77,7.74,4.77,13.59v28.44h-6.66v-7.02c-3.24,4.23-8.55,8.01-16.83,8.01s-17.37-4.86-17.37-14.49ZM928.29,258.09v-4.5c-3.51-.99-7.92-1.98-13.68-1.98-8.73,0-13.59,3.78-13.59,9.63v.18c0,5.85,5.49,9.27,11.7,9.27,8.64,0,15.57-5.22,15.57-12.6Z"/>
    <path class="st1" d="M951.78,242.79l.45-.45c11.79-.27,17.91-5.13,17.91-12.69v-.18c0-6.48-4.95-11.7-13.14-11.7-6.75,0-11.79,3.06-16.38,8.46l-4.59-4.41c5.13-6.21,11.52-10.44,21.15-10.44,12.15,0,20.16,7.56,20.16,17.82v.18c0,11.25-8.46,16.83-18.72,18.27l-.9,9.72h-4.59l-1.35-14.58ZM951.24,265.73h8.28v9.45h-8.28v-9.45Z"/>
  </g>
  <g>
    <g>
      <path class="st1" d="M81.49,496.79c-23.37,0-42.39-19.02-42.39-42.39V61.72c0-23.37,19.02-42.39,42.39-42.39v16.04c-14.53,0-26.35,11.82-26.35,26.35v392.68c0,14.53,11.82,26.35,26.35,26.35v16.04Z"/>
      <path class="st0" d="M55.14,78.02h-16.04v28.96c0,11.39-4.52,22.31-12.57,30.36l-8.34,8.34c-5.31,5.31-8.3,12.52-8.3,20.03v186.52c0,9.02,7.31,16.33,16.33,16.33h28.93V78.02Z"/>
      <rect class="st1" x="29.02" y="379.32" width="4.7" height="4.7"/>
      <rect class="st1" x="29.02" y="390.09" width="4.7" height="25.74"/>
      <path class="st0" d="M12.36,427.9h42.78v28.87H12.36c-1.37,0-2.48-1.11-2.48-2.48v-23.92c0-1.37,1.11-2.48,2.48-2.48Z"/>
      <rect class="st1" x="89.74" y="31.16" width="81.42" height="4.21"/>
      <rect class="st0" x="176.12" y="20.1" width="22.68" height="15.27"/>
      <rect class="st0" x="204.99" y="20.1" width="22.68" height="15.27"/>
      <rect class="st1" x="178.87" y="31.16" width="2.64" height="2.29"/>
      <rect class="st1" x="81.49" y="13.75" width="5.58" height="5.58"/>
      <rect class="st1" x="85.61" y="493.2" width="3.55" height="3.55"/>
      <rect class="st1" x="85.61" y="480.94" width="3.55" height="3.55"/>
    </g>
    <g>
      <path class="st1" d="M1019.82,496.79c23.37,0,42.39-19.02,42.39-42.39V61.72c0-23.37-19.02-42.39-42.39-42.39v16.04c14.53,0,26.35,11.82,26.35,26.35v392.68c0,14.53-11.82,26.35-26.35,26.35v16.04Z"/>
      <path class="st0" d="M1046.17,78.02h16.04v28.96c0,11.39,4.52,22.31,12.57,30.36l8.34,8.34c5.31,5.31,8.3,12.52,8.3,20.03v186.52c0,9.02-7.31,16.33-16.33,16.33h-28.93V78.02Z"/>
      <rect class="st1" x="1067.59" y="379.32" width="4.7" height="4.7" transform="translate(2139.88 763.34) rotate(-180)"/>
      <rect class="st1" x="1067.59" y="390.09" width="4.7" height="25.74" transform="translate(2139.88 805.92) rotate(-180)"/>
      <path class="st0" d="M1048.64,427.9h42.78v28.87h-42.78c-1.37,0-2.48-1.11-2.48-2.48v-23.92c0-1.37,1.11-2.48,2.48-2.48Z" transform="translate(2137.59 884.67) rotate(-180)"/>
      <rect class="st1" x="930.15" y="31.16" width="81.42" height="4.21" transform="translate(1941.72 66.53) rotate(-180)"/>
      <rect class="st0" x="902.5" y="20.1" width="22.68" height="15.27" transform="translate(1827.69 55.47) rotate(-180)"/>
      <rect class="st0" x="873.63" y="20.1" width="22.68" height="15.27" transform="translate(1769.95 55.47) rotate(-180)"/>
      <rect class="st1" x="919.8" y="31.16" width="2.64" height="2.29" transform="translate(1842.24 64.61) rotate(-180)"/>
      <rect class="st1" x="1014.23" y="13.75" width="5.58" height="5.58" transform="translate(2034.05 33.08) rotate(-180)"/>
      <rect class="st1" x="1012.14" y="493.2" width="3.55" height="3.55" transform="translate(2027.84 989.95) rotate(-180)"/>
      <rect class="st1" x="1012.14" y="480.94" width="3.55" height="3.55" transform="translate(2027.84 965.43) rotate(-180)"/>
    </g>
    <g>
      <path class="st1" d="M17.44,357.69v-2.82h7.71v-4.93h2.47v7.75h-10.18Z"/>
      <path class="st1" d="M23.72,349.32h-.03c-2.28,0-4.12-1.64-4.12-3.97,0-2.71,1.99-3.96,4.31-3.96.17,0,.38,0,.57.01v5.27c.87-.22,1.29-.83,1.29-1.7,0-.68-.23-1.18-.8-1.75l1.27-1.53c.97.76,1.6,1.83,1.6,3.4,0,2.47-1.66,4.22-4.09,4.22ZM23.04,343.97c-.87.1-1.43.63-1.43,1.38s.55,1.21,1.43,1.37v-2.75Z"/>
      <path class="st1" d="M19.75,340.2v-2.76h1.11c-.65-.51-1.28-1.24-1.28-2.36,0-1.69,1.09-2.68,2.9-2.68h5.15v2.75h-4.26c-.87,0-1.34.44-1.34,1.12s.47,1.16,1.34,1.16h4.26v2.76h-7.87Z"/>
      <path class="st1" d="M23.72,331.28h-.03c-2.26,0-4.12-1.83-4.12-4.35s1.85-4.34,4.09-4.34h.03c2.26,0,4.12,1.85,4.12,4.37s-1.83,4.32-4.09,4.32ZM23.72,325.27h-.03c-.97,0-1.79.7-1.79,1.69s.79,1.64,1.76,1.64h.03c.96,0,1.77-.7,1.77-1.67s-.8-1.66-1.75-1.66Z"/>
      <path class="st1" d="M19.75,322.46v-2.91l4.6-1.51-4.6-1.53v-2.85l7.93,3.14v2.52l-7.93,3.14Z"/>
      <path class="st1" d="M23.72,313.55h-.03c-2.26,0-4.12-1.83-4.12-4.35s1.85-4.34,4.09-4.34h.03c2.26,0,4.12,1.85,4.12,4.37s-1.83,4.32-4.09,4.32ZM23.72,307.54h-.03c-.97,0-1.79.7-1.79,1.69s.79,1.64,1.76,1.64h.03c.96,0,1.77-.7,1.77-1.67s-.8-1.66-1.75-1.66Z"/>
      <path class="st1" d="M17.44,299.17v-4.38c0-2.56,1.31-4.22,3.56-4.22h.03c2.42,0,3.68,1.85,3.68,4.36v1.41h2.91v2.82h-10.18ZM22.5,295c0-.99-.52-1.61-1.34-1.61h-.03c-.87,0-1.32.63-1.32,1.63v1.34h2.69v-1.35Z"/>
      <path class="st1" d="M17,289.47v-2.75h10.62v2.75h-10.62Z"/>
      <path class="st1" d="M25.37,285.54h-.03c-1.64,0-2.47-1.24-2.47-3.08,0-.74.13-1.44.31-1.89h-.13c-.83,0-1.29.51-1.29,1.57,0,.83.16,1.47.44,2.18l-1.93.57c-.36-.89-.61-1.83-.61-3.19s.33-2.37.96-3c.58-.6,1.4-.84,2.5-.84h4.52v2.72h-.83c.6.57,1,1.28,1,2.33,0,1.5-.87,2.63-2.43,2.63ZM24.77,280.53h-.36c-.12.29-.2.68-.2,1.09,0,.81.38,1.27.97,1.27h.03c.54,0,.86-.41.86-.97,0-.81-.49-1.38-1.29-1.38Z"/>
      <path class="st1" d="M19.75,271.44v-2.84l7.68,2.88c1.86.7,2.56,1.41,2.56,3,0,.99-.26,1.77-.68,2.52l-1.93-.84c.28-.45.42-.9.42-1.21,0-.28-.07-.47-.32-.65l-7.73,3.08v-2.88l4.74-1.57-4.74-1.48Z"/>
      <path class="st1" d="M22.56,267.87h-.03c-2.97,0-5.3-2.27-5.3-5.35,0-2.07.87-3.43,2.11-4.32l1.64,2.12c-.71.58-1.19,1.24-1.19,2.23,0,1.43,1.22,2.43,2.71,2.43h.03c1.53,0,2.72-1,2.72-2.43,0-1.06-.49-1.67-1.24-2.3l1.51-2.12c1.32.97,2.3,2.26,2.3,4.5,0,2.91-2.23,5.25-5.27,5.25Z"/>
      <path class="st1" d="M17,257.06v-2.76h3.83c-.65-.51-1.25-1.24-1.25-2.36,0-1.69,1.09-2.68,2.9-2.68h5.15v2.75h-4.26c-.87,0-1.34.44-1.34,1.12s.47,1.16,1.34,1.16h4.26v2.76h-10.62Z"/>
      <path class="st1" d="M23.72,248.14h-.03c-2.28,0-4.12-1.64-4.12-3.97,0-2.71,1.99-3.96,4.31-3.96.17,0,.38,0,.57.01v5.27c.87-.22,1.29-.83,1.29-1.7,0-.68-.23-1.18-.8-1.75l1.27-1.53c.97.76,1.6,1.83,1.6,3.4,0,2.47-1.66,4.22-4.09,4.22ZM23.04,242.78c-.87.1-1.43.63-1.43,1.38s.55,1.21,1.43,1.37v-2.75Z"/>
      <path class="st1" d="M23.72,239.32h-.03c-2.23,0-4.1-1.72-4.1-4.2,0-1.63.7-2.68,1.75-3.36l1.4,1.86c-.51.39-.83.81-.83,1.47,0,.9.79,1.56,1.76,1.56h.03c1,0,1.79-.64,1.79-1.57,0-.68-.31-1.09-.81-1.51l1.34-1.85c1.09.74,1.8,1.76,1.8,3.49,0,2.39-1.86,4.12-4.09,4.12Z"/>
      <path class="st1" d="M17,230.73v-2.76h5.38l-2.63-2.14v-3.13l3.14,2.74,4.73-2.81v3.06l-2.69,1.57.83.71h1.86v2.76h-10.62Z"/>
      <path class="st1" d="M17.44,217.43v-3.94c0-3.62,2.08-5.73,5.03-5.73h.03c2.95,0,5.12,2.14,5.12,5.79v3.88h-10.18ZM19.93,214.61h5.19v-1.15c0-1.7-.93-2.82-2.58-2.82h-.03c-1.64,0-2.59,1.12-2.59,2.82v1.15Z"/>
      <path class="st1" d="M23.72,206.75h-.03c-2.28,0-4.12-1.64-4.12-3.97,0-2.71,1.99-3.96,4.31-3.96.17,0,.38,0,.57.01v5.27c.87-.22,1.29-.83,1.29-1.7,0-.68-.23-1.18-.8-1.75l1.27-1.53c.97.76,1.6,1.83,1.6,3.4,0,2.47-1.66,4.22-4.09,4.22ZM23.04,201.39c-.87.1-1.43.63-1.43,1.38s.55,1.21,1.43,1.37v-2.75Z"/>
      <path class="st1" d="M26.62,198.2l-1.66-1.03c.6-.92.9-1.88.9-2.69,0-.48-.15-.71-.42-.71h-.03c-.33,0-.45.45-.68,1.28-.39,1.56-.93,2.79-2.5,2.79h-.03c-1.67,0-2.6-1.35-2.6-3.16,0-1.16.33-2.33.92-3.24l1.75.95c-.47.81-.74,1.7-.74,2.33,0,.42.16.64.39.64h.03c.31,0,.45-.47.7-1.28.42-1.56.97-2.79,2.5-2.79h.03c1.73,0,2.63,1.29,2.63,3.22,0,1.34-.38,2.62-1.18,3.71Z"/>
      <path class="st1" d="M17,190.14v-2.76h5.38l-2.63-2.14v-3.13l3.14,2.74,4.73-2.81v3.06l-2.69,1.57.83.71h1.86v2.76h-10.62Z"/>
    </g>
    <g>
      <path class="st1" d="M1083.47,182.04v2.82h-7.71v4.93h-2.47v-7.75h10.18Z"/>
      <path class="st1" d="M1077.18,190.41h.03c2.28,0,4.12,1.64,4.12,3.97,0,2.71-1.99,3.96-4.31,3.96-.17,0-.38,0-.57-.01v-5.27c-.87.22-1.29.83-1.29,1.7,0,.68.23,1.18.8,1.75l-1.27,1.53c-.97-.76-1.6-1.83-1.6-3.4,0-2.47,1.66-4.22,4.09-4.22ZM1077.87,195.76c.87-.1,1.43-.63,1.43-1.38s-.55-1.21-1.43-1.37v2.75Z"/>
      <path class="st1" d="M1081.15,199.53v2.76h-1.11c.65.51,1.28,1.24,1.28,2.36,0,1.69-1.09,2.68-2.9,2.68h-5.15v-2.75h4.26c.87,0,1.34-.44,1.34-1.12s-.47-1.16-1.34-1.16h-4.26v-2.76h7.87Z"/>
      <path class="st1" d="M1077.18,208.45h.03c2.26,0,4.12,1.83,4.12,4.35s-1.85,4.34-4.09,4.34h-.03c-2.26,0-4.12-1.85-4.12-4.37s1.83-4.32,4.09-4.32ZM1077.18,214.46h.03c.97,0,1.79-.7,1.79-1.69s-.79-1.64-1.76-1.64h-.03c-.96,0-1.77.7-1.77,1.67s.8,1.66,1.75,1.66Z"/>
      <path class="st1" d="M1081.15,217.27v2.91l-4.6,1.51,4.6,1.53v2.85l-7.93-3.14v-2.52l7.93-3.14Z"/>
      <path class="st1" d="M1077.18,226.18h.03c2.26,0,4.12,1.83,4.12,4.35s-1.85,4.34-4.09,4.34h-.03c-2.26,0-4.12-1.85-4.12-4.37s1.83-4.32,4.09-4.32ZM1077.18,232.19h.03c.97,0,1.79-.7,1.79-1.69s-.79-1.64-1.76-1.64h-.03c-.96,0-1.77.7-1.77,1.67s.8,1.66,1.75,1.66Z"/>
      <path class="st1" d="M1083.47,240.56v4.38c0,2.56-1.31,4.22-3.56,4.22h-.03c-2.42,0-3.68-1.85-3.68-4.36v-1.41h-2.91v-2.82h10.18ZM1078.4,244.73c0,.99.52,1.61,1.34,1.61h.03c.87,0,1.32-.63,1.32-1.63v-1.34h-2.69v1.35Z"/>
      <path class="st1" d="M1083.9,250.26v2.75h-10.62v-2.75h10.62Z"/>
      <path class="st1" d="M1075.54,254.19h.03c1.64,0,2.47,1.24,2.47,3.08,0,.74-.13,1.44-.31,1.89h.13c.83,0,1.29-.51,1.29-1.57,0-.83-.16-1.47-.44-2.18l1.93-.57c.36.89.61,1.83.61,3.19s-.33,2.37-.96,3c-.58.6-1.4.84-2.5.84h-4.52v-2.72h.83c-.6-.57-1-1.28-1-2.33,0-1.5.87-2.63,2.43-2.63ZM1076.14,259.2h.36c.12-.29.2-.68.2-1.09,0-.81-.38-1.27-.97-1.27h-.03c-.54,0-.86.41-.86.97,0,.81.49,1.38,1.29,1.38Z"/>
      <path class="st1" d="M1081.15,268.29v2.84l-7.68-2.88c-1.86-.7-2.56-1.41-2.56-3,0-.99.26-1.77.68-2.52l1.93.84c-.28.45-.42.9-.42,1.21,0,.28.07.47.32.65l7.73-3.08v2.88l-4.74,1.57,4.74,1.48Z"/>
      <path class="st1" d="M1078.35,271.86h.03c2.97,0,5.3,2.27,5.3,5.35,0,2.07-.87,3.43-2.11,4.32l-1.64-2.12c.71-.58,1.19-1.24,1.19-2.23,0-1.43-1.22-2.43-2.71-2.43h-.03c-1.53,0-2.72,1-2.72,2.43,0,1.06.49,1.67,1.24,2.3l-1.51,2.12c-1.32-.97-2.3-2.26-2.3-4.5,0-2.91,2.23-5.25,5.27-5.25Z"/>
      <path class="st1" d="M1083.9,282.67v2.76h-3.83c.65.51,1.25,1.24,1.25,2.36,0,1.69-1.09,2.68-2.9,2.68h-5.15v-2.75h4.26c.87,0,1.34-.44,1.34-1.12s-.47-1.16-1.34-1.16h-4.26v-2.76h10.62Z"/>
      <path class="st1" d="M1077.18,291.59h.03c2.28,0,4.12,1.64,4.12,3.97,0,2.71-1.99,3.96-4.31,3.96-.17,0-.38,0-.57-.01v-5.27c-.87.22-1.29.83-1.29,1.7,0,.68.23,1.18.8,1.75l-1.27,1.53c-.97-.76-1.6-1.83-1.6-3.4,0-2.47,1.66-4.22,4.09-4.22ZM1077.87,296.95c.87-.1,1.43-.63,1.43-1.38s-.55-1.21-1.43-1.37v2.75Z"/>
      <path class="st1" d="M1077.18,300.41h.03c2.23,0,4.1,1.72,4.1,4.2,0,1.63-.7,2.68-1.75,3.36l-1.4-1.86c.51-.39.83-.81.83-1.47,0-.9-.79-1.56-1.76-1.56h-.03c-1,0-1.79.64-1.79,1.57,0,.68.31,1.09.81,1.51l-1.34,1.85c-1.09-.74-1.8-1.76-1.8-3.49,0-2.39,1.86-4.12,4.09-4.12Z"/>
      <path class="st1" d="M1083.9,309v2.76h-5.38l2.63,2.14v3.13l-3.14-2.74-4.73,2.81v-3.06l2.69-1.57-.83-.71h-1.86v-2.76h10.62Z"/>
      <path class="st1" d="M1083.47,322.3v3.94c0,3.62-2.08,5.73-5.03,5.73h-.03c-2.95,0-5.12-2.14-5.12-5.79v-3.88h10.18ZM1080.98,325.12h-5.19v1.15c0,1.7.93,2.82,2.58,2.82h.03c1.64,0,2.59-1.12,2.59-2.82v-1.15Z"/>
      <path class="st1" d="M1077.18,332.98h.03c2.28,0,4.12,1.64,4.12,3.97,0,2.71-1.99,3.96-4.31,3.96-.17,0-.38,0-.57-.01v-5.27c-.87.22-1.29.83-1.29,1.7,0,.68.23,1.18.8,1.75l-1.27,1.53c-.97-.76-1.6-1.83-1.6-3.4,0-2.47,1.66-4.22,4.09-4.22ZM1077.87,338.34c.87-.1,1.43-.63,1.43-1.38s-.55-1.21-1.43-1.37v2.75Z"/>
      <path class="st1" d="M1074.29,341.52l1.66,1.03c-.6.92-.9,1.88-.9,2.69,0,.48.15.71.42.71h.03c.33,0,.45-.45.68-1.28.39-1.56.93-2.79,2.5-2.79h.03c1.67,0,2.6,1.35,2.6,3.16,0,1.16-.33,2.33-.92,3.24l-1.75-.95c.47-.81.74-1.7.74-2.33,0-.42-.16-.64-.39-.64h-.03c-.31,0-.45.47-.7,1.28-.42,1.56-.97,2.79-2.5,2.79h-.03c-1.73,0-2.63-1.29-2.63-3.22,0-1.34.38-2.62,1.18-3.71Z"/>
      <path class="st1" d="M1083.9,349.59v2.76h-5.38l2.63,2.14v3.13l-3.14-2.74-4.73,2.81v-3.06l2.69-1.57-.83-.71h-1.86v-2.76h10.62Z"/>
    </g>
  </g>
</svg>