<?xml version="1.0" encoding="UTF-8"?>
<svg id="Layer_1" xmlns="http://www.w3.org/2000/svg" version="1.1" viewBox="0 0 1155.68 211.7">
  <!-- Generator: Adobe Illustrator 29.7.1, SVG Export Plug-In . SVG Version: 2.1.1 Build 8)  -->
  <defs>
    <style>
      .st0 {
        fill: #fff;
      }
    </style>
  </defs>
  <path class="st0" d="M146.29,67.69l2.68-25.2h4.79l2.68,25.2v1.14h-10.15v-1.14ZM146.75,28.93h9.24v9.12h-9.24v-9.12Z"/>
  <path class="st0" d="M164.25,28.93h18.53c4.62,0,8.1,1.2,10.43,3.53,1.82,1.82,2.74,4.1,2.74,6.78v.11c0,4.45-2.39,7.13-5.24,8.61,4.62,1.77,7.47,4.5,7.47,9.8v.11c0,7.3-5.93,10.95-14.94,10.95h-18.98V28.93ZM187.22,40.73c0-2.68-2.05-4.1-5.76-4.1h-8.67v8.44h8.09c3.88,0,6.33-1.25,6.33-4.22v-.11ZM189.44,56.69c0-2.68-1.94-4.33-6.5-4.33h-10.15v8.78h10.43c3.88,0,6.21-1.37,6.21-4.33v-.11Z"/>
  <path class="st0" d="M203.52,27.22h9.12v7.7h-9.12v-7.7ZM203.75,38.28h8.67v30.56h-8.67v-30.56Z"/>
  <path class="st0" d="M217.94,53.73v-.11c0-8.72,6.21-15.91,15.11-15.91,10.2,0,14.88,7.92,14.88,16.59,0,.68-.06,1.43-.11,2.28h-21.26c.85,3.93,3.59,5.99,7.47,5.99,2.91,0,4.96-.91,7.41-3.14l4.96,4.39c-2.91,3.59-6.96,5.7-12.48,5.7-9.18,0-15.96-6.44-15.96-15.79ZM239.49,51.16c-.51-3.88-2.79-6.5-6.44-6.5s-5.93,2.57-6.61,6.5h13.05Z"/>
  <path class="st0" d="M253.22,38.28h8.67v4.33c2-2.57,4.62-4.9,8.95-4.9,6.61,0,10.38,4.28,10.38,11.34v19.78h-8.67v-17.04c0-4.1-1.88-6.21-5.24-6.21s-5.42,2.11-5.42,6.21v17.04h-8.67v-30.56Z"/>
  <path class="st0" d="M283.72,38.28h9.18l6.84,20.47,6.9-20.47h9.01l-12.03,30.78h-7.87l-12.03-30.78Z"/>
  <path class="st0" d="M316.32,53.73v-.11c0-8.72,6.21-15.91,15.11-15.91,10.2,0,14.88,7.92,14.88,16.59,0,.68-.06,1.43-.11,2.28h-21.26c.85,3.93,3.59,5.99,7.47,5.99,2.91,0,4.96-.91,7.41-3.14l4.96,4.39c-2.91,3.59-6.95,5.7-12.48,5.7-9.18,0-15.96-6.44-15.96-15.79ZM337.87,51.16c-.51-3.88-2.79-6.5-6.44-6.5s-5.93,2.57-6.61,6.5h13.05Z"/>
  <path class="st0" d="M351.6,38.28h8.67v4.33c2-2.57,4.62-4.9,8.95-4.9,6.61,0,10.38,4.28,10.38,11.34v19.78h-8.67v-17.04c0-4.1-1.88-6.21-5.24-6.21s-5.42,2.11-5.42,6.21v17.04h-8.67v-30.56Z"/>
  <path class="st0" d="M386.14,27.22h9.12v7.7h-9.12v-7.7ZM386.37,38.28h8.67v30.56h-8.67v-30.56Z"/>
  <path class="st0" d="M400.68,53.61v-.11c0-10.2,6.67-15.79,13.91-15.79,4.62,0,7.47,2.11,9.52,4.56v-15.05h8.67v41.62h-8.67v-4.39c-2.11,2.91-4.96,4.96-9.52,4.96-7.13,0-13.91-5.59-13.91-15.79ZM424.22,53.61v-.11c0-5.07-3.36-8.44-7.41-8.44s-7.47,3.31-7.47,8.44v.11c0,5.07,3.42,8.44,7.47,8.44s7.41-3.36,7.41-8.44Z"/>
  <path class="st0" d="M437.9,53.73v-.11c0-8.78,7.07-15.91,16.59-15.91s16.48,6.96,16.48,15.79v.11c0,8.78-7.07,15.9-16.59,15.9s-16.48-6.95-16.48-15.79ZM462.41,53.73v-.11c0-4.5-3.25-8.44-8.04-8.44s-7.92,3.76-7.92,8.32v.11c0,4.5,3.25,8.44,8.04,8.44s7.92-3.76,7.92-8.32Z"/>
  <path class="st0" d="M490.22,60.05v-.11c0-6.61,5.07-9.75,12.31-9.75,3.14,0,5.24.51,7.47,1.25v-.51c0-3.65-2.22-5.59-6.56-5.59-3.36,0-5.64.57-8.44,1.65l-2.17-6.61c3.36-1.43,6.67-2.45,11.86-2.45,4.79,0,8.09,1.2,10.32,3.42s3.31,5.64,3.31,9.75v17.73h-8.38v-3.31c-2.11,2.34-4.96,3.88-9.23,3.88-5.76,0-10.49-3.25-10.49-9.35ZM510.12,58.06v-1.54c-1.54-.68-3.42-1.14-5.53-1.14-3.71,0-5.99,1.48-5.99,4.22v.11c0,2.34,1.94,3.71,4.73,3.71,4.1,0,6.78-2.17,6.78-5.36Z"/>
  <path class="st0" d="M525.05,27.22h8.67v41.62h-8.67V27.22Z"/>
  <path class="st0" d="M557.59,28.93h16.3c9.52,0,15.28,5.59,15.28,13.8v.11c0,9.29-7.18,14.02-16.13,14.02h-6.67v11.97h-8.78V28.93ZM573.33,49.05c4.39,0,6.96-2.62,6.96-6.04v-.11c0-3.93-2.74-6.04-7.13-6.04h-6.78v12.2h6.95Z"/>
  <path class="st0" d="M594.02,27.22h8.67v41.62h-8.67V27.22Z"/>
  <path class="st0" d="M607.87,60.05v-.11c0-6.61,5.07-9.75,12.31-9.75,3.14,0,5.25.51,7.47,1.25v-.51c0-3.65-2.22-5.59-6.56-5.59-3.36,0-5.64.57-8.44,1.65l-2.17-6.61c3.36-1.43,6.67-2.45,11.86-2.45,4.79,0,8.09,1.2,10.32,3.42,2.28,2.28,3.31,5.64,3.31,9.75v17.73h-8.38v-3.31c-2.11,2.34-4.96,3.88-9.24,3.88-5.76,0-10.49-3.25-10.49-9.35ZM627.76,58.06v-1.54c-1.54-.68-3.42-1.14-5.53-1.14-3.71,0-5.99,1.48-5.99,4.22v.11c0,2.34,1.94,3.71,4.73,3.71,4.11,0,6.78-2.17,6.78-5.36Z"/>
  <path class="st0" d="M661.22,38.28h9.01l-11.74,31.3c-2.28,6.21-4.9,8.55-10.03,8.55-3.19,0-5.47-.8-7.7-2.11l2.91-6.27c1.14.68,2.57,1.2,3.71,1.2,1.54,0,2.28-.46,3.02-2l-11.97-30.67h9.18l6.96,20.81,6.67-20.81Z"/>
  <path class="st0" d="M673.36,49v-.11c0-11.34,8.55-20.64,20.81-20.64,7.47,0,12.08,2.51,15.73,6.16l-5.59,6.44c-3.13-2.79-6.16-4.5-10.2-4.5-6.73,0-11.57,5.59-11.57,12.43v.11c0,6.84,4.73,12.54,11.57,12.54,4.56,0,7.35-1.77,10.49-4.67l5.59,5.64c-4.1,4.39-8.61,7.13-16.36,7.13-11.74,0-20.47-9.06-20.47-20.52Z"/>
  <path class="st0" d="M715.14,27.22h8.67v15.39c2-2.57,4.62-4.9,8.95-4.9,6.61,0,10.38,4.28,10.38,11.34v19.78h-8.67v-17.04c0-4.1-1.88-6.21-5.25-6.21s-5.42,2.11-5.42,6.21v17.04h-8.67V27.22Z"/>
  <path class="st0" d="M748.03,53.73v-.11c0-8.72,6.21-15.91,15.11-15.91,10.2,0,14.88,7.92,14.88,16.59,0,.68-.06,1.43-.11,2.28h-21.26c.86,3.93,3.59,5.99,7.47,5.99,2.91,0,4.96-.91,7.41-3.14l4.96,4.39c-2.91,3.59-6.95,5.7-12.48,5.7-9.18,0-15.96-6.44-15.96-15.79ZM769.58,51.16c-.51-3.88-2.79-6.5-6.44-6.5s-5.93,2.57-6.61,6.5h13.05Z"/>
  <path class="st0" d="M781.83,53.73v-.11c0-8.72,6.67-15.91,16.02-15.91,5.76,0,9.29,1.94,12.2,5.13l-5.3,5.7c-2-2.05-3.82-3.36-6.96-3.36-4.33,0-7.41,3.76-7.41,8.32v.11c0,4.73,3.02,8.44,7.75,8.44,2.91,0,4.9-1.25,7.01-3.25l5.07,5.13c-2.96,3.25-6.38,5.59-12.48,5.59-9.18,0-15.91-7.13-15.91-15.79Z"/>
  <path class="st0" d="M814.72,27.22h8.66v22.18l10.15-11.12h10.38l-11.63,12.03,12.03,18.53h-10.03l-7.81-12.54-3.08,3.25v9.29h-8.66V27.22Z"/>
  <path class="st0" d="M864.19,28.93h15.56c12.54,0,21.21,8.61,21.21,19.84v.11c0,11.23-8.67,19.95-21.21,19.95h-15.56V28.93ZM872.97,36.85v24.06h6.78c7.13,0,12.03-4.85,12.03-11.91v-.11c0-7.07-4.9-12.03-12.03-12.03h-6.78Z"/>
  <path class="st0" d="M905.23,53.73v-.11c0-8.72,6.21-15.91,15.11-15.91,10.2,0,14.88,7.92,14.88,16.59,0,.68-.06,1.43-.11,2.28h-21.26c.86,3.93,3.59,5.99,7.47,5.99,2.91,0,4.96-.91,7.41-3.14l4.96,4.39c-2.91,3.59-6.96,5.7-12.48,5.7-9.18,0-15.96-6.44-15.96-15.79ZM926.78,51.16c-.51-3.88-2.79-6.5-6.44-6.5s-5.93,2.57-6.61,6.5h13.05Z"/>
  <path class="st0" d="M938.12,64.79l3.71-5.7c3.36,2.45,6.73,3.65,9.63,3.65,2.51,0,3.65-.91,3.65-2.28v-.11c0-1.88-2.96-2.45-6.33-3.53-4.28-1.2-9.12-3.25-9.12-9.18v-.11c0-6.21,5.02-9.69,11.17-9.69,3.88,0,8.04,1.31,11.4,3.53l-3.31,5.99c-3.02-1.77-6.04-2.85-8.27-2.85-2.11,0-3.19.91-3.19,2.11v.11c0,1.6,2.91,2.62,6.21,3.65,4.28,1.37,9.24,3.48,9.24,9.06v.11c0,6.78-5.07,9.86-11.69,9.86-4.33,0-9.01-1.43-13.11-4.62Z"/>
  <path class="st0" d="M967.99,27.22h8.67v22.18l10.15-11.12h10.38l-11.63,12.03,12.03,18.53h-10.03l-7.81-12.54-3.08,3.25v9.29h-8.67V27.22Z"/>
  <path class="st0" d="M1000.88,30.07v-1.14h10.15v1.14l-2.68,25.2h-4.79l-2.68-25.2ZM1001.33,59.71h9.23v9.12h-9.23v-9.12Z"/>
  <path class="st0" d="M38.53,97.62h4.79l12.94,29.62h-5.46l-2.98-7.1h-13.9l-3.02,7.1h-5.29l12.94-29.62ZM45.92,115.56l-5.08-11.76-5.04,11.76h10.12Z"/>
  <path class="st0" d="M75.53,123.54c-1.64,2.31-3.99,4.16-7.56,4.16-5.21,0-10.29-4.12-10.29-11.51v-.08c0-7.39,5-11.51,10.29-11.51,3.61,0,6.01,1.81,7.56,3.91v-3.44h5.08v28.9h-5.08v-10.42ZM75.61,116.19v-.08c0-4.28-3.02-7.1-6.43-7.1s-6.38,2.73-6.38,7.1v.08c0,4.28,2.9,7.1,6.38,7.1s6.43-2.86,6.43-7.1Z"/>
  <path class="st0" d="M85.9,119.17v-14.11h5.08v12.6c0,3.49,1.72,5.38,4.75,5.38s5-1.97,5-5.46v-12.52h5.12v22.18h-5.12v-3.44c-1.47,2.14-3.53,3.91-6.93,3.91-5.04,0-7.9-3.32-7.9-8.53Z"/>
  <path class="st0" d="M111.6,105.05h5.12v22.18h-5.12v-22.18ZM116.56,95.35l4.62,2.06-5.17,4.83h-3.82l4.37-6.89Z"/>
  <path class="st0" d="M134.24,105.05h5.12v5c1.39-3.36,3.95-5.59,7.86-5.42v5.38h-.29c-4.49,0-7.56,2.9-7.56,8.78v8.44h-5.12v-22.18Z"/>
  <path class="st0" d="M148.82,116.23v-.08c0-6.39,4.5-11.55,10.84-11.55,7.06,0,10.63,5.54,10.63,11.93,0,.46-.04.92-.08,1.43h-16.3c.55,3.65,3.07,5.63,6.38,5.63,2.52,0,4.2-.92,6.01-2.65l2.98,2.65c-2.14,2.52-5,4.16-9.07,4.16-6.38,0-11.38-4.66-11.38-11.51ZM165.24,114.59c-.34-3.23-2.27-5.84-5.63-5.84-3.15,0-5.29,2.35-5.75,5.84h11.38Z"/>
  <path class="st0" d="M171.41,105.05h5.46l5.97,16.3,6.01-16.3h5.33l-9.07,22.35h-4.58l-9.12-22.35Z"/>
  <path class="st0" d="M197.75,96.82h5.46v4.83h-5.46v-4.83ZM197.91,105.05h5.12v22.18h-5.12v-22.18Z"/>
  <path class="st0" d="M207.03,124.33l2.27-3.44c2.48,1.81,4.96,2.73,7.27,2.73,2.18,0,3.44-.92,3.44-2.39v-.08c0-1.68-2.35-2.31-4.96-3.11-3.23-.88-6.93-2.27-6.93-6.47v-.08c0-4.24,3.49-6.81,7.9-6.81,2.81,0,5.8.97,8.15,2.52l-2.02,3.61c-2.14-1.3-4.41-2.1-6.26-2.1-1.97,0-3.11.97-3.11,2.18v.08c0,1.6,2.39,2.35,5,3.15,3.19,1.01,6.89,2.48,6.89,6.47v.08c0,4.66-3.61,6.97-8.23,6.97-3.19,0-6.6-1.09-9.41-3.32Z"/>
  <path class="st0" d="M227.52,120.85v-.08c0-4.83,3.78-7.14,9.2-7.14,2.52,0,4.24.38,5.97.92v-.55c0-3.19-1.93-4.83-5.5-4.83-2.52,0-4.33.55-6.34,1.39l-1.39-3.99c2.48-1.05,4.87-1.81,8.4-1.81,3.32,0,5.75.84,7.35,2.48,1.64,1.64,2.39,3.95,2.39,6.85v13.15h-4.96v-2.77c-1.51,1.81-3.82,3.23-7.23,3.23-4.16,0-7.9-2.35-7.9-6.85ZM242.77,119.25v-1.51c-1.3-.5-3.02-.88-5.04-.88-3.32,0-5.21,1.34-5.21,3.7v.08c0,2.14,1.85,3.36,4.33,3.36,3.36,0,5.92-1.89,5.92-4.75Z"/>
  <path class="st0" d="M252.81,105.05h5.12v3.36c1.43-1.97,3.36-3.82,6.76-3.82,3.19,0,5.46,1.55,6.64,3.91,1.81-2.35,4.12-3.91,7.48-3.91,4.87,0,7.77,3.07,7.77,8.49v14.16h-5.08v-12.6c0-3.53-1.64-5.42-4.49-5.42s-4.75,1.93-4.75,5.5v12.52h-5.08v-12.64c0-3.49-1.64-5.38-4.5-5.38s-4.75,2.1-4.75,5.5v12.52h-5.12v-22.18Z"/>
  <path class="st0" d="M290.65,116.27v-.08c0-6.34,5.04-11.59,11.85-11.59s11.8,5.17,11.8,11.51v.08c0,6.26-5.04,11.55-11.89,11.55s-11.76-5.17-11.76-11.47ZM309.21,116.27v-.08c0-3.91-2.81-7.14-6.81-7.14s-6.68,3.19-6.68,7.06v.08c0,3.86,2.86,7.1,6.76,7.1,4.16,0,6.72-3.19,6.72-7.02Z"/>
  <path class="st0" d="M316.81,124.33l2.27-3.44c2.48,1.81,4.96,2.73,7.27,2.73,2.18,0,3.44-.92,3.44-2.39v-.08c0-1.68-2.35-2.31-4.96-3.11-3.23-.88-6.93-2.27-6.93-6.47v-.08c0-4.24,3.49-6.81,7.9-6.81,2.81,0,5.8.97,8.15,2.52l-2.02,3.61c-2.14-1.3-4.41-2.1-6.26-2.1-1.97,0-3.11.97-3.11,2.18v.08c0,1.6,2.39,2.35,5,3.15,3.19,1.01,6.89,2.48,6.89,6.47v.08c0,4.66-3.61,6.97-8.23,6.97-3.19,0-6.6-1.09-9.41-3.32Z"/>
  <path class="st0" d="M349.36,116.27v-.08c0-6.3,4.87-11.59,11.55-11.59,4.16,0,6.72,1.55,8.86,3.82l-3.19,3.4c-1.55-1.64-3.19-2.77-5.71-2.77-3.7,0-6.43,3.19-6.43,7.06v.08c0,3.95,2.73,7.1,6.64,7.1,2.39,0,4.12-1.09,5.76-2.73l3.07,3.02c-2.18,2.48-4.75,4.16-9.07,4.16-6.6,0-11.47-5.17-11.47-11.47Z"/>
  <path class="st0" d="M372.21,120.85v-.08c0-4.83,3.78-7.14,9.2-7.14,2.52,0,4.24.38,5.96.92v-.55c0-3.19-1.93-4.83-5.5-4.83-2.52,0-4.33.55-6.34,1.39l-1.39-3.99c2.48-1.05,4.87-1.81,8.4-1.81,3.32,0,5.75.84,7.35,2.48,1.64,1.64,2.39,3.95,2.39,6.85v13.15h-4.96v-2.77c-1.51,1.81-3.82,3.23-7.23,3.23-4.16,0-7.9-2.35-7.9-6.85ZM387.46,119.25v-1.51c-1.3-.5-3.02-.88-5.04-.88-3.32,0-5.21,1.34-5.21,3.7v.08c0,2.14,1.85,3.36,4.33,3.36,3.36,0,5.92-1.89,5.92-4.75Z"/>
  <path class="st0" d="M396.4,116.19v-.08c0-7.39,5-11.51,10.29-11.51,3.61,0,6.01,1.81,7.56,3.91v-11.93h5.08v30.67h-5.08v-3.7c-1.64,2.31-3.99,4.16-7.56,4.16-5.21,0-10.29-4.12-10.29-11.51ZM414.34,116.19v-.08c0-4.28-3.02-7.1-6.43-7.1s-6.38,2.73-6.38,7.1v.08c0,4.28,2.9,7.1,6.38,7.1s6.43-2.86,6.43-7.1Z"/>
  <path class="st0" d="M423.37,120.85v-.08c0-4.83,3.78-7.14,9.2-7.14,2.52,0,4.24.38,5.96.92v-.55c0-3.19-1.93-4.83-5.5-4.83-2.52,0-4.33.55-6.34,1.39l-1.39-3.99c2.48-1.05,4.87-1.81,8.4-1.81,3.32,0,5.75.84,7.35,2.48,1.64,1.64,2.39,3.95,2.39,6.85v13.15h-4.96v-2.77c-1.51,1.81-3.82,3.23-7.23,3.23-4.16,0-7.9-2.35-7.9-6.85ZM438.61,119.25v-1.51c-1.3-.5-3.02-.88-5.04-.88-3.32,0-5.21,1.34-5.21,3.7v.08c0,2.14,1.85,3.36,4.33,3.36,3.36,0,5.92-1.89,5.92-4.75Z"/>
  <path class="st0" d="M456.92,133.87v-4.07c.5.08.97.13,1.43.13,1.47,0,2.35-.71,2.35-2.69v-22.18h5.12v22.47c0,4.54-2.27,6.55-6.43,6.55-1.01,0-1.68-.08-2.48-.21ZM460.54,96.82h5.46v4.83h-5.46v-4.83Z"/>
  <path class="st0" d="M471.37,119.17v-14.11h5.08v12.6c0,3.49,1.72,5.38,4.75,5.38s5-1.97,5-5.46v-12.52h5.12v22.18h-5.12v-3.44c-1.47,2.14-3.53,3.91-6.93,3.91-5.04,0-7.9-3.32-7.9-8.53Z"/>
  <path class="st0" d="M496.78,131.39l1.89-3.82c2.39,1.47,4.87,2.31,7.9,2.31,4.54,0,7.02-2.27,7.02-6.76v-1.68c-1.85,2.35-4.16,4.03-7.81,4.03-5.25,0-10.08-3.86-10.08-10.38v-.08c0-6.55,4.87-10.42,10.08-10.42,3.74,0,6.05,1.72,7.77,3.78v-3.32h5.08v17.64c0,3.7-.92,6.47-2.81,8.36-2.02,2.02-5.08,2.98-9.12,2.98-3.7,0-7.02-.88-9.91-2.65ZM513.63,115.05v-.08c0-3.57-2.98-6.05-6.51-6.05s-6.3,2.39-6.3,6.05v.08c0,3.61,2.81,6.09,6.3,6.09s6.51-2.48,6.51-6.09Z"/>
  <path class="st0" d="M522.65,120.85v-.08c0-4.83,3.78-7.14,9.2-7.14,2.52,0,4.24.38,5.96.92v-.55c0-3.19-1.93-4.83-5.5-4.83-2.52,0-4.33.55-6.34,1.39l-1.39-3.99c2.48-1.05,4.87-1.81,8.4-1.81,3.32,0,5.75.84,7.35,2.48,1.64,1.64,2.39,3.95,2.39,6.85v13.15h-4.96v-2.77c-1.51,1.81-3.82,3.23-7.23,3.23-4.16,0-7.9-2.35-7.9-6.85ZM537.9,119.25v-1.51c-1.3-.5-3.02-.88-5.04-.88-3.32,0-5.21,1.34-5.21,3.7v.08c0,2.14,1.85,3.36,4.33,3.36,3.36,0,5.92-1.89,5.92-4.75Z"/>
  <path class="st0" d="M546.84,116.19v-.08c0-7.39,5-11.51,10.29-11.51,3.61,0,6.01,1.81,7.56,3.91v-11.93h5.08v30.67h-5.08v-3.7c-1.64,2.31-3.99,4.16-7.56,4.16-5.21,0-10.29-4.12-10.29-11.51ZM564.78,116.19v-.08c0-4.28-3.02-7.1-6.43-7.1s-6.38,2.73-6.38,7.1v.08c0,4.28,2.9,7.1,6.38,7.1s6.43-2.86,6.43-7.1Z"/>
  <path class="st0" d="M573.81,120.85v-.08c0-4.83,3.78-7.14,9.2-7.14,2.52,0,4.24.38,5.96.92v-.55c0-3.19-1.93-4.83-5.5-4.83-2.52,0-4.33.55-6.34,1.39l-1.39-3.99c2.48-1.05,4.87-1.81,8.4-1.81,3.32,0,5.76.84,7.35,2.48,1.64,1.64,2.39,3.95,2.39,6.85v13.15h-4.96v-2.77c-1.51,1.81-3.82,3.23-7.23,3.23-4.16,0-7.9-2.35-7.9-6.85ZM589.06,119.25v-1.51c-1.3-.5-3.02-.88-5.04-.88-3.32,0-5.21,1.34-5.21,3.7v.08c0,2.14,1.85,3.36,4.33,3.36,3.36,0,5.92-1.89,5.92-4.75Z"/>
  <path class="st0" d="M611.94,121.1v-11.68h-2.81v-4.37h2.81v-6.09h5.08v6.09h5.96v4.37h-5.96v10.88c0,1.97,1.01,2.77,2.73,2.77,1.09,0,2.14-.25,3.15-.76v4.16c-1.3.71-2.6,1.13-4.58,1.13-3.74,0-6.39-1.64-6.39-6.51Z"/>
  <path class="st0" d="M625.47,116.23v-.08c0-6.39,4.5-11.55,10.84-11.55,7.06,0,10.63,5.54,10.63,11.93,0,.46-.04.92-.08,1.43h-16.3c.55,3.65,3.07,5.63,6.38,5.63,2.52,0,4.2-.92,6.01-2.65l2.98,2.65c-2.14,2.52-5,4.16-9.07,4.16-6.38,0-11.38-4.66-11.38-11.51ZM641.89,114.59c-.34-3.23-2.27-5.84-5.63-5.84-3.15,0-5.29,2.35-5.75,5.84h11.38Z"/>
  <path class="st0" d="M649.99,116.27v-.08c0-6.3,4.87-11.59,11.55-11.59,4.16,0,6.72,1.55,8.86,3.82l-3.19,3.4c-1.55-1.64-3.19-2.77-5.71-2.77-3.7,0-6.43,3.19-6.43,7.06v.08c0,3.95,2.73,7.1,6.64,7.1,2.39,0,4.12-1.09,5.76-2.73l3.07,3.02c-2.18,2.48-4.75,4.16-9.07,4.16-6.59,0-11.47-5.17-11.47-11.47Z"/>
  <path class="st0" d="M674.31,105.05h5.12v3.4c1.47-2.06,3.44-3.86,6.93-3.86,5.04,0,7.9,3.32,7.9,8.49v14.16h-5.08v-12.6c0-3.49-1.72-5.42-4.75-5.42s-5,2.02-5,5.5v12.52h-5.12v-22.18Z"/>
  <path class="st0" d="M698.33,116.27v-.08c0-6.34,5.04-11.59,11.85-11.59s11.8,5.17,11.8,11.51v.08c0,6.26-5.04,11.55-11.89,11.55s-11.76-5.17-11.76-11.47ZM716.9,116.27v-.08c0-3.91-2.81-7.14-6.81-7.14s-6.68,3.19-6.68,7.06v.08c0,3.86,2.86,7.1,6.76,7.1,4.16,0,6.72-3.19,6.72-7.02Z"/>
  <path class="st0" d="M726.56,96.57h5.12v30.67h-5.12v-30.67Z"/>
  <path class="st0" d="M736.26,116.27v-.08c0-6.34,5.04-11.59,11.85-11.59s11.8,5.17,11.8,11.51v.08c0,6.26-5.04,11.55-11.89,11.55s-11.76-5.17-11.76-11.47ZM754.83,116.27v-.08c0-3.91-2.81-7.14-6.81-7.14s-6.68,3.19-6.68,7.06v.08c0,3.86,2.86,7.1,6.76,7.1,4.16,0,6.72-3.19,6.72-7.02ZM750.42,95.35l4.62,2.06-5.17,4.83h-3.82l4.37-6.89Z"/>
  <path class="st0" d="M764.19,131.39l1.89-3.82c2.39,1.47,4.87,2.31,7.9,2.31,4.54,0,7.02-2.27,7.02-6.76v-1.68c-1.85,2.35-4.16,4.03-7.81,4.03-5.25,0-10.08-3.86-10.08-10.38v-.08c0-6.55,4.87-10.42,10.08-10.42,3.74,0,6.05,1.72,7.77,3.78v-3.32h5.08v17.64c0,3.7-.92,6.47-2.81,8.36-2.02,2.02-5.08,2.98-9.12,2.98-3.7,0-7.01-.88-9.91-2.65ZM781.04,115.05v-.08c0-3.57-2.98-6.05-6.51-6.05s-6.3,2.39-6.3,6.05v.08c0,3.61,2.81,6.09,6.3,6.09s6.51-2.48,6.51-6.09Z"/>
  <path class="st0" d="M791.66,96.82h5.46v4.83h-5.46v-4.83ZM791.83,105.05h5.12v22.18h-5.12v-22.18Z"/>
  <path class="st0" d="M801.53,116.27v-.08c0-6.3,4.87-11.59,11.55-11.59,4.16,0,6.72,1.55,8.86,3.82l-3.19,3.4c-1.55-1.64-3.19-2.77-5.71-2.77-3.7,0-6.43,3.19-6.43,7.06v.08c0,3.95,2.73,7.1,6.64,7.1,2.39,0,4.12-1.09,5.75-2.73l3.07,3.02c-2.19,2.48-4.75,4.16-9.07,4.16-6.6,0-11.47-5.17-11.47-11.47Z"/>
  <path class="st0" d="M824.38,120.85v-.08c0-4.83,3.78-7.14,9.2-7.14,2.52,0,4.24.38,5.97.92v-.55c0-3.19-1.93-4.83-5.5-4.83-2.52,0-4.33.55-6.34,1.39l-1.39-3.99c2.48-1.05,4.87-1.81,8.4-1.81,3.32,0,5.75.84,7.35,2.48,1.64,1.64,2.39,3.95,2.39,6.85v13.15h-4.96v-2.77c-1.51,1.81-3.82,3.23-7.22,3.23-4.16,0-7.9-2.35-7.9-6.85ZM839.62,119.25v-1.51c-1.3-.5-3.03-.88-5.04-.88-3.32,0-5.21,1.34-5.21,3.7v.08c0,2.14,1.85,3.36,4.33,3.36,3.36,0,5.92-1.89,5.92-4.75Z"/>
  <path class="st0" d="M860.24,116.27v-.08c0-6.3,4.87-11.59,11.55-11.59,4.16,0,6.72,1.55,8.86,3.82l-3.19,3.4c-1.55-1.64-3.19-2.77-5.71-2.77-3.7,0-6.43,3.19-6.43,7.06v.08c0,3.95,2.73,7.1,6.64,7.1,2.39,0,4.12-1.09,5.75-2.73l3.07,3.02c-2.19,2.48-4.75,4.16-9.07,4.16-6.6,0-11.47-5.17-11.47-11.47Z"/>
  <path class="st0" d="M882.75,116.27v-.08c0-6.34,5.04-11.59,11.85-11.59s11.8,5.17,11.8,11.51v.08c0,6.26-5.04,11.55-11.89,11.55s-11.76-5.17-11.76-11.47ZM901.32,116.27v-.08c0-3.91-2.81-7.14-6.81-7.14s-6.68,3.19-6.68,7.06v.08c0,3.86,2.86,7.1,6.76,7.1,4.16,0,6.72-3.19,6.72-7.02Z"/>
  <path class="st0" d="M910.68,105.05h5.12v3.36c1.43-1.97,3.36-3.82,6.76-3.82,3.19,0,5.46,1.55,6.64,3.91,1.81-2.35,4.12-3.91,7.48-3.91,4.87,0,7.77,3.07,7.77,8.49v14.16h-5.08v-12.6c0-3.53-1.64-5.42-4.5-5.42s-4.75,1.93-4.75,5.5v12.52h-5.08v-12.64c0-3.49-1.64-5.38-4.49-5.38s-4.75,2.1-4.75,5.5v12.52h-5.12v-22.18Z"/>
  <path class="st0" d="M948.53,116.27v-.08c0-6.34,5.04-11.59,11.85-11.59s11.8,5.17,11.8,11.51v.08c0,6.26-5.04,11.55-11.89,11.55s-11.76-5.17-11.76-11.47ZM967.09,116.27v-.08c0-3.91-2.81-7.14-6.81-7.14s-6.68,3.19-6.68,7.06v.08c0,3.86,2.86,7.1,6.76,7.1,4.16,0,6.72-3.19,6.72-7.02Z"/>
  <path class="st0" d="M986.45,124.33l2.27-3.44c2.48,1.81,4.96,2.73,7.27,2.73,2.19,0,3.45-.92,3.45-2.39v-.08c0-1.68-2.35-2.31-4.96-3.11-3.23-.88-6.93-2.27-6.93-6.47v-.08c0-4.24,3.49-6.81,7.9-6.81,2.81,0,5.8.97,8.15,2.52l-2.02,3.61c-2.14-1.3-4.41-2.1-6.26-2.1-1.97,0-3.11.97-3.11,2.18v.08c0,1.6,2.39,2.35,5,3.15,3.19,1.01,6.89,2.48,6.89,6.47v.08c0,4.66-3.61,6.97-8.23,6.97-3.19,0-6.6-1.09-9.41-3.32Z"/>
  <path class="st0" d="M1008.54,96.82h5.46v4.83h-5.46v-4.83ZM1008.71,105.05h5.12v22.18h-5.12v-22.18Z"/>
  <path class="st0" d="M1032.52,109.42h-2.81v-4.24h2.81v-1.64c0-2.44.59-4.24,1.81-5.46,1.18-1.18,2.81-1.76,4.96-1.76,1.81,0,3.03.25,4.16.59v4.29c-1.01-.34-1.85-.55-2.98-.55-1.97,0-2.94,1.13-2.94,3.36v1.22h5.88v4.2h-5.8v17.81h-5.08v-17.81Z"/>
  <path class="st0" d="M1046.09,119.17v-14.11h5.08v12.6c0,3.49,1.72,5.38,4.75,5.38s5-1.97,5-5.46v-12.52h5.12v22.18h-5.12v-3.44c-1.47,2.14-3.53,3.91-6.93,3.91-5.04,0-7.9-3.32-7.9-8.53Z"/>
  <path class="st0" d="M1070.32,116.23v-.08c0-6.39,4.5-11.55,10.84-11.55,7.06,0,10.63,5.54,10.63,11.93,0,.46-.04.92-.08,1.43h-16.3c.55,3.65,3.07,5.63,6.38,5.63,2.52,0,4.2-.92,6.01-2.65l2.98,2.65c-2.14,2.52-5,4.16-9.07,4.16-6.38,0-11.38-4.66-11.38-11.51ZM1086.75,114.59c-.34-3.23-2.27-5.84-5.63-5.84-3.15,0-5.29,2.35-5.76,5.84h11.38Z"/>
  <path class="st0" d="M1096.03,105.05h5.12v5c1.39-3.36,3.95-5.59,7.86-5.42v5.38h-.29c-4.49,0-7.56,2.9-7.56,8.78v8.44h-5.12v-22.18Z"/>
  <path class="st0" d="M1110.01,120.85v-.08c0-4.83,3.78-7.14,9.2-7.14,2.52,0,4.24.38,5.96.92v-.55c0-3.19-1.93-4.83-5.5-4.83-2.52,0-4.33.55-6.34,1.39l-1.39-3.99c2.48-1.05,4.87-1.81,8.4-1.81,3.32,0,5.75.84,7.35,2.48,1.64,1.64,2.39,3.95,2.39,6.85v13.15h-4.96v-2.77c-1.51,1.81-3.82,3.23-7.23,3.23-4.16,0-7.9-2.35-7.9-6.85ZM1125.26,119.25v-1.51c-1.3-.5-3.02-.88-5.04-.88-3.32,0-5.21,1.34-5.21,3.7v.08c0,2.14,1.85,3.36,4.33,3.36,3.36,0,5.92-1.89,5.92-4.75Z"/>
  <path class="st0" d="M44.95,146.97h5.12v30.67h-5.12v-30.67Z"/>
  <path class="st0" d="M54.36,171.25v-.08c0-4.83,3.78-7.14,9.2-7.14,2.52,0,4.24.38,5.97.92v-.55c0-3.19-1.93-4.83-5.5-4.83-2.52,0-4.33.55-6.34,1.39l-1.39-3.99c2.48-1.05,4.87-1.81,8.4-1.81,3.32,0,5.75.84,7.35,2.48,1.64,1.64,2.39,3.95,2.39,6.85v13.15h-4.96v-2.77c-1.51,1.81-3.82,3.23-7.23,3.23-4.16,0-7.9-2.35-7.9-6.85ZM69.61,169.65v-1.51c-1.3-.5-3.02-.88-5.04-.88-3.32,0-5.21,1.34-5.21,3.7v.08c0,2.14,1.85,3.36,4.33,3.36,3.36,0,5.92-1.89,5.92-4.75Z"/>
  <path class="st0" d="M92.58,159.82h-2.81v-4.24h2.81v-1.64c0-2.44.59-4.24,1.81-5.46,1.18-1.18,2.81-1.76,4.96-1.76,1.81,0,3.02.25,4.16.59v4.28c-1.01-.34-1.85-.55-2.98-.55-1.97,0-2.94,1.13-2.94,3.36v1.22h5.88v4.2h-5.8v17.81h-5.08v-17.81ZM107.32,147.22h5.46v4.83h-5.46v-4.83ZM107.49,155.45h5.12v22.18h-5.12v-22.18Z"/>
  <path class="st0" d="M118.37,155.45h5.12v3.4c1.47-2.06,3.44-3.86,6.93-3.86,5.04,0,7.9,3.32,7.9,8.49v14.16h-5.08v-12.6c0-3.49-1.72-5.42-4.75-5.42s-5,2.02-5,5.5v12.52h-5.12v-22.18Z"/>
  <path class="st0" d="M142.1,171.25v-.08c0-4.83,3.78-7.14,9.2-7.14,2.52,0,4.24.38,5.97.92v-.55c0-3.19-1.93-4.83-5.5-4.83-2.52,0-4.33.55-6.34,1.39l-1.39-3.99c2.48-1.05,4.87-1.81,8.4-1.81,3.32,0,5.75.84,7.35,2.48,1.64,1.64,2.39,3.95,2.39,6.85v13.15h-4.96v-2.77c-1.51,1.81-3.82,3.23-7.23,3.23-4.16,0-7.9-2.35-7.9-6.85ZM157.34,169.65v-1.51c-1.3-.5-3.02-.88-5.04-.88-3.32,0-5.21,1.34-5.21,3.7v.08c0,2.14,1.85,3.36,4.33,3.36,3.36,0,5.92-1.89,5.92-4.75Z"/>
  <path class="st0" d="M167.67,146.97h5.12v30.67h-5.12v-30.67Z"/>
  <path class="st0" d="M189.22,166.59v-.08c0-7.39,5-11.51,10.29-11.51,3.61,0,6.01,1.81,7.56,3.91v-11.93h5.08v30.67h-5.08v-3.7c-1.64,2.31-3.99,4.16-7.56,4.16-5.21,0-10.29-4.12-10.29-11.51ZM207.16,166.59v-.08c0-4.29-3.02-7.1-6.43-7.1s-6.39,2.73-6.39,7.1v.08c0,4.28,2.9,7.1,6.39,7.1s6.43-2.86,6.43-7.1Z"/>
  <path class="st0" d="M216.48,166.63v-.08c0-6.39,4.5-11.55,10.84-11.55,7.06,0,10.63,5.55,10.63,11.93,0,.46-.04.92-.08,1.43h-16.3c.55,3.65,3.07,5.63,6.39,5.63,2.52,0,4.2-.92,6.01-2.65l2.98,2.65c-2.14,2.52-5,4.16-9.07,4.16-6.39,0-11.38-4.66-11.38-11.51ZM232.9,164.99c-.34-3.23-2.27-5.84-5.63-5.84-3.15,0-5.29,2.35-5.75,5.84h11.38Z"/>
  <path class="st0" d="M242.47,146.97h5.12v30.67h-5.12v-30.67Z"/>
  <path class="st0" d="M263.93,166.67v-.08c0-6.3,4.87-11.59,11.55-11.59,4.16,0,6.72,1.55,8.86,3.82l-3.19,3.4c-1.55-1.64-3.19-2.77-5.71-2.77-3.7,0-6.43,3.19-6.43,7.06v.08c0,3.95,2.73,7.1,6.64,7.1,2.39,0,4.12-1.09,5.75-2.73l3.07,3.02c-2.18,2.48-4.75,4.16-9.07,4.16-6.6,0-11.47-5.17-11.47-11.47Z"/>
  <path class="st0" d="M286.78,171.25v-.08c0-4.83,3.78-7.14,9.2-7.14,2.52,0,4.24.38,5.97.92v-.55c0-3.19-1.93-4.83-5.5-4.83-2.52,0-4.33.55-6.34,1.39l-1.39-3.99c2.48-1.05,4.87-1.81,8.4-1.81,3.32,0,5.75.84,7.35,2.48,1.64,1.64,2.39,3.95,2.39,6.85v13.15h-4.96v-2.77c-1.51,1.81-3.82,3.23-7.23,3.23-4.16,0-7.9-2.35-7.9-6.85ZM302.03,169.65v-1.51c-1.3-.5-3.02-.88-5.04-.88-3.32,0-5.21,1.34-5.21,3.7v.08c0,2.14,1.85,3.36,4.33,3.36,3.36,0,5.92-1.89,5.92-4.75Z"/>
  <path class="st0" d="M312.07,155.45h5.12v3.36c1.43-1.97,3.36-3.82,6.76-3.82,3.19,0,5.46,1.55,6.64,3.91,1.81-2.35,4.12-3.91,7.48-3.91,4.87,0,7.77,3.07,7.77,8.49v14.16h-5.08v-12.6c0-3.53-1.64-5.42-4.49-5.42s-4.75,1.93-4.75,5.5v12.52h-5.08v-12.64c0-3.49-1.64-5.38-4.5-5.38s-4.75,2.1-4.75,5.5v12.52h-5.12v-22.18Z"/>
  <path class="st0" d="M351.08,155.45h5.12v3.7c1.64-2.31,3.91-4.16,7.56-4.16,5.21,0,10.29,4.12,10.29,11.51v.08c0,7.39-5.04,11.51-10.29,11.51-3.7,0-6.01-1.85-7.56-3.91v10.17h-5.12v-28.9ZM368.89,166.59v-.08c0-4.29-2.94-7.1-6.34-7.1s-6.47,2.86-6.47,7.1v.08c0,4.24,2.98,7.1,6.47,7.1s6.34-2.73,6.34-7.1Z"/>
  <path class="st0" d="M377.25,166.63v-.08c0-6.39,4.5-11.55,10.84-11.55,7.06,0,10.63,5.55,10.63,11.93,0,.46-.04.92-.08,1.43h-16.3c.55,3.65,3.07,5.63,6.39,5.63,2.52,0,4.2-.92,6.01-2.65l2.98,2.65c-2.14,2.52-5,4.16-9.07,4.16-6.39,0-11.38-4.66-11.38-11.51ZM393.67,164.99c-.34-3.23-2.27-5.84-5.63-5.84-3.15,0-5.29,2.35-5.75,5.84h11.38Z"/>
  <path class="st0" d="M401.78,166.67v-.08c0-6.34,5.04-11.59,11.85-11.59s11.8,5.17,11.8,11.51v.08c0,6.26-5.04,11.55-11.89,11.55s-11.76-5.17-11.76-11.47ZM420.34,166.67v-.08c0-3.91-2.81-7.14-6.81-7.14s-6.68,3.19-6.68,7.06v.08c0,3.86,2.86,7.1,6.76,7.1,4.16,0,6.72-3.19,6.72-7.02Z"/>
  <path class="st0" d="M429.71,155.45h5.12v3.4c1.47-2.06,3.44-3.86,6.93-3.86,5.04,0,7.9,3.32,7.9,8.49v14.16h-5.08v-12.6c0-3.49-1.72-5.42-4.75-5.42s-5,2.02-5,5.5v12.52h-5.12v-22.18Z"/>
  <path class="st0" d="M453.44,171.25v-.08c0-4.83,3.78-7.14,9.2-7.14,2.52,0,4.24.38,5.97.92v-.55c0-3.19-1.93-4.83-5.5-4.83-2.52,0-4.33.55-6.34,1.39l-1.39-3.99c2.48-1.05,4.87-1.81,8.4-1.81,3.32,0,5.75.84,7.35,2.48,1.64,1.64,2.39,3.95,2.39,6.85v13.15h-4.96v-2.77c-1.51,1.81-3.82,3.23-7.23,3.23-4.16,0-7.9-2.35-7.9-6.85ZM468.69,169.65v-1.51c-1.3-.5-3.02-.88-5.04-.88-3.32,0-5.21,1.34-5.21,3.7v.08c0,2.14,1.85,3.36,4.33,3.36,3.36,0,5.92-1.89,5.92-4.75Z"/>
  <path class="st0" d="M479.6,171.5v-11.68h-2.81v-4.37h2.81v-6.09h5.08v6.09h5.97v4.37h-5.97v10.88c0,1.97,1.01,2.77,2.73,2.77,1.09,0,2.14-.25,3.15-.76v4.16c-1.3.71-2.6,1.13-4.58,1.13-3.74,0-6.39-1.64-6.39-6.51Z"/>
  <path class="st0" d="M493.13,166.67v-.08c0-6.34,5.04-11.59,11.85-11.59s11.8,5.17,11.8,11.51v.08c0,6.26-5.04,11.55-11.89,11.55s-11.76-5.17-11.76-11.47ZM511.69,166.67v-.08c0-3.91-2.81-7.14-6.81-7.14s-6.68,3.19-6.68,7.06v.08c0,3.86,2.86,7.1,6.76,7.1,4.16,0,6.72-3.19,6.72-7.02Z"/>
  <path class="st0" d="M519.92,172h5.46v5.63h-5.46v-5.63ZM530.97,172h5.46v5.63h-5.46v-5.63ZM542.02,172h5.46v5.63h-5.46v-5.63Z"/>
  <path class="st0" d="M564.61,176.16l1.6-18.61h2.81l1.55,18.61v1.47h-5.97v-1.47ZM564.82,148.23h5.59v5.8h-5.59v-5.8Z"/>
  <path class="st0" d="M591.66,155.45h5.29l-8.82,22.77c-1.81,4.58-3.74,6.26-7.31,6.26-2.14,0-3.7-.5-5.25-1.39l1.72-3.74c.97.5,1.93.84,2.98.84,1.47,0,2.31-.63,3.15-2.52l-9.24-22.22h5.46l6.22,16.47,5.8-16.47Z"/>
  <path class="st0" d="M612.19,155.45h5.12v3.4c1.47-2.06,3.44-3.86,6.93-3.86,5.04,0,7.9,3.32,7.9,8.49v14.16h-5.08v-12.6c0-3.49-1.72-5.42-4.75-5.42s-5,2.02-5,5.5v12.52h-5.12v-22.18Z"/>
  <path class="st0" d="M636.22,166.67v-.08c0-6.34,5.04-11.59,11.85-11.59s11.8,5.17,11.8,11.51v.08c0,6.26-5.04,11.55-11.89,11.55s-11.76-5.17-11.76-11.47ZM654.79,166.67v-.08c0-3.91-2.81-7.14-6.8-7.14s-6.68,3.19-6.68,7.06v.08c0,3.86,2.86,7.1,6.76,7.1,4.16,0,6.72-3.19,6.72-7.02Z"/>
  <path class="st0" d="M674.82,166.59v-.08c0-7.39,5-11.51,10.29-11.51,3.61,0,6.01,1.81,7.56,3.91v-11.93h5.08v30.67h-5.08v-3.7c-1.64,2.31-3.99,4.16-7.56,4.16-5.21,0-10.29-4.12-10.29-11.51ZM692.75,166.59v-.08c0-4.29-3.02-7.1-6.43-7.1s-6.38,2.73-6.38,7.1v.08c0,4.28,2.9,7.1,6.38,7.1s6.43-2.86,6.43-7.1Z"/>
  <path class="st0" d="M702.07,166.63v-.08c0-6.39,4.5-11.55,10.84-11.55,7.06,0,10.63,5.55,10.63,11.93,0,.46-.04.92-.08,1.43h-16.3c.55,3.65,3.07,5.63,6.38,5.63,2.52,0,4.2-.92,6.01-2.65l2.98,2.65c-2.14,2.52-5,4.16-9.07,4.16-6.38,0-11.38-4.66-11.38-11.51ZM718.5,164.99c-.34-3.23-2.27-5.84-5.63-5.84-3.15,0-5.29,2.35-5.76,5.84h11.38Z"/>
  <path class="st0" d="M724.29,184.27v-4.08c.5.08.97.13,1.43.13,1.47,0,2.35-.71,2.35-2.69v-22.18h5.12v22.47c0,4.54-2.27,6.55-6.43,6.55-1.01,0-1.68-.08-2.48-.21ZM727.9,147.22h5.46v4.83h-5.46v-4.83Z"/>
  <path class="st0" d="M737.48,171.25v-.08c0-4.83,3.78-7.14,9.2-7.14,2.52,0,4.24.38,5.96.92v-.55c0-3.19-1.93-4.83-5.5-4.83-2.52,0-4.33.55-6.34,1.39l-1.39-3.99c2.48-1.05,4.87-1.81,8.4-1.81,3.32,0,5.75.84,7.35,2.48,1.64,1.64,2.39,3.95,2.39,6.85v13.15h-4.96v-2.77c-1.51,1.81-3.82,3.23-7.23,3.23-4.16,0-7.9-2.35-7.9-6.85ZM752.73,169.65v-1.51c-1.3-.5-3.02-.88-5.04-.88-3.32,0-5.21,1.34-5.21,3.7v.08c0,2.14,1.85,3.36,4.33,3.36,3.36,0,5.92-1.89,5.92-4.75Z"/>
  <path class="st0" d="M762.76,155.45h5.12v3.36c1.43-1.97,3.36-3.82,6.76-3.82,3.19,0,5.46,1.55,6.64,3.91,1.81-2.35,4.12-3.91,7.48-3.91,4.87,0,7.77,3.07,7.77,8.49v14.16h-5.08v-12.6c0-3.53-1.64-5.42-4.5-5.42s-4.75,1.93-4.75,5.5v12.52h-5.08v-12.64c0-3.49-1.64-5.38-4.5-5.38s-4.75,2.1-4.75,5.5v12.52h-5.12v-22.18Z"/>
  <path class="st0" d="M800.6,166.67v-.08c0-6.34,5.04-11.59,11.85-11.59s11.8,5.17,11.8,11.51v.08c0,6.26-5.04,11.55-11.89,11.55s-11.76-5.17-11.76-11.47ZM819.17,166.67v-.08c0-3.91-2.81-7.14-6.81-7.14s-6.68,3.19-6.68,7.06v.08c0,3.86,2.86,7.1,6.76,7.1,4.16,0,6.72-3.19,6.72-7.02Z"/>
  <path class="st0" d="M826.77,174.73l2.27-3.44c2.48,1.81,4.96,2.73,7.27,2.73,2.18,0,3.45-.92,3.45-2.39v-.08c0-1.68-2.35-2.31-4.96-3.11-3.23-.88-6.93-2.27-6.93-6.47v-.08c0-4.24,3.49-6.81,7.9-6.81,2.81,0,5.8.97,8.15,2.52l-2.02,3.61c-2.14-1.3-4.41-2.1-6.26-2.1-1.97,0-3.11.97-3.11,2.18v.08c0,1.6,2.39,2.35,5,3.15,3.19,1.01,6.89,2.48,6.89,6.47v.08c0,4.66-3.61,6.97-8.23,6.97-3.19,0-6.59-1.09-9.41-3.32Z"/>
  <path class="st0" d="M860.5,155.45h5.12v3.7c1.64-2.31,3.91-4.16,7.56-4.16,5.21,0,10.29,4.12,10.29,11.51v.08c0,7.39-5.04,11.51-10.29,11.51-3.7,0-6.01-1.85-7.56-3.91v10.17h-5.12v-28.9ZM878.31,166.59v-.08c0-4.29-2.94-7.1-6.34-7.1s-6.47,2.86-6.47,7.1v.08c0,4.24,2.98,7.1,6.47,7.1s6.34-2.73,6.34-7.1Z"/>
  <path class="st0" d="M886.37,171.25v-.08c0-4.83,3.78-7.14,9.2-7.14,2.52,0,4.24.38,5.97.92v-.55c0-3.19-1.93-4.83-5.5-4.83-2.52,0-4.33.55-6.34,1.39l-1.39-3.99c2.48-1.05,4.87-1.81,8.4-1.81,3.32,0,5.75.84,7.35,2.48,1.64,1.64,2.39,3.95,2.39,6.85v13.15h-4.96v-2.77c-1.51,1.81-3.82,3.23-7.22,3.23-4.16,0-7.9-2.35-7.9-6.85ZM901.62,169.65v-1.51c-1.3-.5-3.03-.88-5.04-.88-3.32,0-5.21,1.34-5.21,3.7v.08c0,2.14,1.85,3.36,4.33,3.36,3.36,0,5.92-1.89,5.92-4.75Z"/>
  <path class="st0" d="M909.89,174.73l2.27-3.44c2.48,1.81,4.96,2.73,7.27,2.73,2.18,0,3.44-.92,3.44-2.39v-.08c0-1.68-2.35-2.31-4.96-3.11-3.23-.88-6.93-2.27-6.93-6.47v-.08c0-4.24,3.49-6.81,7.9-6.81,2.81,0,5.8.97,8.15,2.52l-2.02,3.61c-2.14-1.3-4.41-2.1-6.26-2.1-1.97,0-3.11.97-3.11,2.18v.08c0,1.6,2.39,2.35,5,3.15,3.19,1.01,6.89,2.48,6.89,6.47v.08c0,4.66-3.61,6.97-8.23,6.97-3.19,0-6.59-1.09-9.41-3.32Z"/>
  <path class="st0" d="M930.38,171.25v-.08c0-4.83,3.78-7.14,9.2-7.14,2.52,0,4.24.38,5.97.92v-.55c0-3.19-1.93-4.83-5.5-4.83-2.52,0-4.33.55-6.34,1.39l-1.39-3.99c2.48-1.05,4.87-1.81,8.4-1.81,3.32,0,5.76.84,7.35,2.48,1.64,1.64,2.39,3.95,2.39,6.85v13.15h-4.96v-2.77c-1.51,1.81-3.82,3.23-7.22,3.23-4.16,0-7.9-2.35-7.9-6.85ZM945.63,169.65v-1.51c-1.3-.5-3.03-.88-5.04-.88-3.32,0-5.21,1.34-5.21,3.7v.08c0,2.14,1.85,3.36,4.33,3.36,3.36,0,5.92-1.89,5.92-4.75Z"/>
  <path class="st0" d="M955.67,155.45h5.12v5c1.39-3.36,3.95-5.59,7.86-5.42v5.38h-.29c-4.49,0-7.56,2.9-7.56,8.78v8.44h-5.12v-22.18Z"/>
  <path class="st0" d="M983.93,155.45h5.12v3.4c1.47-2.06,3.44-3.86,6.93-3.86,5.04,0,7.9,3.32,7.9,8.49v14.16h-5.08v-12.6c0-3.49-1.72-5.42-4.75-5.42s-5,2.02-5,5.5v12.52h-5.12v-22.18Z"/>
  <path class="st0" d="M1009.26,147.22h5.46v4.83h-5.46v-4.83ZM1009.42,155.45h5.12v22.18h-5.12v-22.18Z"/>
  <path class="st0" d="M1031.85,169.57v-14.11h5.08v12.6c0,3.49,1.72,5.38,4.75,5.38s5-1.97,5-5.46v-12.52h5.12v22.18h-5.12v-3.44c-1.47,2.14-3.53,3.91-6.93,3.91-5.04,0-7.9-3.32-7.9-8.53Z"/>
  <path class="st0" d="M1057.26,155.45h5.12v3.4c1.47-2.06,3.45-3.86,6.93-3.86,5.04,0,7.9,3.32,7.9,8.49v14.16h-5.08v-12.6c0-3.49-1.72-5.42-4.75-5.42s-5,2.02-5,5.5v12.52h-5.12v-22.18Z"/>
  <path class="st0" d="M1080.99,171.25v-.08c0-4.83,3.78-7.14,9.2-7.14,2.52,0,4.24.38,5.96.92v-.55c0-3.19-1.93-4.83-5.5-4.83-2.52,0-4.33.55-6.34,1.39l-1.39-3.99c2.48-1.05,4.87-1.81,8.4-1.81,3.32,0,5.75.84,7.35,2.48,1.64,1.64,2.39,3.95,2.39,6.85v13.15h-4.96v-2.77c-1.51,1.81-3.82,3.23-7.23,3.23-4.16,0-7.9-2.35-7.9-6.85ZM1096.24,169.65v-1.51c-1.3-.5-3.03-.88-5.04-.88-3.32,0-5.21,1.34-5.21,3.7v.08c0,2.14,1.85,3.36,4.33,3.36,3.36,0,5.92-1.89,5.92-4.75Z"/>
  <path class="st0" d="M1106.49,149.7v-1.47h5.97v1.47l-1.55,18.61h-2.81l-1.6-18.61ZM1106.7,171.84h5.59v5.8h-5.59v-5.8Z"/>
</svg>