<?xml version="1.0" encoding="UTF-8"?>
<svg id="Layer_1" xmlns="http://www.w3.org/2000/svg" version="1.1" viewBox="0 0 991.27 121.87">
  <!-- Generator: Adobe Illustrator 29.7.1, SVG Export Plug-In . SVG Version: 2.1.1 Build 8)  -->
  <defs>
    <style>
      .st0 {
        fill: #fff;
      }
    </style>
  </defs>
  <path class="st0" d="M23.27,32.07v-.1c0-9.75,6.66-17.74,16.09-17.74,5.81,0,9.3,2.2,12.29,5.34l-3.53,4.46c-2.55-2.55-5.18-4.21-8.8-4.21-5.9,0-10.28,5.34-10.28,12.05v.1c0,6.71,4.33,12.15,10.32,12.15,3.8,0,6.3-1.67,8.98-4.41l3.53,3.92c-3.17,3.77-6.88,6.08-12.69,6.08-9.12,0-15.91-7.79-15.91-17.64Z"/>
  <path class="st0" d="M55.32,36.34v-.1c0-7.4,5.36-13.52,12.6-13.52s12.56,6.03,12.56,13.42v.1c0,7.3-5.36,13.47-12.65,13.47s-12.51-6.03-12.51-13.38ZM75.07,36.34v-.1c0-4.56-2.99-8.33-7.24-8.33s-7.11,3.72-7.11,8.23v.1c0,4.51,3.04,8.28,7.2,8.28,4.42,0,7.15-3.72,7.15-8.18Z"/>
  <path class="st0" d="M85.93,23.26h5.45v3.97c1.56-2.4,3.67-4.51,7.37-4.51,5.36,0,8.4,3.87,8.4,9.9v16.51h-5.41v-14.7c0-4.07-1.83-6.32-5.05-6.32s-5.32,2.35-5.32,6.42v14.6h-5.45v-25.87Z"/>
  <path class="st0" d="M125.44,32.07v-.1c0-10,6.97-17.83,16.45-17.83,6.35,0,10.55,2.94,13.27,7.1l-6.53,5.54c-1.79-2.4-3.8-4.02-6.84-4.02-4.38,0-7.46,4.12-7.46,9.11v.1c0,5.14,3.08,9.16,7.46,9.16,3.26,0,5.14-1.67,7.06-4.17l6.53,5.1c-2.99,4.46-6.93,7.74-13.81,7.74-8.94,0-16.13-7.5-16.13-17.74Z"/>
  <path class="st0" d="M157.27,35.99v-.1c0-7.59,5.63-13.87,13.36-13.87s13.32,6.22,13.32,13.77v.1c0,7.59-5.68,13.87-13.41,13.87s-13.27-6.17-13.27-13.77ZM175.73,35.99v-.1c0-3.28-2.15-6.03-5.18-6.03s-5.05,2.65-5.05,5.93v.1c0,3.23,2.15,5.98,5.14,5.98s5.09-2.7,5.09-5.88Z"/>
  <path class="st0" d="M187.53,22.62h8.49v3.53c1.65-2.2,3.71-4.12,7.33-4.12,5.72,0,10.73,5.24,10.73,13.72v.1c0,8.62-4.96,13.87-10.68,13.87-3.67,0-5.77-1.81-7.37-3.82v11.07h-8.49V22.62ZM205.76,35.9v-.1c0-3.53-2.28-6.03-4.96-6.03s-4.96,2.5-4.96,6.03v.1c0,3.53,2.19,6.03,4.96,6.03s4.96-2.45,4.96-6.03Z"/>
  <path class="st0" d="M217.79,13.36h8.8v6.86h-8.8v-6.86ZM217.96,22.62h8.45v26.51h-8.45v-26.51Z"/>
  <path class="st0" d="M231.42,13.36h8.45v35.77h-8.45V13.36Z"/>
  <path class="st0" d="M243.71,35.99v-.1c0-7.59,5.63-13.87,13.36-13.87s13.32,6.22,13.32,13.77v.1c0,7.59-5.68,13.87-13.41,13.87s-13.27-6.17-13.27-13.77ZM262.17,35.99v-.1c0-3.28-2.15-6.03-5.18-6.03s-5.05,2.65-5.05,5.93v.1c0,3.23,2.15,5.98,5.14,5.98s5.09-2.7,5.09-5.88Z"/>
  <path class="st0" d="M275.26,40.89v-10.83h-2.86v-7.45h2.86v-6.71h8.45v6.71h5.63v7.45h-5.63v9.02c0,1.91.76,2.65,2.32,2.65,1.12,0,2.19-.34,3.22-.88v7.25c-1.56.93-3.53,1.57-5.9,1.57-5.14,0-8.09-2.45-8.09-8.77Z"/>
  <path class="st0" d="M301.14,35.99h-7.87v-8.23h7.87v-8.53h7.78v8.53h7.87v8.23h-7.87v8.53h-7.78v-8.53Z"/>
  <path class="st0" d="M322.1,14.83h13.45c7.87,0,12.96,4.41,12.96,12v.1c0,8.13-5.68,12.4-13.41,12.4h-4.33v9.8h-8.67V14.83ZM334.93,31.88c3.04,0,4.96-1.76,4.96-4.51v-.1c0-2.94-1.92-4.46-5.01-4.46h-4.11v9.06h4.16Z"/>
  <path class="st0" d="M351.16,32.07v-.1c0-10,6.97-17.83,16.45-17.83,6.35,0,10.55,2.94,13.27,7.1l-6.53,5.54c-1.79-2.4-3.8-4.02-6.84-4.02-4.38,0-7.46,4.12-7.46,9.11v.1c0,5.14,3.08,9.16,7.46,9.16,3.26,0,5.14-1.67,7.06-4.17l6.53,5.1c-2.99,4.46-6.93,7.74-13.81,7.74-8.94,0-16.13-7.5-16.13-17.74Z"/>
  <path class="st0" d="M415.25,23.26h5.63l-9.39,26.56c-1.92,5.34-3.98,7.3-7.78,7.3-2.28,0-3.93-.59-5.59-1.62l1.83-4.36c1.03.59,2.06.98,3.17.98,1.56,0,2.46-.73,3.35-2.94l-9.83-25.92h5.81l6.62,19.21,6.17-19.21Z"/>
  <path class="st0" d="M439.21,13.36h5.45v35.77h-5.45V13.36Z"/>
  <path class="st0" d="M450.11,41.68v-.1c0-5.63,4.02-8.33,9.79-8.33,2.68,0,4.51.44,6.35,1.08v-.64c0-3.72-2.06-5.63-5.85-5.63-2.68,0-4.6.64-6.75,1.62l-1.47-4.66c2.64-1.22,5.18-2.11,8.94-2.11,3.53,0,6.12.98,7.82,2.89,1.74,1.91,2.55,4.61,2.55,7.99v15.34h-5.27v-3.23c-1.61,2.11-4.07,3.77-7.69,3.77-4.42,0-8.4-2.74-8.4-7.99ZM466.34,39.82v-1.76c-1.39-.59-3.22-1.03-5.36-1.03-3.53,0-5.54,1.57-5.54,4.31v.1c0,2.5,1.97,3.92,4.6,3.92,3.58,0,6.3-2.21,6.3-5.54Z"/>
  <path class="st0" d="M491.32,23.26h5.45v4.31c1.74-2.69,4.16-4.85,8.04-4.85,5.54,0,10.95,4.8,10.95,13.42v.1c0,8.62-5.36,13.42-10.95,13.42-3.93,0-6.39-2.16-8.04-4.56v11.86h-5.45V23.26ZM510.27,36.24v-.1c0-5-3.13-8.28-6.75-8.28s-6.88,3.33-6.88,8.28v.1c0,4.95,3.17,8.28,6.88,8.28s6.75-3.18,6.75-8.28Z"/>
  <path class="st0" d="M520.06,36.34v-.1c0-7.4,5.36-13.52,12.6-13.52s12.56,6.03,12.56,13.42v.1c0,7.3-5.36,13.47-12.65,13.47s-12.51-6.03-12.51-13.38ZM539.82,36.34v-.1c0-4.56-2.99-8.33-7.24-8.33s-7.11,3.72-7.11,8.23v.1c0,4.51,3.04,8.28,7.2,8.28,4.42,0,7.15-3.72,7.15-8.18Z"/>
  <path class="st0" d="M551.84,41.97v-13.62h-2.99v-5.1h2.99v-7.1h5.41v7.1h6.35v5.1h-6.35v12.69c0,2.3,1.07,3.23,2.91,3.23,1.16,0,2.28-.29,3.35-.88v4.85c-1.39.83-2.77,1.32-4.87,1.32-3.98,0-6.79-1.91-6.79-7.59Z"/>
  <path class="st0" d="M567.13,36.29v-.1c0-7.45,4.78-13.47,11.53-13.47,7.51,0,11.31,6.47,11.31,13.92,0,.54-.04,1.08-.09,1.67h-17.34c.58,4.26,3.26,6.57,6.79,6.57,2.68,0,4.47-1.08,6.39-3.09l3.17,3.09c-2.28,2.94-5.32,4.85-9.65,4.85-6.79,0-12.11-5.44-12.11-13.42ZM584.6,34.38c-.36-3.77-2.41-6.81-5.99-6.81-3.35,0-5.63,2.74-6.12,6.81h12.11Z"/>
  <path class="st0" d="M595.37,23.26h5.45v3.97c1.56-2.4,3.67-4.51,7.37-4.51,5.36,0,8.4,3.87,8.4,9.9v16.51h-5.41v-14.7c0-4.07-1.83-6.32-5.05-6.32s-5.32,2.35-5.32,6.42v14.6h-5.45v-25.87Z"/>
  <path class="st0" d="M621.84,36.34v-.1c0-7.35,5.18-13.52,12.29-13.52,4.42,0,7.15,1.81,9.43,4.46l-3.4,3.97c-1.65-1.91-3.4-3.23-6.08-3.23-3.93,0-6.84,3.72-6.84,8.23v.1c0,4.61,2.9,8.28,7.06,8.28,2.55,0,4.38-1.27,6.12-3.18l3.26,3.53c-2.32,2.89-5.05,4.85-9.65,4.85-7.02,0-12.2-6.03-12.2-13.38Z"/>
  <path class="st0" d="M648.74,13.65h5.81v5.63h-5.81v-5.63ZM648.92,23.26h5.45v25.87h-5.45v-25.87Z"/>
  <path class="st0" d="M659.83,41.68v-.1c0-5.63,4.02-8.33,9.79-8.33,2.68,0,4.51.44,6.35,1.08v-.64c0-3.72-2.06-5.63-5.85-5.63-2.68,0-4.6.64-6.75,1.62l-1.47-4.66c2.64-1.22,5.18-2.11,8.94-2.11,3.53,0,6.12.98,7.82,2.89,1.74,1.91,2.55,4.61,2.55,7.99v15.34h-5.27v-3.23c-1.61,2.11-4.07,3.77-7.69,3.77-4.42,0-8.4-2.74-8.4-7.99ZM676.05,39.82v-1.76c-1.39-.59-3.22-1.03-5.36-1.03-3.53,0-5.54,1.57-5.54,4.31v.1c0,2.5,1.97,3.92,4.6,3.92,3.58,0,6.3-2.21,6.3-5.54Z"/>
  <path class="st0" d="M699.87,36.24v-.1c0-8.62,5.32-13.42,10.95-13.42,3.84,0,6.39,2.11,8.04,4.56v-13.91h5.41v35.77h-5.41v-4.31c-1.74,2.69-4.25,4.85-8.04,4.85-5.54,0-10.95-4.8-10.95-13.42ZM718.96,36.24v-.1c0-5-3.22-8.28-6.84-8.28s-6.79,3.19-6.79,8.28v.1c0,5,3.08,8.28,6.79,8.28s6.84-3.33,6.84-8.28Z"/>
  <path class="st0" d="M729.77,36.29v-.1c0-7.45,4.78-13.47,11.53-13.47,7.51,0,11.31,6.47,11.31,13.92,0,.54-.04,1.08-.09,1.67h-17.34c.58,4.26,3.26,6.57,6.79,6.57,2.68,0,4.47-1.08,6.39-3.09l3.17,3.09c-2.28,2.94-5.32,4.85-9.65,4.85-6.79,0-12.11-5.44-12.11-13.42ZM747.25,34.38c-.36-3.77-2.41-6.81-5.99-6.81-3.35,0-5.63,2.74-6.12,6.81h12.11Z"/>
  <path class="st0" d="M785.29,42.46h-15.2l-1.38-6.71,16.22-21.17h8.71v20.77h3.98v7.1h-3.98v6.66h-8.36v-6.66ZM785.29,35.41v-9.9l-7.51,9.9h7.51Z"/>
  <path class="st0" d="M800.71,32.07v-.1c0-9.7,5.63-17.83,14.53-17.83s14.44,8.04,14.44,17.74v.1c0,9.7-5.59,17.83-14.53,17.83s-14.44-8.04-14.44-17.74ZM820.95,32.07v-.1c0-5.49-2.37-9.46-5.81-9.46s-5.72,3.87-5.72,9.36v.1c0,5.54,2.37,9.41,5.81,9.41s5.72-3.87,5.72-9.31Z"/>
  <path class="st0" d="M855.32,23.16h-9.34v-8.33h27.4v8.33h-9.39v25.97h-8.67v-25.97Z"/>
  <path class="st0" d="M874.81,32.07v-.1c0-9.85,7.24-17.83,16.89-17.83s16.8,7.94,16.8,17.74v.1c0,9.85-7.24,17.83-16.89,17.83s-16.8-7.94-16.8-17.74ZM899.62,32.07v-.1c0-5-3.22-9.26-8-9.26s-7.96,4.21-7.96,9.16v.1c0,4.9,3.26,9.26,8.04,9.26s7.91-4.21,7.91-9.16Z"/>
  <path class="st0" d="M912.98,14.83h13.45c7.87,0,12.96,4.41,12.96,12v.1c0,8.13-5.68,12.4-13.41,12.4h-4.33v9.8h-8.67V14.83ZM925.81,31.88c3.04,0,4.96-1.76,4.96-4.51v-.1c0-2.94-1.92-4.46-5.01-4.46h-4.11v9.06h4.16Z"/>
  <path class="st0" d="M940.69,44.03l4.83-6.32c3.17,2.74,6.57,4.12,10.14,4.12,2.37,0,3.62-.83,3.62-2.35v-.1c0-1.47-1.03-2.16-5.32-3.33-6.61-1.67-11.8-3.67-11.8-10.73v-.1c0-6.42,4.6-10.97,12.11-10.97,5.36,0,9.47,1.57,12.87,4.56l-4.33,6.71c-2.86-2.3-5.94-3.38-8.76-3.38-2.1,0-3.13.88-3.13,2.21v.1c0,1.52,1.07,2.3,5.45,3.33,7.15,1.71,11.62,4.26,11.62,10.68v.1c0,7.01-5.05,11.17-12.65,11.17-5.59,0-10.73-1.91-14.66-5.68Z"/>
  <path class="st0" d="M50.18,95.04v-.1c0-8.62,5.32-13.42,10.95-13.42,3.84,0,6.39,2.11,8.04,4.56v-13.91h5.41v35.77h-5.41v-4.31c-1.74,2.69-4.25,4.85-8.04,4.85-5.54,0-10.95-4.8-10.95-13.42ZM69.26,95.04v-.1c0-5-3.22-8.28-6.84-8.28s-6.79,3.19-6.79,8.28v.1c0,5,3.08,8.28,6.79,8.28s6.84-3.33,6.84-8.28Z"/>
  <path class="st0" d="M80.08,95.09v-.1c0-7.45,4.78-13.47,11.53-13.47,7.51,0,11.31,6.47,11.31,13.92,0,.54-.04,1.08-.09,1.67h-17.34c.58,4.26,3.26,6.57,6.79,6.57,2.68,0,4.47-1.08,6.39-3.09l3.17,3.09c-2.28,2.94-5.32,4.85-9.65,4.85-6.79,0-12.11-5.44-12.11-13.42ZM97.55,93.18c-.36-3.77-2.41-6.81-5.99-6.81-3.35,0-5.63,2.74-6.12,6.81h12.11Z"/>
  <path class="st0" d="M131.97,73.38h8.36l13.32,34.54h-9.3l-2.23-6.17h-12.11l-2.23,6.17h-9.07l13.27-34.54ZM139.57,94.35l-3.49-9.7-3.53,9.7h7.02Z"/>
  <path class="st0" d="M156.68,73.63h9.16l7.46,13.28,7.46-13.28h9.16v34.3h-8.63v-19.7l-8,13.42h-.18l-7.96-13.38v19.65h-8.49v-34.3Z"/>
  <path class="st0" d="M195.48,73.63h12.11c11.13,0,17.61,7.01,17.61,16.95v.1c0,9.95-6.57,17.25-17.79,17.25h-11.93v-34.3ZM204.15,82.01v17.49h3.53c5.23,0,8.67-3.14,8.67-8.67v-.1c0-5.54-3.44-8.72-8.67-8.72h-3.53Z"/>
  <path class="st0" d="M241.52,82.06h5.81l6.35,19.01,6.39-19.01h5.68l-9.65,26.07h-4.87l-9.7-26.07Z"/>
  <path class="st0" d="M267.62,100.48v-.1c0-5.63,4.02-8.33,9.79-8.33,2.68,0,4.51.44,6.35,1.08v-.64c0-3.72-2.06-5.63-5.85-5.63-2.68,0-4.6.64-6.75,1.62l-1.47-4.66c2.64-1.22,5.18-2.11,8.94-2.11,3.53,0,6.12.98,7.82,2.89,1.74,1.91,2.55,4.61,2.55,7.99v15.34h-5.27v-3.23c-1.61,2.11-4.07,3.77-7.69,3.77-4.42,0-8.4-2.74-8.4-7.99ZM283.84,98.62v-1.76c-1.39-.59-3.22-1.03-5.36-1.03-3.53,0-5.54,1.57-5.54,4.31v.1c0,2.5,1.97,3.92,4.6,3.92,3.58,0,6.3-2.21,6.3-5.54Z"/>
  <path class="st0" d="M295.73,72.16h5.45v35.77h-5.45v-35.77Z"/>
  <path class="st0" d="M308.34,72.45h5.81v5.63h-5.81v-5.63ZM308.52,82.06h5.45v25.87h-5.45v-25.87Z"/>
  <path class="st0" d="M319.83,95.04v-.1c0-8.62,5.32-13.42,10.95-13.42,3.84,0,6.39,2.11,8.04,4.56v-13.91h5.41v35.77h-5.41v-4.31c-1.74,2.69-4.25,4.85-8.04,4.85-5.54,0-10.95-4.8-10.95-13.42ZM338.91,95.04v-.1c0-5-3.22-8.28-6.84-8.28s-6.79,3.19-6.79,8.28v.1c0,5,3.08,8.28,6.79,8.28s6.84-3.33,6.84-8.28Z"/>
  <path class="st0" d="M349.41,100.48v-.1c0-5.63,4.02-8.33,9.79-8.33,2.68,0,4.51.44,6.35,1.08v-.64c0-3.72-2.06-5.63-5.85-5.63-2.68,0-4.6.64-6.75,1.62l-1.47-4.66c2.64-1.22,5.18-2.11,8.94-2.11,3.53,0,6.12.98,7.82,2.89,1.74,1.91,2.55,4.61,2.55,7.99v15.34h-5.27v-3.23c-1.61,2.11-4.07,3.77-7.69,3.77-4.42,0-8.4-2.74-8.4-7.99ZM365.64,98.62v-1.76c-1.39-.59-3.22-1.03-5.36-1.03-3.53,0-5.54,1.57-5.54,4.31v.1c0,2.5,1.97,3.92,4.6,3.92,3.58,0,6.3-2.21,6.3-5.54Z"/>
  <path class="st0" d="M375.34,104.54l2.41-4.02c2.64,2.11,5.27,3.18,7.73,3.18,2.32,0,3.67-1.08,3.67-2.79v-.1c0-1.96-2.5-2.69-5.27-3.63-3.44-1.03-7.37-2.65-7.37-7.54v-.1c0-4.95,3.71-7.94,8.4-7.94,2.99,0,6.17,1.13,8.67,2.94l-2.15,4.21c-2.28-1.52-4.69-2.45-6.66-2.45-2.1,0-3.31,1.13-3.31,2.55v.1c0,1.86,2.55,2.74,5.32,3.67,3.4,1.18,7.33,2.89,7.33,7.55v.1c0,5.44-3.84,8.13-8.76,8.13-3.4,0-7.02-1.27-10.01-3.87Z"/>
  <path class="st0" d="M411.76,95.14v-.1c0-7.35,5.18-13.52,12.29-13.52,4.42,0,7.15,1.81,9.43,4.46l-3.4,3.97c-1.65-1.91-3.4-3.23-6.08-3.23-3.93,0-6.84,3.72-6.84,8.23v.1c0,4.61,2.9,8.28,7.06,8.28,2.55,0,4.38-1.27,6.12-3.18l3.26,3.53c-2.32,2.89-5.05,4.85-9.65,4.85-7.02,0-12.2-6.03-12.2-13.38Z"/>
  <path class="st0" d="M436.97,100.48v-.1c0-5.63,4.02-8.33,9.79-8.33,2.68,0,4.51.44,6.35,1.08v-.64c0-3.72-2.06-5.63-5.85-5.63-2.68,0-4.6.64-6.75,1.62l-1.47-4.66c2.64-1.22,5.18-2.11,8.94-2.11,3.53,0,6.12.98,7.82,2.89,1.74,1.91,2.55,4.61,2.55,7.99v15.34h-5.27v-3.23c-1.61,2.11-4.07,3.77-7.69,3.77-4.42,0-8.4-2.74-8.4-7.99ZM453.2,98.62v-1.76c-1.39-.59-3.22-1.03-5.36-1.03-3.53,0-5.54,1.57-5.54,4.31v.1c0,2.5,1.97,3.92,4.6,3.92,3.58,0,6.3-2.21,6.3-5.54Z"/>
  <path class="st0" d="M463.61,95.04v-.1c0-8.62,5.32-13.42,10.95-13.42,3.84,0,6.39,2.11,8.04,4.56v-13.91h5.41v35.77h-5.41v-4.31c-1.74,2.69-4.25,4.85-8.04,4.85-5.54,0-10.95-4.8-10.95-13.42ZM482.69,95.04v-.1c0-5-3.22-8.28-6.84-8.28s-6.79,3.19-6.79,8.28v.1c0,5,3.08,8.28,6.79,8.28s6.84-3.33,6.84-8.28Z"/>
  <path class="st0" d="M493.2,100.48v-.1c0-5.63,4.02-8.33,9.79-8.33,2.68,0,4.51.44,6.35,1.08v-.64c0-3.72-2.06-5.63-5.85-5.63-2.68,0-4.6.64-6.75,1.62l-1.47-4.66c2.64-1.22,5.18-2.11,8.94-2.11,3.53,0,6.12.98,7.82,2.89,1.74,1.91,2.55,4.61,2.55,7.99v15.34h-5.27v-3.23c-1.61,2.11-4.07,3.77-7.69,3.77-4.42,0-8.4-2.74-8.4-7.99ZM509.42,98.62v-1.76c-1.39-.59-3.22-1.03-5.36-1.03-3.53,0-5.54,1.57-5.54,4.31v.1c0,2.5,1.97,3.92,4.6,3.92,3.58,0,6.3-2.21,6.3-5.54Z"/>
  <path class="st0" d="M533.25,95.04v-.1c0-8.62,5.32-13.42,10.95-13.42,3.84,0,6.39,2.11,8.04,4.56v-13.91h5.41v35.77h-5.41v-4.31c-1.74,2.69-4.25,4.85-8.04,4.85-5.54,0-10.95-4.8-10.95-13.42ZM552.33,95.04v-.1c0-5-3.22-8.28-6.84-8.28s-6.79,3.19-6.79,8.28v.1c0,5,3.08,8.28,6.79,8.28s6.84-3.33,6.84-8.28Z"/>
  <path class="st0" d="M563.15,95.09v-.1c0-7.45,4.78-13.47,11.53-13.47,7.51,0,11.31,6.47,11.31,13.92,0,.54-.04,1.08-.09,1.67h-17.34c.58,4.26,3.26,6.57,6.79,6.57,2.68,0,4.47-1.08,6.39-3.09l3.17,3.09c-2.28,2.94-5.32,4.85-9.65,4.85-6.79,0-12.11-5.44-12.11-13.42ZM580.62,93.18c-.36-3.77-2.41-6.81-5.99-6.81-3.35,0-5.63,2.74-6.12,6.81h12.11Z"/>
  <path class="st0" d="M592.56,100.77v-13.62h-2.99v-5.1h2.99v-7.1h5.41v7.1h6.35v5.1h-6.35v12.69c0,2.3,1.07,3.23,2.91,3.23,1.16,0,2.28-.29,3.35-.88v4.85c-1.39.83-2.77,1.32-4.87,1.32-3.98,0-6.79-1.91-6.79-7.59Z"/>
  <path class="st0" d="M608.2,100.48v-.1c0-5.63,4.02-8.33,9.79-8.33,2.68,0,4.51.44,6.35,1.08v-.64c0-3.72-2.06-5.63-5.85-5.63-2.68,0-4.6.64-6.75,1.62l-1.47-4.66c2.64-1.22,5.18-2.11,8.94-2.11,3.53,0,6.12.98,7.82,2.89,1.74,1.91,2.55,4.61,2.55,7.99v15.34h-5.27v-3.23c-1.61,2.11-4.07,3.77-7.69,3.77-4.42,0-8.4-2.74-8.4-7.99ZM624.43,98.62v-1.76c-1.39-.59-3.22-1.03-5.36-1.03-3.53,0-5.54,1.57-5.54,4.31v.1c0,2.5,1.97,3.92,4.6,3.92,3.58,0,6.3-2.21,6.3-5.54Z"/>
  <path class="st0" d="M636.32,72.16h5.45v35.77h-5.45v-35.77Z"/>
  <path class="st0" d="M649.1,72.16h5.45v35.77h-5.45v-35.77Z"/>
  <path class="st0" d="M660.32,95.09v-.1c0-7.45,4.78-13.47,11.53-13.47,7.51,0,11.31,6.47,11.31,13.92,0,.54-.04,1.08-.09,1.67h-17.34c.58,4.26,3.26,6.57,6.79,6.57,2.68,0,4.47-1.08,6.39-3.09l3.17,3.09c-2.28,2.94-5.32,4.85-9.65,4.85-6.79,0-12.11-5.44-12.11-13.42ZM677.79,93.18c-.36-3.77-2.41-6.81-5.99-6.81-3.35,0-5.63,2.74-6.12,6.81h12.11Z"/>
  <path class="st0" d="M700.41,100.48v-.1c0-5.63,4.02-8.33,9.79-8.33,2.68,0,4.51.44,6.35,1.08v-.64c0-3.72-2.06-5.63-5.85-5.63-2.68,0-4.6.64-6.75,1.62l-1.47-4.66c2.64-1.22,5.18-2.11,8.94-2.11,3.53,0,6.12.98,7.82,2.89,1.74,1.91,2.55,4.61,2.55,7.99v15.34h-5.27v-3.23c-1.61,2.11-4.07,3.77-7.69,3.77-4.42,0-8.4-2.74-8.4-7.99ZM716.63,98.62v-1.76c-1.39-.59-3.22-1.03-5.36-1.03-3.53,0-5.54,1.57-5.54,4.31v.1c0,2.5,1.97,3.92,4.6,3.92,3.58,0,6.3-2.21,6.3-5.54Z"/>
  <path class="st0" d="M728.52,72.16h5.45v35.77h-5.45v-35.77Z"/>
  <path class="st0" d="M754.54,72.45h5.81v5.63h-5.81v-5.63ZM754.71,82.06h5.45v25.87h-5.45v-25.87Z"/>
  <path class="st0" d="M767.18,82.06h5.45v3.97c1.56-2.4,3.67-4.51,7.37-4.51,5.36,0,8.4,3.87,8.4,9.9v16.51h-5.41v-14.7c0-4.07-1.83-6.32-5.05-6.32s-5.32,2.35-5.32,6.42v14.6h-5.45v-25.87Z"/>
  <path class="st0" d="M793.02,104.54l2.41-4.02c2.64,2.11,5.27,3.18,7.73,3.18,2.32,0,3.67-1.08,3.67-2.79v-.1c0-1.96-2.5-2.69-5.27-3.63-3.44-1.03-7.37-2.65-7.37-7.54v-.1c0-4.95,3.71-7.94,8.4-7.94,2.99,0,6.17,1.13,8.67,2.94l-2.15,4.21c-2.28-1.52-4.69-2.45-6.66-2.45-2.1,0-3.31,1.13-3.31,2.55v.1c0,1.86,2.55,2.74,5.32,3.67,3.4,1.18,7.33,2.89,7.33,7.55v.1c0,5.44-3.84,8.13-8.76,8.13-3.4,0-7.02-1.27-10.01-3.87Z"/>
  <path class="st0" d="M818,100.77v-13.62h-2.99v-5.1h2.99v-7.1h5.41v7.1h6.35v5.1h-6.35v12.69c0,2.3,1.07,3.23,2.91,3.23,1.16,0,2.28-.29,3.35-.88v4.85c-1.39.83-2.77,1.32-4.87,1.32-3.98,0-6.79-1.91-6.79-7.59Z"/>
  <path class="st0" d="M833.65,100.48v-.1c0-5.63,4.02-8.33,9.79-8.33,2.68,0,4.51.44,6.35,1.08v-.64c0-3.72-2.06-5.63-5.85-5.63-2.68,0-4.6.64-6.75,1.62l-1.47-4.66c2.64-1.22,5.18-2.11,8.94-2.11,3.53,0,6.12.98,7.82,2.89,1.74,1.91,2.55,4.61,2.55,7.99v15.34h-5.27v-3.23c-1.61,2.11-4.07,3.77-7.69,3.77-4.42,0-8.4-2.74-8.4-7.99ZM849.87,98.62v-1.76c-1.39-.59-3.22-1.03-5.36-1.03-3.53,0-5.54,1.57-5.54,4.31v.1c0,2.5,1.97,3.92,4.6,3.92,3.58,0,6.3-2.21,6.3-5.54Z"/>
  <path class="st0" d="M861.45,82.06h5.45v3.97c1.56-2.4,3.67-4.51,7.37-4.51,5.36,0,8.4,3.87,8.4,9.9v16.51h-5.41v-14.7c0-4.07-1.83-6.32-5.05-6.32s-5.32,2.35-5.32,6.42v14.6h-5.45v-25.87Z"/>
  <path class="st0" d="M890.32,100.77v-13.62h-2.99v-5.1h2.99v-7.1h5.41v7.1h6.35v5.1h-6.35v12.69c0,2.3,1.07,3.23,2.91,3.23,1.16,0,2.28-.29,3.35-.88v4.85c-1.39.83-2.77,1.32-4.87,1.32-3.98,0-6.79-1.91-6.79-7.59Z"/>
  <path class="st0" d="M905.61,95.09v-.1c0-7.45,4.78-13.47,11.53-13.47,7.51,0,11.31,6.47,11.31,13.92,0,.54-.04,1.08-.09,1.67h-17.34c.58,4.26,3.26,6.57,6.79,6.57,2.68,0,4.47-1.08,6.39-3.09l3.17,3.09c-2.28,2.94-5.32,4.85-9.65,4.85-6.79,0-12.11-5.44-12.11-13.42ZM923.08,93.18c-.36-3.77-2.41-6.81-5.99-6.81-3.35,0-5.63,2.74-6.12,6.81h12.11Z"/>
  <path class="st0" d="M933.1,101.16h5.94v6.76h-5.94v-6.76Z"/>
</svg>