<?xml version="1.0" encoding="UTF-8" standalone="no"?><!DOCTYPE svg PUBLIC "-//W3C//DTD SVG 1.1//EN" "http://www.w3.org/Graphics/SVG/1.1/DTD/svg11.dtd"><svg xmlns="http://www.w3.org/2000/svg" xmlns:xlink="http://www.w3.org/1999/xlink" version="1.1" width="991" height="122" viewBox="0 0 991 122">
<desc>Created with SVGMaker Editor 3.0.0</desc>
<defs>
</defs>
<path transform="translate(0,0)" style="fill: rgb(255,255,255)" stroke-linecap="round" d="M 23.27 32.07 L 23.27 31.97 C 23.27 22.22 29.93 14.23 39.36 14.23 C 45.17 14.23 48.66 16.43 51.65 19.57 L 48.12 24.03 C 45.57 21.48 42.94 19.82 39.32 19.82 C 33.42 19.82 29.04 25.16 29.04 31.87 L 29.04 31.97 C 29.04 38.68 33.37 44.12 39.36 44.12 C 43.16 44.12 45.66 42.45 48.34 39.71 L 51.87 43.63 C 48.7 47.4 44.99 49.71 39.18 49.71 C 30.06 49.71 23.27 41.92 23.27 32.07 Z"/>
<path transform="translate(0,0)" style="fill: rgb(255,255,255)" stroke-linecap="round" d="M 55.32 36.34 L 55.32 36.24 C 55.32 28.84 60.68 22.72 67.92 22.72 C 75.16 22.72 80.48 28.75 80.48 36.14 L 80.48 36.24 C 80.48 43.54 75.12 49.71 67.83 49.71 C 60.54 49.71 55.32 43.68 55.32 36.33 Z M 75.07 36.34 L 75.07 36.24 C 75.07 31.68 72.08 27.91 67.83 27.91 C 63.58 27.91 60.72 31.63 60.72 36.14 L 60.72 36.24 C 60.72 40.75 63.76 44.52 67.92 44.52 C 72.34 44.52 75.07 40.8 75.07 36.34 Z"/>
<path transform="translate(0,0)" style="fill: rgb(255,255,255)" stroke-linecap="round" d="M 85.93 23.26 L 91.38 23.26 L 91.38 27.23 C 92.94 24.83 95.05 22.72 98.75 22.72 C 104.11 22.72 107.15 26.59 107.15 32.62 L 107.15 49.13 L 101.74 49.13 L 101.74 34.43 C 101.74 30.36 99.91 28.11 96.69 28.11 C 93.47 28.11 91.37 30.46 91.37 34.53 L 91.37 49.13 L 85.92 49.13 L 85.92 23.26 Z"/>
<path transform="translate(0,0)" style="fill: rgb(255,255,255)" stroke-linecap="round" d="M 125.44 32.07 L 125.44 31.97 C 125.44 21.97 132.41 14.14 141.89 14.14 C 148.24 14.14 152.44 17.08 155.16 21.24 L 148.63 26.78 C 146.84 24.38 144.83 22.76 141.79 22.76 C 137.41 22.76 134.33 26.88 134.33 31.87 L 134.33 31.97 C 134.33 37.11 137.41 41.13 141.79 41.13 C 145.05 41.13 146.93 39.46 148.85 36.96 L 155.38 42.06 C 152.39 46.52 148.45 49.8 141.57 49.8 C 132.63 49.8 125.44 42.3 125.44 32.06 Z"/>
<path transform="translate(0,0)" style="fill: rgb(255,255,255)" stroke-linecap="round" d="M 157.27 35.99 L 157.27 35.89 C 157.27 28.3 162.9 22.02 170.63 22.02 C 178.36 22.02 183.95 28.24 183.95 35.79 L 183.95 35.89 C 183.95 43.48 178.27 49.76 170.54 49.76 C 162.81 49.76 157.27 43.59 157.27 35.99 Z M 175.73 35.99 L 175.73 35.89 C 175.73 32.61 173.58 29.86 170.55 29.86 C 167.52 29.86 165.5 32.51 165.5 35.79 L 165.5 35.89 C 165.5 39.12 167.65 41.87 170.64 41.87 C 173.63 41.87 175.73 39.17 175.73 35.99 Z"/>
<path transform="translate(0,0)" style="fill: rgb(255,255,255)" stroke-linecap="round" d="M 187.53 22.62 L 196.02 22.62 L 196.02 26.15 C 197.67 23.95 199.73 22.03 203.35 22.03 C 209.07 22.03 214.08 27.27 214.08 35.75 L 214.08 35.85 C 214.08 44.47 209.12 49.72 203.4 49.72 C 199.73 49.72 197.63 47.91 196.03 45.9 L 196.03 56.97 L 187.54 56.97 L 187.54 22.62 Z M 205.76 35.9 L 205.76 35.8 C 205.76 32.27 203.48 29.77 200.8 29.77 C 198.12 29.77 195.84 32.27 195.84 35.8 L 195.84 35.9 C 195.84 39.43 198.03 41.93 200.8 41.93 C 203.57 41.93 205.76 39.48 205.76 35.9 Z"/>
<path transform="translate(0,0)" style="fill: rgb(255,255,255)" stroke-linecap="round" d="M 217.79 13.36 L 226.59 13.36 L 226.59 20.22 L 217.79 20.22 L 217.79 13.36 Z M 217.96 22.62 L 226.41 22.62 L 226.41 49.13 L 217.96 49.13 L 217.96 22.62 Z"/>
<path transform="translate(0,0)" style="fill: rgb(255,255,255)" stroke-linecap="round" d="M 231.42 13.36 L 239.87 13.36 L 239.87 49.13 L 231.42 49.13 L 231.42 13.36 Z"/>
<path transform="translate(0,0)" style="fill: rgb(255,255,255)" stroke-linecap="round" d="M 243.71 35.99 L 243.71 35.89 C 243.71 28.3 249.34 22.02 257.07 22.02 C 264.8 22.02 270.39 28.24 270.39 35.79 L 270.39 35.89 C 270.39 43.48 264.71 49.76 256.98 49.76 C 249.25 49.76 243.71 43.59 243.71 35.99 Z M 262.17 35.99 L 262.17 35.89 C 262.17 32.61 260.02 29.86 256.99 29.86 C 253.96 29.86 251.94 32.51 251.94 35.79 L 251.94 35.89 C 251.94 39.12 254.09 41.87 257.08 41.87 C 260.07 41.87 262.17 39.17 262.17 35.99 Z"/>
<path transform="translate(0,0)" style="fill: rgb(255,255,255)" stroke-linecap="round" d="M 275.26 40.89 L 275.26 30.06 L 272.4 30.06 L 272.4 22.61 L 275.26 22.61 L 275.26 15.9 L 283.71 15.9 L 283.71 22.61 L 289.34 22.61 L 289.34 30.06 L 283.71 30.06 L 283.71 39.08 C 283.71 40.99 284.47 41.73 286.03 41.73 C 287.15 41.73 288.22 41.39 289.25 40.85 L 289.25 48.1 C 287.69 49.03 285.72 49.67 283.35 49.67 C 278.21 49.67 275.26 47.22 275.26 40.9 Z"/>
<path transform="translate(0,0)" style="fill: rgb(255,255,255)" stroke-linecap="round" d="M 301.14 35.99 L 293.27 35.99 L 293.27 27.76 L 301.14 27.76 L 301.14 19.23 L 308.92 19.23 L 308.92 27.76 L 316.79 27.76 L 316.79 35.99 L 308.92 35.99 L 308.92 44.52 L 301.14 44.52 L 301.14 35.99 Z"/>
<path transform="translate(0,0)" style="fill: rgb(255,255,255)" stroke-linecap="round" d="M 322.1 14.83 L 335.55 14.83 C 343.42 14.83 348.51 19.24 348.51 26.83 L 348.51 26.93 C 348.51 35.06 342.83 39.33 335.1 39.33 L 330.77 39.33 L 330.77 49.13 L 322.1 49.13 L 322.1 14.83 Z M 334.93 31.88 C 337.97 31.88 339.89 30.12 339.89 27.37 L 339.89 27.27 C 339.89 24.33 337.97 22.81 334.88 22.81 L 330.77 22.81 L 330.77 31.87 L 334.93 31.87 Z"/>
<path transform="translate(0,0)" style="fill: rgb(255,255,255)" stroke-linecap="round" d="M 351.16 32.07 L 351.16 31.97 C 351.16 21.97 358.13 14.14 367.61 14.14 C 373.96 14.14 378.16 17.08 380.88 21.24 L 374.35 26.78 C 372.56 24.38 370.55 22.76 367.51 22.76 C 363.13 22.76 360.05 26.88 360.05 31.87 L 360.05 31.97 C 360.05 37.11 363.13 41.13 367.51 41.13 C 370.77 41.13 372.65 39.46 374.57 36.96 L 381.1 42.06 C 378.11 46.52 374.17 49.8 367.29 49.8 C 358.35 49.8 351.16 42.3 351.16 32.06 Z"/>
<path transform="translate(0,0)" style="fill: rgb(255,255,255)" stroke-linecap="round" d="M 415.25 23.26 L 420.88 23.26 L 411.49 49.82 C 409.57 55.16 407.51 57.12 403.71 57.12 C 401.43 57.12 399.78 56.53 398.12 55.5 L 399.95 51.14 C 400.98 51.73 402.01 52.12 403.12 52.12 C 404.68 52.12 405.58 51.39 406.47 49.18 L 396.64 23.26 L 402.45 23.26 L 409.07 42.47 L 415.24 23.26 Z"/>
<path transform="translate(0,0)" style="fill: rgb(255,255,255)" stroke-linecap="round" d="M 439.21 13.36 L 444.66 13.36 L 444.66 49.13 L 439.21 49.13 L 439.21 13.36 Z"/>
<path transform="translate(0,0)" style="fill: rgb(255,255,255)" stroke-linecap="round" d="M 450.11 41.68 L 450.11 41.58 C 450.11 35.95 454.13 33.25 459.9 33.25 C 462.58 33.25 464.41 33.69 466.25 34.33 L 466.25 33.69 C 466.25 29.97 464.19 28.06 460.4 28.06 C 457.72 28.06 455.8 28.7 453.65 29.68 L 452.18 25.02 C 454.82 23.8 457.36 22.91 461.12 22.91 C 464.65 22.91 467.24 23.89 468.94 25.8 C 470.68 27.71 471.49 30.41 471.49 33.79 L 471.49 49.13 L 466.22 49.13 L 466.22 45.9 C 464.61 48.01 462.15 49.67 458.53 49.67 C 454.11 49.67 450.13 46.93 450.13 41.68 Z M 466.34 39.82 L 466.34 38.06 C 464.95 37.47 463.12 37.03 460.98 37.03 C 457.45 37.03 455.44 38.6 455.44 41.34 L 455.44 41.44 C 455.44 43.94 457.41 45.36 460.04 45.36 C 463.62 45.36 466.34 43.15 466.34 39.82 Z"/>
<path transform="translate(0,0)" style="fill: rgb(255,255,255)" stroke-linecap="round" d="M 491.32 23.26 L 496.77 23.26 L 496.77 27.57 C 498.51 24.88 500.93 22.72 504.81 22.72 C 510.35 22.72 515.76 27.52 515.76 36.14 L 515.76 36.24 C 515.76 44.86 510.4 49.66 504.81 49.66 C 500.88 49.66 498.42 47.5 496.77 45.1 L 496.77 56.96 L 491.32 56.96 L 491.32 23.26 Z M 510.27 36.24 L 510.27 36.14 C 510.27 31.14 507.14 27.86 503.52 27.86 C 499.9 27.86 496.64 31.19 496.64 36.14 L 496.64 36.24 C 496.64 41.19 499.81 44.52 503.52 44.52 C 507.23 44.52 510.27 41.34 510.27 36.24 Z"/>
<path transform="translate(0,0)" style="fill: rgb(255,255,255)" stroke-linecap="round" d="M 520.06 36.34 L 520.06 36.24 C 520.06 28.84 525.42 22.72 532.66 22.72 C 539.9 22.72 545.22 28.75 545.22 36.14 L 545.22 36.24 C 545.22 43.54 539.86 49.71 532.57 49.71 C 525.28 49.71 520.06 43.68 520.06 36.33 Z M 539.82 36.34 L 539.82 36.24 C 539.82 31.68 536.83 27.91 532.58 27.91 C 528.33 27.91 525.47 31.63 525.47 36.14 L 525.47 36.24 C 525.47 40.75 528.51 44.52 532.67 44.52 C 537.09 44.52 539.82 40.8 539.82 36.34 Z"/>
<path transform="translate(0,0)" style="fill: rgb(255,255,255)" stroke-linecap="round" d="M 551.84 41.97 L 551.84 28.35 L 548.85 28.35 L 548.85 23.25 L 551.84 23.25 L 551.84 16.15 L 557.25 16.15 L 557.25 23.25 L 563.6 23.25 L 563.6 28.35 L 557.25 28.35 L 557.25 41.04 C 557.25 43.34 558.32 44.27 560.16 44.27 C 561.32 44.27 562.44 43.98 563.51 43.39 L 563.51 48.24 C 562.12 49.07 560.74 49.56 558.64 49.56 C 554.66 49.56 551.85 47.65 551.85 41.97 Z"/>
<path transform="translate(0,0)" style="fill: rgb(255,255,255)" stroke-linecap="round" d="M 567.13 36.29 L 567.13 36.19 C 567.13 28.74 571.91 22.72 578.66 22.72 C 586.17 22.72 589.97 29.19 589.97 36.64 C 589.97 37.18 589.93 37.72 589.88 38.31 L 572.54 38.31 C 573.12 42.57 575.8 44.88 579.33 44.88 C 582.01 44.88 583.8 43.8 585.72 41.79 L 588.89 44.88 C 586.61 47.82 583.57 49.73 579.24 49.73 C 572.45 49.73 567.13 44.29 567.13 36.31 Z M 584.6 34.38 C 584.24 30.61 582.19 27.57 578.61 27.57 C 575.26 27.57 572.98 30.31 572.49 34.38 L 584.6 34.38 Z"/>
<path transform="translate(0,0)" style="fill: rgb(255,255,255)" stroke-linecap="round" d="M 595.37 23.26 L 600.82 23.26 L 600.82 27.23 C 602.38 24.83 604.49 22.72 608.19 22.72 C 613.55 22.72 616.59 26.59 616.59 32.62 L 616.59 49.13 L 611.18 49.13 L 611.18 34.43 C 611.18 30.36 609.35 28.11 606.13 28.11 C 602.91 28.11 600.81 30.46 600.81 34.53 L 600.81 49.13 L 595.36 49.13 L 595.36 23.26 Z"/>
<path transform="translate(0,0)" style="fill: rgb(255,255,255)" stroke-linecap="round" d="M 621.84 36.34 L 621.84 36.24 C 621.84 28.89 627.02 22.72 634.13 22.72 C 638.55 22.72 641.28 24.53 643.56 27.18 L 640.16 31.15 C 638.51 29.24 636.76 27.92 634.08 27.92 C 630.15 27.92 627.24 31.64 627.24 36.15 L 627.24 36.25 C 627.24 40.86 630.14 44.53 634.3 44.53 C 636.85 44.53 638.68 43.26 640.42 41.35 L 643.68 44.88 C 641.36 47.77 638.63 49.73 634.03 49.73 C 627.01 49.73 621.83 43.7 621.83 36.35 Z"/>
<path transform="translate(0,0)" style="fill: rgb(255,255,255)" stroke-linecap="round" d="M 648.74 13.65 L 654.55 13.65 L 654.55 19.28 L 648.74 19.28 L 648.74 13.65 Z M 648.92 23.26 L 654.37 23.26 L 654.37 49.13 L 648.92 49.13 L 648.92 23.26 Z"/>
<path transform="translate(0,0)" style="fill: rgb(255,255,255)" stroke-linecap="round" d="M 659.83 41.68 L 659.83 41.58 C 659.83 35.95 663.85 33.25 669.62 33.25 C 672.3 33.25 674.13 33.69 675.97 34.33 L 675.97 33.69 C 675.97 29.97 673.91 28.06 670.12 28.06 C 667.44 28.06 665.52 28.7 663.37 29.68 L 661.9 25.02 C 664.54 23.8 667.08 22.91 670.84 22.91 C 674.37 22.91 676.96 23.89 678.66 25.8 C 680.4 27.71 681.21 30.41 681.21 33.79 L 681.21 49.13 L 675.94 49.13 L 675.94 45.9 C 674.33 48.01 671.87 49.67 668.25 49.67 C 663.83 49.67 659.85 46.93 659.85 41.68 Z M 676.05 39.82 L 676.05 38.06 C 674.66 37.47 672.83 37.03 670.69 37.03 C 667.16 37.03 665.15 38.6 665.15 41.34 L 665.15 41.44 C 665.15 43.94 667.12 45.36 669.75 45.36 C 673.33 45.36 676.05 43.15 676.05 39.82 Z"/>
<path transform="translate(0,0)" style="fill: rgb(255,255,255)" stroke-linecap="round" d="M 699.87 36.24 L 699.87 36.14 C 699.87 27.52 705.19 22.72 710.82 22.72 C 714.66 22.72 717.21 24.83 718.86 27.28 L 718.86 13.37 L 724.27 13.37 L 724.27 49.14 L 718.86 49.14 L 718.86 44.83 C 717.12 47.52 714.61 49.68 710.82 49.68 C 705.28 49.68 699.87 44.88 699.87 36.26 Z M 718.96 36.24 L 718.96 36.14 C 718.96 31.14 715.74 27.86 712.12 27.86 C 708.5 27.86 705.33 31.05 705.33 36.14 L 705.33 36.24 C 705.33 41.24 708.41 44.52 712.12 44.52 C 715.83 44.52 718.96 41.19 718.96 36.24 Z"/>
<path transform="translate(0,0)" style="fill: rgb(255,255,255)" stroke-linecap="round" d="M 729.77 36.29 L 729.77 36.19 C 729.77 28.74 734.55 22.72 741.3 22.72 C 748.81 22.72 752.61 29.19 752.61 36.64 C 752.61 37.18 752.57 37.72 752.52 38.31 L 735.18 38.31 C 735.76 42.57 738.44 44.88 741.97 44.88 C 744.65 44.88 746.44 43.8 748.36 41.79 L 751.53 44.88 C 749.25 47.82 746.21 49.73 741.88 49.73 C 735.09 49.73 729.77 44.29 729.77 36.31 Z M 747.25 34.38 C 746.89 30.61 744.84 27.57 741.26 27.57 C 737.91 27.57 735.63 30.31 735.14 34.38 L 747.25 34.38 Z"/>
<path transform="translate(0,0)" style="fill: rgb(255,255,255)" stroke-linecap="round" d="M 785.29 42.46 L 770.09 42.46 L 768.71 35.75 L 784.93 14.58 L 793.64 14.58 L 793.64 35.35 L 797.62 35.35 L 797.62 42.45 L 793.64 42.45 L 793.64 49.11 L 785.28 49.11 L 785.28 42.45 Z M 785.29 35.41 L 785.29 25.51 L 777.78 35.41 L 785.29 35.41 Z"/>
<path transform="translate(0,0)" style="fill: rgb(255,255,255)" stroke-linecap="round" d="M 800.71 32.07 L 800.71 31.97 C 800.71 22.27 806.34 14.14 815.24 14.14 C 824.14 14.14 829.68 22.18 829.68 31.88 L 829.68 31.98 C 829.68 41.68 824.09 49.81 815.15 49.81 C 806.21 49.81 800.71 41.77 800.71 32.07 Z M 820.95 32.07 L 820.95 31.97 C 820.95 26.48 818.58 22.51 815.14 22.51 C 811.7 22.51 809.42 26.38 809.42 31.87 L 809.42 31.97 C 809.42 37.51 811.79 41.38 815.23 41.38 C 818.67 41.38 820.95 37.51 820.95 32.07 Z"/>
<path transform="translate(0,0)" style="fill: rgb(255,255,255)" stroke-linecap="round" d="M 855.32 23.16 L 845.98 23.16 L 845.98 14.83 L 873.38 14.83 L 873.38 23.16 L 863.99 23.16 L 863.99 49.13 L 855.32 49.13 L 855.32 23.16 Z"/>
<path transform="translate(0,0)" style="fill: rgb(255,255,255)" stroke-linecap="round" d="M 874.81 32.07 L 874.81 31.97 C 874.81 22.12 882.05 14.14 891.7 14.14 C 901.35 14.14 908.5 22.08 908.5 31.88 L 908.5 31.98 C 908.5 41.83 901.26 49.81 891.61 49.81 C 881.96 49.81 874.81 41.87 874.81 32.07 Z M 899.62 32.07 L 899.62 31.97 C 899.62 26.97 896.4 22.71 891.62 22.71 C 886.84 22.71 883.66 26.92 883.66 31.87 L 883.66 31.97 C 883.66 36.87 886.92 41.23 891.7 41.23 C 896.48 41.23 899.61 37.02 899.61 32.07 Z"/>
<path transform="translate(0,0)" style="fill: rgb(255,255,255)" stroke-linecap="round" d="M 912.98 14.83 L 926.43 14.83 C 934.3 14.83 939.39 19.24 939.39 26.83 L 939.39 26.93 C 939.39 35.06 933.71 39.33 925.98 39.33 L 921.65 39.33 L 921.65 49.13 L 912.98 49.13 L 912.98 14.83 Z M 925.81 31.88 C 928.85 31.88 930.77 30.12 930.77 27.37 L 930.77 27.27 C 930.77 24.33 928.85 22.81 925.76 22.81 L 921.65 22.81 L 921.65 31.87 L 925.81 31.87 Z"/>
<path transform="translate(0,0)" style="fill: rgb(255,255,255)" stroke-linecap="round" d="M 940.69 44.03 L 945.52 37.71 C 948.69 40.45 952.09 41.83 955.66 41.83 C 958.03 41.83 959.28 41 959.28 39.48 L 959.28 39.38 C 959.28 37.91 958.25 37.22 953.96 36.05 C 947.35 34.38 942.16 32.38 942.16 25.32 L 942.16 25.22 C 942.16 18.8 946.76 14.25 954.27 14.25 C 959.63 14.25 963.74 15.82 967.14 18.81 L 962.81 25.52 C 959.95 23.22 956.87 22.14 954.05 22.14 C 951.95 22.14 950.92 23.02 950.92 24.35 L 950.92 24.45 C 950.92 25.97 951.99 26.75 956.37 27.78 C 963.52 29.49 967.99 32.04 967.99 38.46 L 967.99 38.56 C 967.99 45.57 962.94 49.73 955.34 49.73 C 949.75 49.73 944.61 47.82 940.68 44.05 Z"/>
<path transform="translate(0,0)" style="fill: rgb(255,255,255)" stroke-linecap="round" d="M 50.18 95.04 L 50.18 94.94 C 50.18 86.32 55.5 81.52 61.13 81.52 C 64.97 81.52 67.52 83.63 69.17 86.08 L 69.17 72.17 L 74.58 72.17 L 74.58 107.94 L 69.17 107.94 L 69.17 103.63 C 67.43 106.32 64.92 108.48 61.13 108.48 C 55.59 108.48 50.18 103.68 50.18 95.06 Z M 69.26 95.04 L 69.26 94.94 C 69.26 89.94 66.04 86.66 62.42 86.66 C 58.8 86.66 55.63 89.85 55.63 94.94 L 55.63 95.04 C 55.63 100.04 58.71 103.32 62.42 103.32 C 66.13 103.32 69.26 99.99 69.26 95.04 Z"/>
<path transform="translate(0,0)" style="fill: rgb(255,255,255)" stroke-linecap="round" d="M 80.08 95.09 L 80.08 94.99 C 80.08 87.54 84.86 81.52 91.61 81.52 C 99.12 81.52 102.92 87.99 102.92 95.44 C 102.92 95.98 102.88 96.52 102.83 97.11 L 85.49 97.11 C 86.07 101.37 88.75 103.68 92.28 103.68 C 94.96 103.68 96.75 102.6 98.67 100.59 L 101.84 103.68 C 99.56 106.62 96.52 108.53 92.19 108.53 C 85.4 108.53 80.08 103.09 80.08 95.11 Z M 97.55 93.18 C 97.19 89.41 95.14 86.37 91.56 86.37 C 88.21 86.37 85.93 89.11 85.44 93.18 L 97.55 93.18 Z"/>
<path transform="translate(0,0)" style="fill: rgb(255,255,255)" stroke-linecap="round" d="M 131.97 73.38 L 140.33 73.38 L 153.65 107.92 L 144.35 107.92 L 142.12 101.75 L 130.01 101.75 L 127.78 107.92 L 118.71 107.92 L 131.98 73.38 Z M 139.57 94.35 L 136.08 84.65 L 132.55 94.35 L 139.57 94.35 Z"/>
<path transform="translate(0,0)" style="fill: rgb(255,255,255)" stroke-linecap="round" d="M 156.68 73.63 L 165.84 73.63 L 173.3 86.91 L 180.76 73.63 L 189.92 73.63 L 189.92 107.93 L 181.29 107.93 L 181.29 88.23 L 173.29 101.65 L 173.11 101.65 L 165.15 88.27 L 165.15 107.92 L 156.66 107.92 L 156.66 73.62 Z"/>
<path transform="translate(0,0)" style="fill: rgb(255,255,255)" stroke-linecap="round" d="M 195.48 73.63 L 207.59 73.63 C 218.72 73.63 225.2 80.64 225.2 90.58 L 225.2 90.68 C 225.2 100.63 218.63 107.93 207.41 107.93 L 195.48 107.93 L 195.48 73.63 Z M 204.15 82.01 L 204.15 99.5 L 207.68 99.5 C 212.91 99.5 216.35 96.36 216.35 90.83 L 216.35 90.73 C 216.35 85.19 212.91 82.01 207.68 82.01 L 204.15 82.01 Z"/>
<path transform="translate(0,0)" style="fill: rgb(255,255,255)" stroke-linecap="round" d="M 241.52 82.06 L 247.33 82.06 L 253.68 101.07 L 260.07 82.06 L 265.75 82.06 L 256.1 108.13 L 251.23 108.13 L 241.53 82.06 Z"/>
<path transform="translate(0,0)" style="fill: rgb(255,255,255)" stroke-linecap="round" d="M 267.62 100.48 L 267.62 100.38 C 267.62 94.75 271.64 92.05 277.41 92.05 C 280.09 92.05 281.92 92.49 283.76 93.13 L 283.76 92.49 C 283.76 88.77 281.7 86.86 277.91 86.86 C 275.23 86.86 273.31 87.5 271.16 88.48 L 269.69 83.82 C 272.33 82.6 274.87 81.71 278.63 81.71 C 282.16 81.71 284.75 82.69 286.45 84.6 C 288.19 86.51 289 89.21 289 92.59 L 289 107.93 L 283.73 107.93 L 283.73 104.7 C 282.12 106.81 279.66 108.47 276.04 108.47 C 271.62 108.47 267.64 105.73 267.64 100.48 Z M 283.84 98.62 L 283.84 96.86 C 282.45 96.27 280.62 95.83 278.48 95.83 C 274.95 95.83 272.94 97.4 272.94 100.14 L 272.94 100.24 C 272.94 102.74 274.91 104.16 277.54 104.16 C 281.12 104.16 283.84 101.95 283.84 98.62 Z"/>
<path transform="translate(0,0)" style="fill: rgb(255,255,255)" stroke-linecap="round" d="M 295.73 72.16 L 301.18 72.16 L 301.18 107.93 L 295.73 107.93 L 295.73 72.16 Z"/>
<path transform="translate(0,0)" style="fill: rgb(255,255,255)" stroke-linecap="round" d="M 308.34 72.45 L 314.15 72.45 L 314.15 78.08 L 308.34 78.08 L 308.34 72.45 Z M 308.52 82.06 L 313.97 82.06 L 313.97 107.93 L 308.52 107.93 L 308.52 82.06 Z"/>
<path transform="translate(0,0)" style="fill: rgb(255,255,255)" stroke-linecap="round" d="M 319.83 95.04 L 319.83 94.94 C 319.83 86.32 325.15 81.52 330.78 81.52 C 334.62 81.52 337.17 83.63 338.82 86.08 L 338.82 72.17 L 344.23 72.17 L 344.23 107.94 L 338.82 107.94 L 338.82 103.63 C 337.08 106.32 334.57 108.48 330.78 108.48 C 325.24 108.48 319.83 103.68 319.83 95.06 Z M 338.91 95.04 L 338.91 94.94 C 338.91 89.94 335.69 86.66 332.07 86.66 C 328.45 86.66 325.28 89.85 325.28 94.94 L 325.28 95.04 C 325.28 100.04 328.36 103.32 332.07 103.32 C 335.78 103.32 338.91 99.99 338.91 95.04 Z"/>
<path transform="translate(0,0)" style="fill: rgb(255,255,255)" stroke-linecap="round" d="M 349.41 100.48 L 349.41 100.38 C 349.41 94.75 353.43 92.05 359.2 92.05 C 361.88 92.05 363.71 92.49 365.55 93.13 L 365.55 92.49 C 365.55 88.77 363.49 86.86 359.7 86.86 C 357.02 86.86 355.1 87.5 352.95 88.48 L 351.48 83.82 C 354.12 82.6 356.66 81.71 360.42 81.71 C 363.95 81.71 366.54 82.69 368.24 84.6 C 369.98 86.51 370.79 89.21 370.79 92.59 L 370.79 107.93 L 365.52 107.93 L 365.52 104.7 C 363.91 106.81 361.45 108.47 357.83 108.47 C 353.41 108.47 349.43 105.73 349.43 100.48 Z M 365.64 98.62 L 365.64 96.86 C 364.25 96.27 362.42 95.83 360.28 95.83 C 356.75 95.83 354.74 97.4 354.74 100.14 L 354.74 100.24 C 354.74 102.74 356.71 104.16 359.34 104.16 C 362.92 104.16 365.64 101.95 365.64 98.62 Z"/>
<path transform="translate(0,0)" style="fill: rgb(255,255,255)" stroke-linecap="round" d="M 375.34 104.54 L 377.75 100.52 C 380.39 102.63 383.02 103.7 385.48 103.7 C 387.8 103.7 389.15 102.62 389.15 100.91 L 389.15 100.81 C 389.15 98.85 386.65 98.12 383.88 97.18 C 380.44 96.15 376.51 94.53 376.51 89.64 L 376.51 89.54 C 376.51 84.59 380.22 81.6 384.91 81.6 C 387.9 81.6 391.08 82.73 393.58 84.54 L 391.43 88.75 C 389.15 87.23 386.74 86.3 384.77 86.3 C 382.67 86.3 381.46 87.43 381.46 88.85 L 381.46 88.95 C 381.46 90.81 384.01 91.69 386.78 92.62 C 390.18 93.8 394.11 95.51 394.11 100.17 L 394.11 100.27 C 394.11 105.71 390.27 108.4 385.35 108.4 C 381.95 108.4 378.33 107.13 375.34 104.53 Z"/>
<path transform="translate(0,0)" style="fill: rgb(255,255,255)" stroke-linecap="round" d="M 411.76 95.14 L 411.76 95.04 C 411.76 87.69 416.94 81.52 424.05 81.52 C 428.47 81.52 431.2 83.33 433.48 85.98 L 430.08 89.95 C 428.43 88.04 426.68 86.72 424 86.72 C 420.07 86.72 417.16 90.44 417.16 94.95 L 417.16 95.05 C 417.16 99.66 420.06 103.33 424.22 103.33 C 426.77 103.33 428.6 102.06 430.34 100.15 L 433.6 103.68 C 431.28 106.57 428.55 108.53 423.95 108.53 C 416.93 108.53 411.75 102.5 411.75 95.15 Z"/>
<path transform="translate(0,0)" style="fill: rgb(255,255,255)" stroke-linecap="round" d="M 436.97 100.48 L 436.97 100.38 C 436.97 94.75 440.99 92.05 446.76 92.05 C 449.44 92.05 451.27 92.49 453.11 93.13 L 453.11 92.49 C 453.11 88.77 451.05 86.86 447.26 86.86 C 444.58 86.86 442.66 87.5 440.51 88.48 L 439.04 83.82 C 441.68 82.6 444.22 81.71 447.98 81.71 C 451.51 81.71 454.1 82.69 455.8 84.6 C 457.54 86.51 458.35 89.21 458.35 92.59 L 458.35 107.93 L 453.08 107.93 L 453.08 104.7 C 451.47 106.81 449.01 108.47 445.39 108.47 C 440.97 108.47 436.99 105.73 436.99 100.48 Z M 453.2 98.62 L 453.2 96.86 C 451.81 96.27 449.98 95.83 447.84 95.83 C 444.31 95.83 442.3 97.4 442.3 100.14 L 442.3 100.24 C 442.3 102.74 444.27 104.16 446.9 104.16 C 450.48 104.16 453.2 101.95 453.2 98.62 Z"/>
<path transform="translate(0,0)" style="fill: rgb(255,255,255)" stroke-linecap="round" d="M 463.61 95.04 L 463.61 94.94 C 463.61 86.32 468.93 81.52 474.56 81.52 C 478.4 81.52 480.95 83.63 482.6 86.08 L 482.6 72.17 L 488.01 72.17 L 488.01 107.94 L 482.6 107.94 L 482.6 103.63 C 480.86 106.32 478.35 108.48 474.56 108.48 C 469.02 108.48 463.61 103.68 463.61 95.06 Z M 482.69 95.04 L 482.69 94.94 C 482.69 89.94 479.47 86.66 475.85 86.66 C 472.23 86.66 469.06 89.85 469.06 94.94 L 469.06 95.04 C 469.06 100.04 472.14 103.32 475.85 103.32 C 479.56 103.32 482.69 99.99 482.69 95.04 Z"/>
<path transform="translate(0,0)" style="fill: rgb(255,255,255)" stroke-linecap="round" d="M 493.2 100.48 L 493.2 100.38 C 493.2 94.75 497.22 92.05 502.99 92.05 C 505.67 92.05 507.5 92.49 509.34 93.13 L 509.34 92.49 C 509.34 88.77 507.28 86.86 503.49 86.86 C 500.81 86.86 498.89 87.5 496.74 88.48 L 495.27 83.82 C 497.91 82.6 500.45 81.71 504.21 81.71 C 507.74 81.71 510.33 82.69 512.03 84.6 C 513.77 86.51 514.58 89.21 514.58 92.59 L 514.58 107.93 L 509.31 107.93 L 509.31 104.7 C 507.7 106.81 505.24 108.47 501.62 108.47 C 497.2 108.47 493.22 105.73 493.22 100.48 Z M 509.42 98.62 L 509.42 96.86 C 508.03 96.27 506.2 95.83 504.06 95.83 C 500.53 95.83 498.52 97.4 498.52 100.14 L 498.52 100.24 C 498.52 102.74 500.49 104.16 503.12 104.16 C 506.7 104.16 509.42 101.95 509.42 98.62 Z"/>
<path transform="translate(0,0)" style="fill: rgb(255,255,255)" stroke-linecap="round" d="M 533.25 95.04 L 533.25 94.94 C 533.25 86.32 538.57 81.52 544.2 81.52 C 548.04 81.52 550.59 83.63 552.24 86.08 L 552.24 72.17 L 557.65 72.17 L 557.65 107.94 L 552.24 107.94 L 552.24 103.63 C 550.5 106.32 547.99 108.48 544.2 108.48 C 538.66 108.48 533.25 103.68 533.25 95.06 Z M 552.33 95.04 L 552.33 94.94 C 552.33 89.94 549.11 86.66 545.49 86.66 C 541.87 86.66 538.7 89.85 538.7 94.94 L 538.7 95.04 C 538.7 100.04 541.78 103.32 545.49 103.32 C 549.2 103.32 552.33 99.99 552.33 95.04 Z"/>
<path transform="translate(0,0)" style="fill: rgb(255,255,255)" stroke-linecap="round" d="M 563.15 95.09 L 563.15 94.99 C 563.15 87.54 567.93 81.52 574.68 81.52 C 582.19 81.52 585.99 87.99 585.99 95.44 C 585.99 95.98 585.95 96.52 585.9 97.11 L 568.56 97.11 C 569.14 101.37 571.82 103.68 575.35 103.68 C 578.03 103.68 579.82 102.6 581.74 100.59 L 584.91 103.68 C 582.63 106.62 579.59 108.53 575.26 108.53 C 568.47 108.53 563.15 103.09 563.15 95.11 Z M 580.62 93.18 C 580.26 89.41 578.21 86.37 574.63 86.37 C 571.28 86.37 569 89.11 568.51 93.18 L 580.62 93.18 Z"/>
<path transform="translate(0,0)" style="fill: rgb(255,255,255)" stroke-linecap="round" d="M 592.56 100.77 L 592.56 87.15 L 589.57 87.15 L 589.57 82.05 L 592.56 82.05 L 592.56 74.95 L 597.97 74.95 L 597.97 82.05 L 604.32 82.05 L 604.32 87.15 L 597.97 87.15 L 597.97 99.84 C 597.97 102.14 599.04 103.07 600.88 103.07 C 602.04 103.07 603.16 102.78 604.23 102.19 L 604.23 107.04 C 602.84 107.87 601.46 108.36 599.36 108.36 C 595.38 108.36 592.57 106.45 592.57 100.77 Z"/>
<path transform="translate(0,0)" style="fill: rgb(255,255,255)" stroke-linecap="round" d="M 608.2 100.48 L 608.2 100.38 C 608.2 94.75 612.22 92.05 617.99 92.05 C 620.67 92.05 622.5 92.49 624.34 93.13 L 624.34 92.49 C 624.34 88.77 622.28 86.86 618.49 86.86 C 615.81 86.86 613.89 87.5 611.74 88.48 L 610.27 83.82 C 612.91 82.6 615.45 81.71 619.21 81.71 C 622.74 81.71 625.33 82.69 627.03 84.6 C 628.77 86.51 629.58 89.21 629.58 92.59 L 629.58 107.93 L 624.31 107.93 L 624.31 104.7 C 622.7 106.81 620.24 108.47 616.62 108.47 C 612.2 108.47 608.22 105.73 608.22 100.48 Z M 624.43 98.62 L 624.43 96.86 C 623.04 96.27 621.21 95.83 619.07 95.83 C 615.54 95.83 613.53 97.4 613.53 100.14 L 613.53 100.24 C 613.53 102.74 615.5 104.16 618.13 104.16 C 621.71 104.16 624.43 101.95 624.43 98.62 Z"/>
<path transform="translate(0,0)" style="fill: rgb(255,255,255)" stroke-linecap="round" d="M 636.32 72.16 L 641.77 72.16 L 641.77 107.93 L 636.32 107.93 L 636.32 72.16 Z"/>
<path transform="translate(0,0)" style="fill: rgb(255,255,255)" stroke-linecap="round" d="M 649.1 72.16 L 654.55 72.16 L 654.55 107.93 L 649.1 107.93 L 649.1 72.16 Z"/>
<path transform="translate(0,0)" style="fill: rgb(255,255,255)" stroke-linecap="round" d="M 660.32 95.09 L 660.32 94.99 C 660.32 87.54 665.1 81.52 671.85 81.52 C 679.36 81.52 683.16 87.99 683.16 95.44 C 683.16 95.98 683.12 96.52 683.07 97.11 L 665.73 97.11 C 666.31 101.37 668.99 103.68 672.52 103.68 C 675.2 103.68 676.99 102.6 678.91 100.59 L 682.08 103.68 C 679.8 106.62 676.76 108.53 672.43 108.53 C 665.64 108.53 660.32 103.09 660.32 95.11 Z M 677.79 93.18 C 677.43 89.41 675.38 86.37 671.8 86.37 C 668.45 86.37 666.17 89.11 665.68 93.18 L 677.79 93.18 Z"/>
<path transform="translate(0,0)" style="fill: rgb(255,255,255)" stroke-linecap="round" d="M 700.41 100.48 L 700.41 100.38 C 700.41 94.75 704.43 92.05 710.2 92.05 C 712.88 92.05 714.71 92.49 716.55 93.13 L 716.55 92.49 C 716.55 88.77 714.49 86.86 710.7 86.86 C 708.02 86.86 706.1 87.5 703.95 88.48 L 702.48 83.82 C 705.12 82.6 707.66 81.71 711.42 81.71 C 714.95 81.71 717.54 82.69 719.24 84.6 C 720.98 86.51 721.79 89.21 721.79 92.59 L 721.79 107.93 L 716.52 107.93 L 716.52 104.7 C 714.91 106.81 712.45 108.47 708.83 108.47 C 704.41 108.47 700.43 105.73 700.43 100.48 Z M 716.63 98.62 L 716.63 96.86 C 715.24 96.27 713.41 95.83 711.27 95.83 C 707.74 95.83 705.73 97.4 705.73 100.14 L 705.73 100.24 C 705.73 102.74 707.7 104.16 710.33 104.16 C 713.91 104.16 716.63 101.95 716.63 98.62 Z"/>
<path transform="translate(0,0)" style="fill: rgb(255,255,255)" stroke-linecap="round" d="M 728.52 72.16 L 733.97 72.16 L 733.97 107.93 L 728.52 107.93 L 728.52 72.16 Z"/>
<path transform="translate(0,0)" style="fill: rgb(255,255,255)" stroke-linecap="round" d="M 754.54 72.45 L 760.35 72.45 L 760.35 78.08 L 754.54 78.08 L 754.54 72.45 Z M 754.71 82.06 L 760.16 82.06 L 760.16 107.93 L 754.71 107.93 L 754.71 82.06 Z"/>
<path transform="translate(0,0)" style="fill: rgb(255,255,255)" stroke-linecap="round" d="M 767.18 82.06 L 772.63 82.06 L 772.63 86.03 C 774.19 83.63 776.3 81.52 780 81.52 C 785.36 81.52 788.4 85.39 788.4 91.42 L 788.4 107.93 L 782.99 107.93 L 782.99 93.23 C 782.99 89.16 781.16 86.91 777.94 86.91 C 774.72 86.91 772.62 89.26 772.62 93.33 L 772.62 107.93 L 767.17 107.93 L 767.17 82.06 Z"/>
<path transform="translate(0,0)" style="fill: rgb(255,255,255)" stroke-linecap="round" d="M 793.02 104.54 L 795.43 100.52 C 798.07 102.63 800.7 103.7 803.16 103.7 C 805.48 103.7 806.83 102.62 806.83 100.91 L 806.83 100.81 C 806.83 98.85 804.33 98.12 801.56 97.18 C 798.12 96.15 794.19 94.53 794.19 89.64 L 794.19 89.54 C 794.19 84.59 797.9 81.6 802.59 81.6 C 805.58 81.6 808.76 82.73 811.26 84.54 L 809.11 88.75 C 806.83 87.23 804.42 86.3 802.45 86.3 C 800.35 86.3 799.14 87.43 799.14 88.85 L 799.14 88.95 C 799.14 90.81 801.69 91.69 804.46 92.62 C 807.86 93.8 811.79 95.51 811.79 100.17 L 811.79 100.27 C 811.79 105.71 807.95 108.4 803.03 108.4 C 799.63 108.4 796.01 107.13 793.02 104.53 Z"/>
<path transform="translate(0,0)" style="fill: rgb(255,255,255)" stroke-linecap="round" d="M 818 100.77 L 818 87.15 L 815.01 87.15 L 815.01 82.05 L 818 82.05 L 818 74.95 L 823.41 74.95 L 823.41 82.05 L 829.76 82.05 L 829.76 87.15 L 823.41 87.15 L 823.41 99.84 C 823.41 102.14 824.48 103.07 826.32 103.07 C 827.48 103.07 828.6 102.78 829.67 102.19 L 829.67 107.04 C 828.28 107.87 826.9 108.36 824.8 108.36 C 820.82 108.36 818.01 106.45 818.01 100.77 Z"/>
<path transform="translate(0,0)" style="fill: rgb(255,255,255)" stroke-linecap="round" d="M 833.65 100.48 L 833.65 100.38 C 833.65 94.75 837.67 92.05 843.44 92.05 C 846.12 92.05 847.95 92.49 849.79 93.13 L 849.79 92.49 C 849.79 88.77 847.73 86.86 843.94 86.86 C 841.26 86.86 839.34 87.5 837.19 88.48 L 835.72 83.82 C 838.36 82.6 840.9 81.71 844.66 81.71 C 848.19 81.71 850.78 82.69 852.48 84.6 C 854.22 86.51 855.03 89.21 855.03 92.59 L 855.03 107.93 L 849.76 107.93 L 849.76 104.7 C 848.15 106.81 845.69 108.47 842.07 108.47 C 837.65 108.47 833.67 105.73 833.67 100.48 Z M 849.87 98.62 L 849.87 96.86 C 848.48 96.27 846.65 95.83 844.51 95.83 C 840.98 95.83 838.97 97.4 838.97 100.14 L 838.97 100.24 C 838.97 102.74 840.94 104.16 843.57 104.16 C 847.15 104.16 849.87 101.95 849.87 98.62 Z"/>
<path transform="translate(0,0)" style="fill: rgb(255,255,255)" stroke-linecap="round" d="M 861.45 82.06 L 866.9 82.06 L 866.9 86.03 C 868.46 83.63 870.57 81.52 874.27 81.52 C 879.63 81.52 882.67 85.39 882.67 91.42 L 882.67 107.93 L 877.26 107.93 L 877.26 93.23 C 877.26 89.16 875.43 86.91 872.21 86.91 C 868.99 86.91 866.89 89.26 866.89 93.33 L 866.89 107.93 L 861.44 107.93 L 861.44 82.06 Z"/>
<path transform="translate(0,0)" style="fill: rgb(255,255,255)" stroke-linecap="round" d="M 890.32 100.77 L 890.32 87.15 L 887.33 87.15 L 887.33 82.05 L 890.32 82.05 L 890.32 74.95 L 895.73 74.95 L 895.73 82.05 L 902.08 82.05 L 902.08 87.15 L 895.73 87.15 L 895.73 99.84 C 895.73 102.14 896.8 103.07 898.64 103.07 C 899.8 103.07 900.92 102.78 901.99 102.19 L 901.99 107.04 C 900.6 107.87 899.22 108.36 897.12 108.36 C 893.14 108.36 890.33 106.45 890.33 100.77 Z"/>
<path transform="translate(0,0)" style="fill: rgb(255,255,255)" stroke-linecap="round" d="M 905.61 95.09 L 905.61 94.99 C 905.61 87.54 910.39 81.52 917.14 81.52 C 924.65 81.52 928.45 87.99 928.45 95.44 C 928.45 95.98 928.41 96.52 928.36 97.11 L 911.02 97.11 C 911.6 101.37 914.28 103.68 917.81 103.68 C 920.49 103.68 922.28 102.6 924.2 100.59 L 927.37 103.68 C 925.09 106.62 922.05 108.53 917.72 108.53 C 910.93 108.53 905.61 103.09 905.61 95.11 Z M 923.08 93.18 C 922.72 89.41 920.67 86.37 917.09 86.37 C 913.74 86.37 911.46 89.11 910.97 93.18 L 923.08 93.18 Z"/>
<path transform="translate(0,0)" style="fill: rgb(255,255,255)" stroke-linecap="round" d="M 933.1 101.16 L 939.04 101.16 L 939.04 107.92 L 933.1 107.92 L 933.1 101.16 Z"/>
</svg>