<?xml version="1.0" encoding="UTF-8"?>
<svg id="Layer_1" xmlns="http://www.w3.org/2000/svg" version="1.1" viewBox="0 0 1560.83 121.87">
  <!-- Generator: Adobe Illustrator 29.7.1, SVG Export Plug-In . SVG Version: 2.1.1 Build 8)  -->
  <defs>
    <style>
      .st0 {
        fill: #fff;
      }
    </style>
  </defs>
  <path class="st0" d="M10.87,11.86h23.2v5.39h-17.7v8.92h15.69v5.44h-15.69v9.16h17.92v5.39H10.87V11.86Z"/>
  <path class="st0" d="M39.25,20.29h5.45v3.97c1.56-2.4,3.67-4.51,7.37-4.51,5.36,0,8.4,3.87,8.4,9.9v16.51h-5.41v-14.7c0-4.07-1.83-6.32-5.05-6.32s-5.32,2.35-5.32,6.42v14.6h-5.45v-25.87Z"/>
  <path class="st0" d="M78.99,11.86h6.88v27.44h15.6v6.86h-22.48V11.86Z"/>
  <path class="st0" d="M103.43,33.18v-.1c0-7.5,4.87-13.67,11.84-13.67,8,0,11.67,6.81,11.67,14.26,0,.59-.04,1.22-.09,1.96h-16.67c.67,3.38,2.82,5.14,5.85,5.14,2.28,0,3.89-.78,5.81-2.69l3.89,3.77c-2.28,3.09-5.45,4.9-9.79,4.9-7.2,0-12.51-5.54-12.51-13.57ZM120.33,30.97c-.4-3.33-2.19-5.59-5.05-5.59s-4.65,2.21-5.18,5.59h10.24Z"/>
  <path class="st0" d="M131.1,19.9h6.79v3.72c1.56-2.21,3.62-4.21,7.02-4.21,5.18,0,8.13,3.67,8.13,9.75v17h-6.79v-14.65c0-3.53-1.48-5.34-4.11-5.34s-4.25,1.81-4.25,5.34v14.65h-6.79v-26.26Z"/>
  <path class="st0" d="M156.89,33.18v-.1c0-7.54,5.54-13.67,13.01-13.67s12.92,5.98,12.92,13.57v.1c0,7.55-5.54,13.67-13.01,13.67s-12.92-5.98-12.92-13.57ZM176.11,33.18v-.1c0-3.87-2.55-7.25-6.3-7.25s-6.21,3.23-6.21,7.15v.1c0,3.87,2.55,7.25,6.3,7.25s6.21-3.23,6.21-7.15Z"/>
  <path class="st0" d="M183.35,19.9h7.2l5.36,17.59,5.41-17.59h7.06l-9.43,26.46h-6.17l-9.43-26.46Z"/>
  <path class="st0" d="M208.92,33.18v-.1c0-7.54,5.54-13.67,13.01-13.67s12.92,5.98,12.92,13.57v.1c0,7.55-5.54,13.67-13.01,13.67s-12.92-5.98-12.92-13.57ZM228.13,33.18v-.1c0-3.87-2.55-7.25-6.3-7.25s-6.21,3.23-6.21,7.15v.1c0,3.87,2.55,7.25,6.3,7.25s6.21-3.23,6.21-7.15Z"/>
  <path class="st0" d="M249.95,41.16l4.07-5.34c2.86,2.55,5.77,4.16,9.34,4.16,2.86,0,4.51-1.22,4.51-3.23v-.1c0-1.91-1.07-2.94-6.3-4.36-6.35-1.71-10.37-3.72-10.37-10.48v-.1c0-6.22,4.51-10.34,10.95-10.34,4.6,0,8.4,1.57,11.62,4.36l-3.58,5.68c-2.82-2.11-5.45-3.38-8.13-3.38s-4.02,1.27-4.02,2.99v.1c0,2.3,1.34,2.94,6.75,4.51,6.35,1.86,9.92,4.31,9.92,10.29v.1c0,6.81-4.74,10.63-11.49,10.63-4.78,0-9.52-1.76-13.27-5.49Z"/>
  <path class="st0" d="M277.93,33.18v-.1c0-7.5,4.87-13.67,11.84-13.67,8,0,11.67,6.81,11.67,14.26,0,.59-.04,1.22-.09,1.96h-16.67c.67,3.38,2.82,5.14,5.85,5.14,2.28,0,3.89-.78,5.81-2.69l3.89,3.77c-2.28,3.09-5.45,4.9-9.79,4.9-7.2,0-12.51-5.54-12.51-13.57ZM294.82,30.97c-.4-3.33-2.19-5.59-5.05-5.59s-4.65,2.21-5.18,5.59h10.24Z"/>
  <path class="st0" d="M305.59,19.9h6.79v5.29c1.39-3.58,3.58-5.98,7.64-5.78v7.79h-.36c-4.51,0-7.29,2.94-7.29,9.26v9.7h-6.79v-26.26Z"/>
  <path class="st0" d="M321.23,19.9h7.2l5.36,17.59,5.41-17.59h7.06l-9.43,26.46h-6.17l-9.43-26.46Z"/>
  <path class="st0" d="M349.44,10.4h7.15v6.61h-7.15v-6.61ZM349.62,19.9h6.79v26.26h-6.79v-26.26Z"/>
  <path class="st0" d="M360.75,33.18v-.1c0-7.5,5.23-13.67,12.56-13.67,4.51,0,7.29,1.67,9.56,4.41l-4.16,4.9c-1.56-1.76-2.99-2.89-5.45-2.89-3.4,0-5.81,3.23-5.81,7.15v.1c0,4.07,2.37,7.25,6.08,7.25,2.28,0,3.84-1.08,5.5-2.79l3.98,4.41c-2.32,2.79-5,4.8-9.79,4.8-7.2,0-12.47-6.12-12.47-13.57Z"/>
  <path class="st0" d="M384.7,33.18v-.1c0-7.5,4.87-13.67,11.84-13.67,8,0,11.67,6.81,11.67,14.26,0,.59-.04,1.22-.09,1.96h-16.67c.67,3.38,2.82,5.14,5.85,5.14,2.28,0,3.89-.78,5.81-2.69l3.89,3.77c-2.28,3.09-5.45,4.9-9.79,4.9-7.2,0-12.51-5.54-12.51-13.57ZM401.6,30.97c-.4-3.33-2.19-5.59-5.05-5.59s-4.65,2.21-5.18,5.59h10.24Z"/>
  <path class="st0" d="M425.6,11.86h12.2c9.83,0,16.63,7.4,16.63,17.05v.1c0,9.65-6.79,17.15-16.63,17.15h-12.2V11.86ZM432.48,18.68v20.68h5.32c5.59,0,9.43-4.16,9.43-10.24v-.1c0-6.08-3.84-10.34-9.43-10.34h-5.32Z"/>
  <path class="st0" d="M457.78,33.18v-.1c0-7.5,4.87-13.67,11.84-13.67,8,0,11.67,6.81,11.67,14.26,0,.59-.04,1.22-.09,1.96h-16.67c.67,3.38,2.82,5.14,5.85,5.14,2.28,0,3.89-.78,5.81-2.69l3.89,3.77c-2.28,3.09-5.45,4.9-9.79,4.9-7.2,0-12.51-5.54-12.51-13.57ZM474.67,30.97c-.4-3.33-2.19-5.59-5.05-5.59s-4.65,2.21-5.18,5.59h10.24Z"/>
  <path class="st0" d="M483.57,42.68l2.91-4.9c2.64,2.11,5.27,3.14,7.55,3.14,1.97,0,2.86-.78,2.86-1.96v-.1c0-1.62-2.32-2.11-4.96-3.04-3.35-1.03-7.15-2.79-7.15-7.89v-.1c0-5.34,3.93-8.33,8.76-8.33,3.04,0,6.3,1.13,8.94,3.04l-2.59,5.14c-2.37-1.52-4.74-2.45-6.48-2.45-1.65,0-2.5.78-2.5,1.81v.1c0,1.37,2.28,2.25,4.87,3.14,3.35,1.18,7.24,2.99,7.24,7.79v.1c0,5.83-3.98,8.48-9.16,8.48-3.4,0-7.06-1.23-10.28-3.97Z"/>
  <path class="st0" d="M506.99,10.4h6.79v19.06l7.96-9.55h8.13l-9.12,10.34,9.43,15.92h-7.87l-6.12-10.78-2.41,2.79v7.99h-6.79V10.4Z"/>
  <path class="st0" d="M543.51,42.78l2.41-4.02c2.64,2.11,5.27,3.18,7.73,3.18,2.32,0,3.67-1.08,3.67-2.79v-.1c0-1.96-2.5-2.69-5.27-3.63-3.44-1.03-7.38-2.65-7.38-7.54v-.1c0-4.95,3.71-7.94,8.4-7.94,2.99,0,6.17,1.13,8.67,2.94l-2.15,4.21c-2.28-1.52-4.69-2.45-6.66-2.45-2.1,0-3.31,1.13-3.31,2.55v.1c0,1.86,2.55,2.74,5.32,3.67,3.4,1.18,7.33,2.89,7.33,7.55v.1c0,5.44-3.84,8.13-8.76,8.13-3.4,0-7.02-1.27-10.01-3.87Z"/>
  <path class="st0" d="M567.02,10.69h5.81v5.63h-5.81v-5.63ZM567.19,20.29h5.45v25.87h-5.45v-25.87Z"/>
  <path class="st0" d="M577.52,33.32v-.1c0-7.45,4.78-13.47,11.53-13.47,7.51,0,11.31,6.47,11.31,13.92,0,.54-.04,1.08-.09,1.67h-17.34c.58,4.26,3.26,6.57,6.79,6.57,2.68,0,4.47-1.08,6.39-3.09l3.17,3.09c-2.28,2.94-5.32,4.85-9.65,4.85-6.79,0-12.11-5.44-12.11-13.42ZM594.99,31.41c-.36-3.77-2.41-6.81-5.99-6.81-3.35,0-5.63,2.74-6.12,6.81h12.11Z"/>
  <path class="st0" d="M604.87,20.29h5.45v3.92c1.52-2.3,3.58-4.46,7.2-4.46,3.4,0,5.81,1.81,7.06,4.56,1.92-2.74,4.38-4.56,7.96-4.56,5.18,0,8.27,3.58,8.27,9.9v16.51h-5.41v-14.7c0-4.12-1.74-6.32-4.78-6.32s-5.05,2.25-5.05,6.42v14.6h-5.41v-14.75c0-4.07-1.74-6.27-4.78-6.27s-5.05,2.45-5.05,6.42v14.6h-5.45v-25.87Z"/>
  <path class="st0" d="M646.39,20.29h5.45v4.31c1.74-2.69,4.16-4.85,8.04-4.85,5.54,0,10.95,4.8,10.95,13.42v.1c0,8.62-5.36,13.42-10.95,13.42-3.93,0-6.39-2.16-8.04-4.56v11.86h-5.45V20.29ZM665.34,33.28v-.1c0-5-3.13-8.28-6.75-8.28s-6.88,3.33-6.88,8.28v.1c0,4.95,3.17,8.28,6.88,8.28s6.75-3.18,6.75-8.28Z"/>
  <path class="st0" d="M675.49,20.29h5.45v5.83c1.47-3.92,4.2-6.52,8.36-6.32v6.27h-.31c-4.78,0-8.04,3.38-8.04,10.24v9.85h-5.45v-25.87Z"/>
  <path class="st0" d="M691,33.32v-.1c0-7.45,4.78-13.47,11.53-13.47,7.51,0,11.31,6.47,11.31,13.92,0,.54-.04,1.08-.09,1.67h-17.34c.58,4.26,3.26,6.57,6.79,6.57,2.68,0,4.47-1.08,6.39-3.09l3.17,3.09c-2.28,2.94-5.32,4.85-9.65,4.85-6.79,0-12.11-5.44-12.11-13.42ZM708.48,31.41c-.36-3.77-2.41-6.81-5.99-6.81-3.35,0-5.63,2.74-6.12,6.81h12.11Z"/>
  <path class="st0" d="M729.62,33.32v-.1c0-7.45,4.78-13.47,11.53-13.47,7.51,0,11.31,6.47,11.31,13.92,0,.54-.04,1.08-.09,1.67h-17.34c.58,4.26,3.26,6.57,6.79,6.57,2.68,0,4.47-1.08,6.39-3.09l3.17,3.09c-2.28,2.94-5.32,4.85-9.65,4.85-6.79,0-12.11-5.44-12.11-13.42ZM747.09,31.41c-.36-3.77-2.41-6.81-5.99-6.81-3.35,0-5.63,2.74-6.12,6.81h12.11Z"/>
  <path class="st0" d="M755.1,42.78l2.41-4.02c2.64,2.11,5.27,3.18,7.73,3.18,2.32,0,3.67-1.08,3.67-2.79v-.1c0-1.96-2.5-2.69-5.27-3.63-3.44-1.03-7.38-2.65-7.38-7.54v-.1c0-4.95,3.71-7.94,8.4-7.94,2.99,0,6.17,1.13,8.67,2.94l-2.15,4.21c-2.28-1.52-4.69-2.45-6.66-2.45-2.1,0-3.31,1.13-3.31,2.55v.1c0,1.86,2.55,2.74,5.32,3.67,3.4,1.18,7.33,2.89,7.33,7.55v.1c0,5.44-3.84,8.13-8.76,8.13-3.4,0-7.02-1.27-10.01-3.87Z"/>
  <path class="st0" d="M779.18,39.01v-13.62h-2.99v-5.1h2.99v-7.1h5.41v7.1h6.35v5.1h-6.35v12.69c0,2.3,1.07,3.23,2.91,3.23,1.16,0,2.28-.29,3.35-.88v4.85c-1.39.83-2.77,1.32-4.87,1.32-3.98,0-6.79-1.91-6.79-7.59Z"/>
  <path class="st0" d="M793.94,38.71v-.1c0-5.63,4.02-8.33,9.79-8.33,2.68,0,4.51.44,6.35,1.08v-.64c0-3.72-2.06-5.63-5.85-5.63-2.68,0-4.6.64-6.75,1.62l-1.47-4.66c2.64-1.22,5.18-2.11,8.94-2.11,3.53,0,6.12.98,7.82,2.89,1.74,1.91,2.55,4.61,2.55,7.99v15.34h-5.27v-3.23c-1.61,2.11-4.07,3.77-7.69,3.77-4.42,0-8.4-2.74-8.4-7.99ZM810.16,36.85v-1.76c-1.39-.59-3.22-1.03-5.36-1.03-3.53,0-5.54,1.57-5.54,4.31v.1c0,2.5,1.97,3.92,4.6,3.92,3.58,0,6.3-2.21,6.3-5.54Z"/>
  <path class="st0" d="M820.84,20.29h5.45v3.92c1.52-2.3,3.58-4.46,7.2-4.46,3.4,0,5.81,1.81,7.06,4.56,1.92-2.74,4.38-4.56,7.96-4.56,5.18,0,8.27,3.58,8.27,9.9v16.51h-5.41v-14.7c0-4.12-1.74-6.32-4.78-6.32s-5.05,2.25-5.05,6.42v14.6h-5.41v-14.75c0-4.07-1.74-6.27-4.78-6.27s-5.05,2.45-5.05,6.42v14.6h-5.45v-25.87Z"/>
  <path class="st0" d="M861.11,33.37v-.1c0-7.4,5.36-13.52,12.6-13.52s12.56,6.03,12.56,13.42v.1c0,7.3-5.36,13.47-12.65,13.47s-12.51-6.03-12.51-13.38ZM880.87,33.37v-.1c0-4.56-2.99-8.33-7.24-8.33s-7.11,3.72-7.11,8.23v.1c0,4.51,3.04,8.28,7.2,8.28,4.42,0,7.15-3.72,7.15-8.18Z"/>
  <path class="st0" d="M888.96,42.78l2.41-4.02c2.64,2.11,5.27,3.18,7.73,3.18,2.32,0,3.67-1.08,3.67-2.79v-.1c0-1.96-2.5-2.69-5.27-3.63-3.44-1.03-7.38-2.65-7.38-7.54v-.1c0-4.95,3.71-7.94,8.4-7.94,2.99,0,6.17,1.13,8.67,2.94l-2.15,4.21c-2.28-1.52-4.69-2.45-6.66-2.45-2.1,0-3.31,1.13-3.31,2.55v.1c0,1.86,2.55,2.74,5.32,3.67,3.4,1.18,7.33,2.89,7.33,7.55v.1c0,5.44-3.84,8.13-8.76,8.13-3.4,0-7.02-1.27-10.01-3.87Z"/>
  <path class="st0" d="M925.16,10.4h5.45v35.77h-5.45V10.4Z"/>
  <path class="st0" d="M936.87,10.69h5.81v5.63h-5.81v-5.63ZM937.05,20.29h5.45v25.87h-5.45v-25.87Z"/>
  <path class="st0" d="M946.75,42.78l2.41-4.02c2.64,2.11,5.27,3.18,7.73,3.18,2.32,0,3.67-1.08,3.67-2.79v-.1c0-1.96-2.5-2.69-5.27-3.63-3.44-1.03-7.38-2.65-7.38-7.54v-.1c0-4.95,3.71-7.94,8.4-7.94,2.99,0,6.17,1.13,8.67,2.94l-2.15,4.21c-2.28-1.52-4.69-2.45-6.66-2.45-2.1,0-3.31,1.13-3.31,2.55v.1c0,1.86,2.55,2.74,5.32,3.67,3.4,1.18,7.33,2.89,7.33,7.55v.1c0,5.44-3.84,8.13-8.76,8.13-3.4,0-7.02-1.27-10.01-3.87Z"/>
  <path class="st0" d="M970.84,39.01v-13.62h-2.99v-5.1h2.99v-7.1h5.41v7.1h6.35v5.1h-6.35v12.69c0,2.3,1.07,3.23,2.91,3.23,1.16,0,2.28-.29,3.35-.88v4.85c-1.39.83-2.77,1.32-4.87,1.32-3.98,0-6.79-1.91-6.79-7.59Z"/>
  <path class="st0" d="M985.23,33.37v-.1c0-7.4,5.36-13.52,12.6-13.52s12.56,6.03,12.56,13.42v.1c0,7.3-5.36,13.47-12.65,13.47s-12.51-6.03-12.51-13.38ZM1004.99,33.37v-.1c0-4.56-2.99-8.33-7.24-8.33s-7.11,3.72-7.11,8.23v.1c0,4.51,3.04,8.28,7.2,8.28,4.42,0,7.15-3.72,7.15-8.18Z"/>
  <path class="st0" d="M1013.08,42.78l2.41-4.02c2.64,2.11,5.27,3.18,7.73,3.18,2.32,0,3.67-1.08,3.67-2.79v-.1c0-1.96-2.5-2.69-5.27-3.63-3.44-1.03-7.37-2.65-7.37-7.54v-.1c0-4.95,3.71-7.94,8.4-7.94,2.99,0,6.17,1.13,8.67,2.94l-2.15,4.21c-2.28-1.52-4.69-2.45-6.66-2.45-2.1,0-3.31,1.13-3.31,2.55v.1c0,1.86,2.55,2.74,5.32,3.67,3.4,1.18,7.33,2.89,7.33,7.55v.1c0,5.44-3.84,8.13-8.76,8.13-3.4,0-7.02-1.27-10.01-3.87Z"/>
  <path class="st0" d="M1048.97,20.29h5.45v4.31c1.74-2.69,4.16-4.85,8.04-4.85,5.54,0,10.95,4.8,10.95,13.42v.1c0,8.62-5.36,13.42-10.95,13.42-3.93,0-6.39-2.16-8.04-4.56v11.86h-5.45V20.29ZM1067.92,33.28v-.1c0-5-3.13-8.28-6.75-8.28s-6.88,3.33-6.88,8.28v.1c0,4.95,3.17,8.28,6.88,8.28s6.75-3.18,6.75-8.28Z"/>
  <path class="st0" d="M1076.5,38.71v-.1c0-5.63,4.02-8.33,9.79-8.33,2.68,0,4.51.44,6.35,1.08v-.64c0-3.72-2.06-5.63-5.85-5.63-2.68,0-4.6.64-6.75,1.62l-1.47-4.66c2.64-1.22,5.18-2.11,8.94-2.11,3.53,0,6.12.98,7.82,2.89,1.74,1.91,2.55,4.61,2.55,7.99v15.34h-5.27v-3.23c-1.61,2.11-4.07,3.77-7.69,3.77-4.42,0-8.4-2.74-8.4-7.99ZM1092.73,36.85v-1.76c-1.39-.59-3.22-1.03-5.36-1.03-3.53,0-5.54,1.57-5.54,4.31v.1c0,2.5,1.97,3.92,4.6,3.92,3.58,0,6.3-2.21,6.3-5.54Z"/>
  <path class="st0" d="M1103.41,20.29h5.45v5.83c1.47-3.92,4.2-6.52,8.36-6.32v6.27h-.31c-4.78,0-8.04,3.38-8.04,10.24v9.85h-5.45v-25.87Z"/>
  <path class="st0" d="M1118.29,38.71v-.1c0-5.63,4.02-8.33,9.79-8.33,2.68,0,4.51.44,6.35,1.08v-.64c0-3.72-2.06-5.63-5.85-5.63-2.68,0-4.6.64-6.75,1.62l-1.47-4.66c2.64-1.22,5.18-2.11,8.94-2.11,3.53,0,6.12.98,7.82,2.89,1.74,1.91,2.55,4.61,2.55,7.99v15.34h-5.27v-3.23c-1.61,2.11-4.07,3.77-7.69,3.77-4.42,0-8.4-2.74-8.4-7.99ZM1134.52,36.85v-1.76c-1.39-.59-3.22-1.03-5.36-1.03-3.53,0-5.54,1.57-5.54,4.31v.1c0,2.5,1.97,3.92,4.6,3.92,3.58,0,6.3-2.21,6.3-5.54Z"/>
  <path class="st0" d="M1158.03,10.4h5.45v35.77h-5.45V10.4Z"/>
  <path class="st0" d="M1168.04,38.71v-.1c0-5.63,4.02-8.33,9.79-8.33,2.68,0,4.51.44,6.35,1.08v-.64c0-3.72-2.06-5.63-5.85-5.63-2.68,0-4.6.64-6.75,1.62l-1.47-4.66c2.64-1.22,5.18-2.11,8.94-2.11,3.53,0,6.12.98,7.82,2.89,1.74,1.91,2.55,4.61,2.55,7.99v15.34h-5.27v-3.23c-1.61,2.11-4.07,3.77-7.69,3.77-4.42,0-8.4-2.74-8.4-7.99ZM1184.26,36.85v-1.76c-1.39-.59-3.22-1.03-5.36-1.03-3.53,0-5.54,1.57-5.54,4.31v.1c0,2.5,1.97,3.92,4.6,3.92,3.58,0,6.3-2.21,6.3-5.54Z"/>
  <path class="st0" d="M1207.46,20.29h5.45v4.31c1.74-2.69,4.16-4.85,8.04-4.85,5.54,0,10.95,4.8,10.95,13.42v.1c0,8.62-5.36,13.42-10.95,13.42-3.93,0-6.39-2.16-8.04-4.56v11.86h-5.45V20.29ZM1226.41,33.28v-.1c0-5-3.13-8.28-6.75-8.28s-6.88,3.33-6.88,8.28v.1c0,4.95,3.17,8.28,6.88,8.28s6.75-3.18,6.75-8.28Z"/>
  <path class="st0" d="M1236.56,20.29h5.45v5.83c1.47-3.92,4.2-6.52,8.36-6.32v6.27h-.31c-4.78,0-8.04,3.38-8.04,10.24v9.85h-5.45v-25.87Z"/>
  <path class="st0" d="M1252.07,33.37v-.1c0-7.4,5.36-13.52,12.6-13.52s12.56,6.03,12.56,13.42v.1c0,7.3-5.36,13.47-12.65,13.47s-12.51-6.03-12.51-13.38ZM1271.82,33.37v-.1c0-4.56-2.99-8.33-7.24-8.33s-7.11,3.72-7.11,8.23v.1c0,4.51,3.04,8.28,7.2,8.28,4.42,0,7.15-3.72,7.15-8.18ZM1267.13,8.97l4.92,2.4-5.5,5.63h-4.07l4.65-8.04Z"/>
  <path class="st0" d="M1289.83,28.96l5.5-8.67h5.77l-8.31,12.64,8.67,13.23h-5.9l-5.81-9.21-5.77,9.21h-5.77l8.63-13.18-8.31-12.69h5.9l5.41,8.67Z"/>
  <path class="st0" d="M1305.39,10.69h5.81v5.63h-5.81v-5.63ZM1305.57,20.29h5.45v25.87h-5.45v-25.87Z"/>
  <path class="st0" d="M1317.14,20.29h5.45v3.92c1.52-2.3,3.58-4.46,7.2-4.46,3.4,0,5.81,1.81,7.06,4.56,1.92-2.74,4.38-4.56,7.96-4.56,5.18,0,8.27,3.58,8.27,9.9v16.51h-5.41v-14.7c0-4.12-1.74-6.32-4.78-6.32s-5.05,2.25-5.05,6.42v14.6h-5.41v-14.75c0-4.07-1.74-6.27-4.78-6.27s-5.05,2.45-5.05,6.42v14.6h-5.45v-25.87Z"/>
  <path class="st0" d="M1357.1,38.71v-.1c0-5.63,4.02-8.33,9.79-8.33,2.68,0,4.51.44,6.35,1.08v-.64c0-3.72-2.06-5.63-5.85-5.63-2.68,0-4.6.64-6.75,1.62l-1.47-4.66c2.64-1.22,5.18-2.11,8.94-2.11,3.53,0,6.12.98,7.82,2.89,1.74,1.91,2.55,4.61,2.55,7.99v15.34h-5.27v-3.23c-1.61,2.11-4.07,3.77-7.69,3.77-4.42,0-8.4-2.74-8.4-7.99ZM1373.33,36.85v-1.76c-1.39-.59-3.22-1.03-5.36-1.03-3.53,0-5.54,1.57-5.54,4.31v.1c0,2.5,1.97,3.92,4.6,3.92,3.58,0,6.3-2.21,6.3-5.54Z"/>
  <path class="st0" d="M1392.81,53.9v-4.75c.54.1,1.03.15,1.52.15,1.56,0,2.5-.83,2.5-3.14v-25.87h5.45v26.21c0,5.29-2.41,7.64-6.84,7.64-1.07,0-1.79-.1-2.64-.25ZM1396.66,10.69h5.81v5.63h-5.81v-5.63Z"/>
  <path class="st0" d="M1408.19,36.75v-16.46h5.41v14.7c0,4.07,1.83,6.27,5.05,6.27s5.32-2.3,5.32-6.37v-14.6h5.45v25.87h-5.45v-4.02c-1.56,2.5-3.75,4.56-7.37,4.56-5.36,0-8.4-3.87-8.4-9.95Z"/>
  <path class="st0" d="M1435.23,51.01l2.01-4.46c2.55,1.71,5.18,2.7,8.4,2.7,4.83,0,7.46-2.65,7.46-7.89v-1.96c-1.97,2.74-4.42,4.7-8.31,4.7-5.59,0-10.73-4.51-10.73-12.1v-.1c0-7.64,5.18-12.15,10.73-12.15,3.98,0,6.44,2.01,8.27,4.41v-3.87h5.41v20.58c0,4.31-.98,7.55-3,9.75-2.15,2.35-5.41,3.48-9.7,3.48-3.93,0-7.46-1.03-10.55-3.09ZM1453.15,31.95v-.1c0-4.17-3.17-7.06-6.93-7.06s-6.7,2.79-6.7,7.06v.1c0,4.21,2.99,7.1,6.7,7.1s6.93-2.89,6.93-7.1Z"/>
  <path class="st0" d="M1462.76,38.71v-.1c0-5.63,4.02-8.33,9.79-8.33,2.68,0,4.51.44,6.35,1.08v-.64c0-3.72-2.06-5.63-5.85-5.63-2.68,0-4.6.64-6.75,1.62l-1.47-4.66c2.64-1.22,5.18-2.11,8.94-2.11,3.53,0,6.12.98,7.82,2.89,1.74,1.91,2.55,4.61,2.55,7.99v15.34h-5.27v-3.23c-1.61,2.11-4.07,3.77-7.69,3.77-4.42,0-8.4-2.74-8.4-7.99ZM1478.99,36.85v-1.76c-1.39-.59-3.22-1.03-5.36-1.03-3.53,0-5.54,1.57-5.54,4.31v.1c0,2.5,1.97,3.92,4.6,3.92,3.58,0,6.3-2.21,6.3-5.54Z"/>
  <path class="st0" d="M1488.51,33.28v-.1c0-8.62,5.32-13.42,10.95-13.42,3.84,0,6.39,2.11,8.04,4.56v-13.91h5.41v35.77h-5.41v-4.31c-1.74,2.69-4.25,4.85-8.04,4.85-5.54,0-10.95-4.8-10.95-13.42ZM1507.59,33.28v-.1c0-5-3.22-8.28-6.84-8.28s-6.79,3.19-6.79,8.28v.1c0,5,3.08,8.28,6.79,8.28s6.84-3.33,6.84-8.28Z"/>
  <path class="st0" d="M1517.2,38.71v-.1c0-5.63,4.02-8.33,9.79-8.33,2.68,0,4.51.44,6.35,1.08v-.64c0-3.72-2.06-5.63-5.85-5.63-2.68,0-4.6.64-6.75,1.62l-1.47-4.66c2.64-1.22,5.18-2.11,8.94-2.11,3.53,0,6.12.98,7.82,2.89,1.74,1.91,2.55,4.61,2.55,7.99v15.34h-5.27v-3.23c-1.61,2.11-4.07,3.77-7.69,3.77-4.42,0-8.4-2.74-8.4-7.99ZM1533.43,36.85v-1.76c-1.39-.59-3.22-1.03-5.36-1.03-3.53,0-5.54,1.57-5.54,4.31v.1c0,2.5,1.97,3.92,4.6,3.92,3.58,0,6.3-2.21,6.3-5.54Z"/>
  <path class="st0" d="M1544.02,20.29h5.94v6.71h-5.94v-6.71ZM1544.02,39.4h5.94v6.76h-5.94v-6.76Z"/>
  <path class="st0" d="M234.37,97.42v-.1c0-5.68,3.98-8.38,9.65-8.38,2.46,0,4.11.44,5.85,1.08v-.44c0-3.14-1.74-4.8-5.14-4.8-2.64,0-4.42.49-6.61,1.42l-1.7-5.68c2.64-1.22,5.23-2.11,9.3-2.11,3.75,0,6.35,1.03,8.09,2.94,1.79,1.96,2.59,4.85,2.59,8.38v15.24h-6.57v-2.84c-1.65,2.01-3.89,3.33-7.24,3.33-4.51,0-8.22-2.79-8.22-8.03ZM249.97,95.7v-1.32c-1.21-.59-2.68-.98-4.34-.98-2.9,0-4.69,1.27-4.69,3.63v.1c0,2.01,1.52,3.18,3.71,3.18,3.22,0,5.32-1.86,5.32-4.61Z"/>
  <path class="st0" d="M259.49,101.48l2.91-4.9c2.64,2.11,5.27,3.14,7.55,3.14,1.97,0,2.86-.78,2.86-1.96v-.1c0-1.62-2.32-2.11-4.96-3.04-3.35-1.03-7.15-2.79-7.15-7.89v-.1c0-5.34,3.93-8.33,8.76-8.33,3.04,0,6.3,1.13,8.94,3.04l-2.59,5.14c-2.37-1.52-4.74-2.45-6.48-2.45-1.65,0-2.5.78-2.5,1.81v.1c0,1.37,2.28,2.25,4.87,3.14,3.35,1.18,7.24,2.99,7.24,7.79v.1c0,5.83-3.98,8.48-9.16,8.48-3.4,0-7.06-1.23-10.28-3.97Z"/>
  <path class="st0" d="M283.04,69.19h7.15v6.61h-7.15v-6.61ZM283.22,78.7h6.79v26.26h-6.79v-26.26Z"/>
  <path class="st0" d="M293.64,101.48l2.91-4.9c2.64,2.11,5.27,3.14,7.55,3.14,1.97,0,2.86-.78,2.86-1.96v-.1c0-1.62-2.32-2.11-4.96-3.04-3.35-1.03-7.15-2.79-7.15-7.89v-.1c0-5.34,3.93-8.33,8.76-8.33,3.04,0,6.3,1.13,8.94,3.04l-2.59,5.14c-2.37-1.52-4.74-2.45-6.48-2.45-1.65,0-2.5.78-2.5,1.81v.1c0,1.37,2.28,2.25,4.87,3.14,3.35,1.18,7.24,2.99,7.24,7.79v.1c0,5.83-3.98,8.48-9.16,8.48-3.4,0-7.06-1.23-10.28-3.97Z"/>
  <path class="st0" d="M317.73,97.51v-12.45h-2.86v-6.37h2.86v-6.71h6.79v6.71h5.63v6.37h-5.63v11.22c0,1.71.71,2.55,2.19,2.55,1.21,0,2.32-.29,3.35-.93v5.98c-1.43.93-3.08,1.52-5.36,1.52-4.11,0-6.97-1.81-6.97-7.89Z"/>
  <path class="st0" d="M332.43,91.98v-.1c0-7.5,4.87-13.67,11.84-13.67,8,0,11.67,6.81,11.67,14.26,0,.59-.04,1.22-.09,1.96h-16.67c.67,3.38,2.82,5.14,5.85,5.14,2.28,0,3.89-.78,5.81-2.69l3.89,3.77c-2.28,3.09-5.45,4.9-9.79,4.9-7.2,0-12.51-5.54-12.51-13.57ZM349.33,89.77c-.4-3.33-2.19-5.59-5.05-5.59s-4.65,2.21-5.18,5.59h10.24Z"/>
  <path class="st0" d="M360.1,78.7h6.79v3.72c1.56-2.21,3.62-4.21,7.02-4.21,5.18,0,8.13,3.67,8.13,9.75v17h-6.79v-14.65c0-3.53-1.48-5.34-4.11-5.34s-4.25,1.81-4.25,5.34v14.65h-6.79v-26.26Z"/>
  <path class="st0" d="M385.89,91.98v-.1c0-7.5,5.23-13.67,12.56-13.67,4.51,0,7.29,1.67,9.56,4.41l-4.16,4.9c-1.56-1.76-2.99-2.89-5.45-2.89-3.4,0-5.81,3.23-5.81,7.15v.1c0,4.07,2.37,7.25,6.08,7.25,2.28,0,3.84-1.08,5.5-2.79l3.98,4.41c-2.32,2.79-5,4.8-9.79,4.8-7.2,0-12.47-6.12-12.47-13.57Z"/>
  <path class="st0" d="M411.81,69.19h7.15v6.61h-7.15v-6.61ZM411.99,78.7h6.79v26.26h-6.79v-26.26Z"/>
  <path class="st0" d="M422.85,97.42v-.1c0-5.68,3.98-8.38,9.65-8.38,2.46,0,4.11.44,5.85,1.08v-.44c0-3.14-1.74-4.8-5.14-4.8-2.64,0-4.42.49-6.61,1.42l-1.7-5.68c2.64-1.22,5.23-2.11,9.3-2.11,3.75,0,6.35,1.03,8.09,2.94,1.79,1.96,2.59,4.85,2.59,8.38v15.24h-6.57v-2.84c-1.65,2.01-3.89,3.33-7.24,3.33-4.51,0-8.22-2.79-8.22-8.03ZM438.45,95.7v-1.32c-1.21-.59-2.68-.98-4.34-.98-2.9,0-4.69,1.27-4.69,3.63v.1c0,2.01,1.52,3.18,3.71,3.18,3.22,0,5.32-1.86,5.32-4.61Z"/>
  <path class="st0" d="M461.51,98.98l10.41-9.36c3.93-3.53,5.41-5.39,5.41-8.23s-1.7-4.46-4.2-4.46-4.07,1.47-6.39,4.61l-4.83-4.26c3.08-4.56,6.08-7.1,11.67-7.1,6.44,0,10.77,4.17,10.77,10.58v.1c0,5.78-2.68,8.53-8.22,13.28l-5.09,4.31h13.63v6.52h-23.15v-5.98Z"/>
  <path class="st0" d="M503.39,97.56h-15.29l-1.12-5.34,17.16-21.8h5.81v21.02h4.2v6.12h-4.2v7.4h-6.57v-7.4ZM503.39,91.44v-10.68l-8.31,10.68h8.31Z"/>
  <path class="st0" d="M533.16,65.86h5.76l-19.8,45.37h-5.76l19.8-45.37Z"/>
  <path class="st0" d="M554.7,77.18h-14.7v-6.52h22.53v5.68l-14.03,28.61h-7.78l13.99-27.78Z"/>
  <path class="st0" d="M560.43,109.81c3.17-.34,4.6-1.96,4.38-4.85h-2.77v-7.84h7.24v6.61c0,6.47-2.95,9.11-8.27,9.16l-.58-3.09Z"/>
  <path class="st0" d="M585.59,101.73l1.74-2.7c2.5,2.11,5.27,3.23,8,3.23s4.78-1.52,4.78-4.02v-.1c0-2.5-2.73-3.53-5.77-4.46-3.58-1.18-7.64-2.45-7.64-7.15v-.1c0-4.36,3.31-7.25,7.87-7.25,2.86,0,5.94,1.08,8.31,2.79l-1.56,2.84c-2.14-1.52-4.56-2.45-6.84-2.45-2.73,0-4.47,1.57-4.47,3.67v.1c0,2.4,2.86,3.33,5.94,4.36,3.58,1.18,7.42,2.7,7.42,7.25v.1c0,4.8-3.62,7.59-8.22,7.59-3.35,0-6.93-1.42-9.56-3.72Z"/>
  <path class="st0" d="M608.96,69.93h3.93v4.17h-3.93v-4.17ZM609.19,79.63h3.44v25.33h-3.44v-25.33Z"/>
  <path class="st0" d="M619.74,79.63h3.44v4.41c1.56-2.74,3.93-4.95,7.91-4.95,5.54,0,8.85,4.12,8.85,10.14v15.73h-3.44v-14.8c0-4.7-2.28-7.64-6.39-7.64s-6.93,3.18-6.93,7.94v14.5h-3.44v-25.33Z"/>
  <path class="st0" d="M658.98,69.93h3.93v4.17h-3.93v-4.17ZM659.2,79.63h3.44v25.33h-3.44v-25.33Z"/>
  <path class="st0" d="M669.75,79.63h3.44v4.26c1.56-2.55,3.58-4.8,7.46-4.8s6.17,2.16,7.42,5.05c1.7-2.79,4.07-5.05,8.13-5.05,5.36,0,8.58,3.87,8.58,10.19v15.68h-3.44v-14.8c0-4.9-2.23-7.64-5.99-7.64-3.44,0-6.39,2.84-6.39,7.84v14.6h-3.4v-14.89c0-4.75-2.23-7.55-5.94-7.55s-6.44,3.33-6.44,7.99v14.45h-3.44v-25.33Z"/>
  <path class="st0" d="M711.23,79.63h3.44v5.1c1.92-2.99,4.56-5.63,8.85-5.63,5.54,0,11.04,4.8,11.04,13.13v.1c0,8.23-5.45,13.18-11.04,13.18-4.29,0-7.06-2.5-8.85-5.39v12.69h-3.44v-33.17ZM731.03,92.37v-.1c0-6.03-3.71-9.8-8.13-9.8s-8.36,4.02-8.36,9.75v.1c0,5.88,4.07,9.8,8.36,9.8s8.13-3.63,8.13-9.75Z"/>
  <path class="st0" d="M738.58,92.42v-.1c0-7.2,5.05-13.23,12.07-13.23s12.02,5.98,12.02,13.13v.1c0,7.2-5.14,13.23-12.11,13.23s-11.98-5.98-11.98-13.13ZM759.14,92.42v-.1c0-5.44-3.71-9.9-8.58-9.9s-8.45,4.46-8.45,9.8v.1c0,5.44,3.67,9.85,8.54,9.85s8.49-4.46,8.49-9.75Z"/>
  <path class="st0" d="M767.99,79.63h3.44v6.61c1.7-4.21,5.05-7.2,9.43-7.05v4.07h-.27c-5.05,0-9.16,3.97-9.16,11.61v10.09h-3.44v-25.33Z"/>
  <path class="st0" d="M786.41,98.25v-15.29h-3.22v-3.33h3.22v-7.64h3.44v7.64h7.33v3.33h-7.33v14.8c0,3.14,1.56,4.21,3.89,4.21,1.21,0,2.15-.25,3.35-.88v3.23c-1.21.73-2.5,1.08-4.16,1.08-3.75,0-6.52-2.01-6.52-7.15Z"/>
  <path class="st0" d="M800.62,97.61v-.1c0-5.29,4.02-8.18,9.88-8.18,2.99,0,5.01.44,7.11,1.08v-.88c0-4.56-2.55-6.91-6.88-6.91-2.73,0-4.87.73-7.02,1.86l-1.03-3.09c2.55-1.32,5.01-2.11,8.4-2.11s5.77.93,7.46,2.79c1.56,1.71,2.37,4.21,2.37,7.4v15.48h-3.31v-3.82c-1.61,2.3-4.25,4.36-8.36,4.36s-8.63-2.65-8.63-7.89ZM817.65,95.65v-2.45c-1.74-.54-3.93-1.08-6.79-1.08-4.33,0-6.75,2.06-6.75,5.24v.1c0,3.18,2.73,5.05,5.81,5.05,4.29,0,7.73-2.84,7.73-6.86Z"/>
  <path class="st0" d="M827.35,79.63h3.44v6.61c1.7-4.21,5.05-7.2,9.43-7.05v4.07h-.27c-5.05,0-9.16,3.97-9.16,11.61v10.09h-3.44v-25.33Z"/>
  <path class="st0" d="M857.38,69.19h3.44v35.77h-3.44v-35.77Z"/>
  <path class="st0" d="M866.19,97.61v-.1c0-5.29,4.02-8.18,9.88-8.18,2.99,0,5.01.44,7.11,1.08v-.88c0-4.56-2.55-6.91-6.88-6.91-2.73,0-4.87.73-7.02,1.86l-1.03-3.09c2.55-1.32,5.01-2.11,8.4-2.11s5.77.93,7.46,2.79c1.56,1.71,2.37,4.21,2.37,7.4v15.48h-3.31v-3.82c-1.61,2.3-4.25,4.36-8.36,4.36s-8.63-2.65-8.63-7.89ZM883.22,95.65v-2.45c-1.74-.54-3.93-1.08-6.79-1.08-4.33,0-6.75,2.06-6.75,5.24v.1c0,3.18,2.73,5.05,5.81,5.05,4.29,0,7.73-2.84,7.73-6.86Z"/>
  <path class="st0" d="M904,92.42v-.1c0-7.2,5.05-13.23,11.84-13.23,4.38,0,7.06,1.96,9.25,4.51l-2.28,2.65c-1.83-2.11-3.84-3.82-7.02-3.82-4.69,0-8.27,4.31-8.27,9.8v.1c0,5.49,3.67,9.85,8.49,9.85,3,0,5.23-1.62,7.06-3.77l2.19,2.25c-2.32,2.89-5.1,4.9-9.43,4.9-6.79,0-11.84-6.03-11.84-13.13Z"/>
  <path class="st0" d="M928.31,97.61v-.1c0-5.29,4.02-8.18,9.88-8.18,2.99,0,5.01.44,7.11,1.08v-.88c0-4.56-2.55-6.91-6.88-6.91-2.73,0-4.87.73-7.02,1.86l-1.03-3.09c2.55-1.32,5.01-2.11,8.4-2.11s5.77.93,7.46,2.79c1.56,1.71,2.37,4.21,2.37,7.4v15.48h-3.31v-3.82c-1.61,2.3-4.25,4.36-8.36,4.36s-8.63-2.65-8.63-7.89ZM945.34,95.65v-2.45c-1.74-.54-3.93-1.08-6.79-1.08-4.33,0-6.75,2.06-6.75,5.24v.1c0,3.18,2.73,5.05,5.81,5.05,4.29,0,7.73-2.84,7.73-6.86Z"/>
  <path class="st0" d="M955.04,79.63h3.44v4.41c1.56-2.74,3.93-4.95,7.91-4.95,5.54,0,8.85,4.12,8.85,10.14v15.73h-3.44v-14.8c0-4.7-2.28-7.64-6.39-7.64s-6.93,3.18-6.93,7.94v14.5h-3.44v-25.33Z"/>
  <path class="st0" d="M980.25,92.42v-.1c0-7.2,5.05-13.23,11.84-13.23,4.38,0,7.06,1.96,9.25,4.51l-2.28,2.65c-1.83-2.11-3.84-3.82-7.02-3.82-4.69,0-8.27,4.31-8.27,9.8v.1c0,5.49,3.67,9.85,8.49,9.85,3,0,5.23-1.62,7.06-3.77l2.19,2.25c-2.32,2.89-5.09,4.9-9.43,4.9-6.79,0-11.84-6.03-11.84-13.13Z"/>
  <path class="st0" d="M1006.31,69.19h3.44v14.85c1.56-2.74,3.93-4.95,7.91-4.95,5.54,0,8.85,4.12,8.85,10.14v15.73h-3.44v-14.8c0-4.7-2.28-7.64-6.39-7.64s-6.93,3.18-6.93,7.94v14.5h-3.44v-35.77Z"/>
  <path class="st0" d="M1031.21,97.61v-.1c0-5.29,4.02-8.18,9.88-8.18,2.99,0,5.01.44,7.11,1.08v-.88c0-4.56-2.55-6.91-6.88-6.91-2.73,0-4.87.73-7.02,1.86l-1.03-3.09c2.55-1.32,5.01-2.11,8.4-2.11s5.77.93,7.46,2.79c1.56,1.71,2.37,4.21,2.37,7.4v15.48h-3.31v-3.82c-1.61,2.3-4.25,4.36-8.36,4.36s-8.63-2.65-8.63-7.89ZM1048.23,95.65v-2.45c-1.74-.54-3.93-1.08-6.79-1.08-4.33,0-6.75,2.06-6.75,5.24v.1c0,3.18,2.73,5.05,5.81,5.05,4.29,0,7.73-2.84,7.73-6.86Z"/>
  <path class="st0" d="M1070.45,79.63h3.44v4.41c1.56-2.74,3.93-4.95,7.91-4.95,5.54,0,8.85,4.12,8.85,10.14v15.73h-3.44v-14.8c0-4.7-2.28-7.64-6.39-7.64s-6.93,3.18-6.93,7.94v14.5h-3.44v-25.33Z"/>
  <path class="st0" d="M1097.18,69.93h3.93v4.17h-3.93v-4.17ZM1097.4,79.63h3.44v25.33h-3.44v-25.33Z"/>
  <path class="st0" d="M1119.03,92.37v-.1c0-7.3,4.65-13.18,11.08-13.18,6.84,0,10.77,5.98,10.77,13.38,0,.54,0,.78-.04,1.22h-18.32c.49,5.49,4.02,8.58,8.13,8.58,3.22,0,5.36-1.42,7.29-3.58l2.15,2.11c-2.32,2.89-5.09,4.75-9.52,4.75-6.3,0-11.53-5.34-11.53-13.18ZM1137.4,90.9c-.36-4.56-2.73-8.62-7.37-8.62-4.07,0-7.02,3.72-7.51,8.62h14.88Z"/>
  <path class="st0" d="M1146.34,69.19h3.44v35.77h-3.44v-35.77Z"/>
  <path class="st0" d="M1169.4,69.19h3.44v14.85c1.56-2.74,3.93-4.95,7.91-4.95,5.54,0,8.85,4.12,8.85,10.14v15.73h-3.44v-14.8c0-4.7-2.28-7.64-6.39-7.64s-6.93,3.18-6.93,7.94v14.5h-3.44v-35.77Z"/>
  <path class="st0" d="M1194.61,92.42v-.1c0-7.2,5.05-13.23,12.07-13.23s12.02,5.98,12.02,13.13v.1c0,7.2-5.14,13.23-12.11,13.23s-11.98-5.98-11.98-13.13ZM1215.17,92.42v-.1c0-5.44-3.71-9.9-8.58-9.9s-8.45,4.46-8.45,9.8v.1c0,5.44,3.67,9.85,8.54,9.85s8.49-4.46,8.49-9.75Z"/>
  <path class="st0" d="M1224.02,79.63h3.44v6.61c1.7-4.21,5.05-7.2,9.43-7.05v4.07h-.27c-5.05,0-9.16,3.97-9.16,11.61v10.09h-3.44v-25.33Z"/>
  <path class="st0" d="M1238.37,97.61v-.1c0-5.29,4.02-8.18,9.88-8.18,2.99,0,5.01.44,7.11,1.08v-.88c0-4.56-2.55-6.91-6.88-6.91-2.73,0-4.87.73-7.02,1.86l-1.03-3.09c2.55-1.32,5.01-2.11,8.4-2.11s5.77.93,7.46,2.79c1.56,1.71,2.37,4.21,2.37,7.4v15.48h-3.31v-3.82c-1.61,2.3-4.25,4.36-8.36,4.36s-8.63-2.65-8.63-7.89ZM1255.4,95.65v-2.45c-1.74-.54-3.93-1.08-6.79-1.08-4.33,0-6.75,2.06-6.75,5.24v.1c0,3.18,2.73,5.05,5.81,5.05,4.29,0,7.73-2.84,7.73-6.86Z"/>
  <path class="st0" d="M1265.1,79.63h3.44v6.61c1.7-4.21,5.05-7.2,9.43-7.05v4.07h-.27c-5.05,0-9.16,3.97-9.16,11.61v10.09h-3.44v-25.33Z"/>
  <path class="st0" d="M1282.4,69.93h3.93v4.17h-3.93v-4.17ZM1282.62,79.63h3.44v25.33h-3.44v-25.33Z"/>
  <path class="st0" d="M1291.74,92.42v-.1c0-7.2,5.05-13.23,12.07-13.23s12.02,5.98,12.02,13.13v.1c0,7.2-5.14,13.23-12.11,13.23s-11.98-5.98-11.98-13.13ZM1312.3,92.42v-.1c0-5.44-3.71-9.9-8.58-9.9s-8.45,4.46-8.45,9.8v.1c0,5.44,3.67,9.85,8.54,9.85s8.49-4.46,8.49-9.75Z"/>
  <path class="st0" d="M1319.81,99.82h4.11v5.14h-4.11v-5.14Z"/>
</svg>