<?xml version="1.0" encoding="UTF-8"?>
<svg id="Layer_1" xmlns="http://www.w3.org/2000/svg" version="1.1" viewBox="0 0 923.09 153.35">
  <!-- Generator: Adobe Illustrator 29.7.1, SVG Export Plug-In . SVG Version: 2.1.1 Build 8)  -->
  <defs>
    <style>
      .st0 {
        fill: #fff;
      }
    </style>
  </defs>
  <path class="st0" d="M0,46.53l3.26-4.23c4.86,4.89,9.51,7.22,15.96,7.22s10.38-3.65,10.38-8.68v-.15c0-4.74-2.33-7.37-12.11-9.7C6.78,28.44,1.86,24.65,1.86,16.26v-.15c0-7.95,6.45-13.93,15.3-13.93,6.85,0,11.57,2.12,16.36,6.27l-3.06,4.45c-4.32-3.87-8.65-5.54-13.44-5.54-6.12,0-9.91,3.57-9.91,8.24v.15c0,4.81,2.33,7.58,12.64,9.92,10.38,2.55,15.17,6.64,15.17,14.44v.15c0,8.75-6.65,14.44-15.9,14.44-7.45,0-13.44-2.63-19.02-8.17Z"/>
  <path class="st0" d="M39.98,35.22v-.15c0-10.87,6.92-19.62,16.5-19.62,10.18,0,16.03,8.9,16.03,19.91,0,.8,0,1.17-.07,1.82h-27.27c.73,8.17,5.99,12.76,12.11,12.76,4.79,0,7.98-2.11,10.84-5.32l3.19,3.14c-3.46,4.3-7.58,7.07-14.17,7.07-9.38,0-17.16-7.95-17.16-19.62ZM67.32,33.03c-.53-6.78-4.06-12.83-10.98-12.83-6.05,0-10.44,5.54-11.17,12.83h22.15Z"/>
  <path class="st0" d="M79.29.73h5.12v53.23h-5.12V.73Z"/>
  <path class="st0" d="M91.52,35.22v-.15c0-10.87,6.92-19.62,16.5-19.62,10.18,0,16.03,8.9,16.03,19.91,0,.8,0,1.17-.07,1.82h-27.27c.73,8.17,5.99,12.76,12.11,12.76,4.79,0,7.98-2.11,10.84-5.32l3.19,3.14c-3.46,4.3-7.58,7.07-14.17,7.07-9.38,0-17.16-7.95-17.16-19.62ZM118.86,33.03c-.53-6.78-4.06-12.83-10.98-12.83-6.05,0-10.44,5.54-11.17,12.83h22.15Z"/>
  <path class="st0" d="M128.24,35.3v-.15c0-10.72,7.52-19.69,17.63-19.69,6.52,0,10.51,2.92,13.77,6.71l-3.39,3.94c-2.73-3.14-5.72-5.69-10.44-5.69-6.99,0-12.31,6.42-12.31,14.59v.15c0,8.17,5.45,14.66,12.64,14.66,4.46,0,7.78-2.41,10.51-5.62l3.26,3.36c-3.46,4.3-7.58,7.29-14.04,7.29-10.11,0-17.63-8.97-17.63-19.54Z"/>
  <path class="st0" d="M162.56,35.3v-.15c0-10.72,7.52-19.69,17.63-19.69,6.52,0,10.51,2.92,13.77,6.71l-3.39,3.94c-2.73-3.14-5.72-5.69-10.44-5.69-6.99,0-12.31,6.42-12.31,14.59v.15c0,8.17,5.45,14.66,12.64,14.66,4.46,0,7.78-2.41,10.51-5.62l3.26,3.36c-3.46,4.3-7.58,7.29-14.04,7.29-10.11,0-17.63-8.97-17.63-19.54Z"/>
  <path class="st0" d="M200.14,1.82h5.85v6.2h-5.85V1.82ZM200.48,16.26h5.12v37.7h-5.12V16.26Z"/>
  <path class="st0" d="M212.71,35.3v-.15c0-10.72,7.52-19.69,17.96-19.69s17.89,8.9,17.89,19.54v.15c0,10.72-7.65,19.69-18.03,19.69s-17.83-8.9-17.83-19.54ZM243.31,35.3v-.15c0-8.09-5.52-14.73-12.77-14.73s-12.57,6.64-12.57,14.59v.15c0,8.09,5.45,14.66,12.7,14.66s12.64-6.64,12.64-14.51Z"/>
  <path class="st0" d="M255.15,16.26h5.12v6.56c2.33-4.08,5.85-7.37,11.77-7.37,8.25,0,13.17,6.13,13.17,15.1v23.41h-5.12v-22.02c0-7-3.39-11.38-9.51-11.38s-10.31,4.74-10.31,11.81v21.59h-5.12V16.26Z"/>
  <path class="st0" d="M290.87,43.03v-.15c0-7.88,5.99-12.18,14.7-12.18,4.46,0,7.45.66,10.58,1.61v-1.31c0-6.78-3.79-10.28-10.24-10.28-4.06,0-7.25,1.09-10.44,2.77l-1.53-4.59c3.79-1.97,7.45-3.14,12.5-3.14s8.58,1.39,11.11,4.16c2.33,2.55,3.53,6.27,3.53,11.01v23.04h-4.92v-5.69c-2.4,3.43-6.32,6.49-12.44,6.49s-12.84-3.94-12.84-11.74ZM316.21,40.11v-3.65c-2.59-.8-5.85-1.61-10.11-1.61-6.45,0-10.04,3.06-10.04,7.8v.15c0,4.74,4.06,7.51,8.65,7.51,6.39,0,11.51-4.23,11.51-10.21Z"/>
  <path class="st0" d="M348.4,43.97v-22.75h-4.79v-4.96h4.79V4.89h5.12v11.38h10.91v4.96h-10.91v22.02c0,4.67,2.33,6.27,5.79,6.27,1.8,0,3.19-.36,4.99-1.31v4.81c-1.8,1.09-3.73,1.6-6.19,1.6-5.59,0-9.71-2.99-9.71-10.65Z"/>
  <path class="st0" d="M370.29,39.67v-23.41h5.12v22.02c0,7,3.39,11.38,9.51,11.38s10.31-4.74,10.31-11.81v-21.58h5.06v37.7h-5.06v-6.56c-2.33,4.08-5.85,7.36-11.77,7.36-8.25,0-13.17-6.13-13.17-15.1Z"/>
  <path class="st0" d="M420.44,65.49v-4.59c.8.22,1.8.22,2.53.22,2.33,0,3.93-1.53,3.93-5.03V16.26h5.12v39.89c0,6.71-3.13,9.7-8.38,9.7-1.26,0-2.06-.07-3.19-.36ZM426.56,1.82h5.85v6.2h-5.85V1.82Z"/>
  <path class="st0" d="M440.72,39.67v-23.41h5.12v22.02c0,7,3.39,11.38,9.51,11.38s10.31-4.74,10.31-11.81v-21.58h5.06v37.7h-5.06v-6.56c-2.33,4.08-5.85,7.36-11.77,7.36-8.25,0-13.17-6.13-13.17-15.1Z"/>
  <path class="st0" d="M479.17,60.53l2.33-4.38c3.99,3.14,8.25,4.81,13.24,4.81,7.65,0,12.5-4.59,12.5-13.42v-4.45c-2.99,4.38-7.18,7.95-13.5,7.95-8.25,0-16.16-6.85-16.16-17.65v-.15c0-11.01,7.91-17.79,16.16-17.79,6.45,0,10.58,3.5,13.44,7.58v-6.78h5.12v31.14c0,5.83-1.53,10.21-4.39,13.35-3.13,3.43-7.58,5.03-13.1,5.03s-11.04-1.75-15.63-5.25ZM507.37,33.33v-.15c0-7.73-6.12-12.76-12.64-12.76s-11.91,4.96-11.91,12.69v.15c0,7.58,5.52,12.83,11.91,12.83s12.64-5.18,12.64-12.76Z"/>
  <path class="st0" d="M518.48,43.03v-.15c0-7.88,5.99-12.18,14.7-12.18,4.46,0,7.45.66,10.58,1.61v-1.31c0-6.78-3.79-10.28-10.24-10.28-4.06,0-7.25,1.09-10.44,2.77l-1.53-4.59c3.79-1.97,7.45-3.14,12.5-3.14s8.58,1.39,11.11,4.16c2.33,2.55,3.53,6.27,3.53,11.01v23.04h-4.92v-5.69c-2.4,3.43-6.32,6.49-12.44,6.49s-12.84-3.94-12.84-11.74ZM543.82,40.11v-3.65c-2.59-.8-5.85-1.61-10.11-1.61-6.45,0-10.04,3.06-10.04,7.8v.15c0,4.74,4.06,7.51,8.65,7.51,6.39,0,11.51-4.23,11.51-10.21Z"/>
  <path class="st0" d="M554.93,35.22v-.15c0-12.25,8.18-19.62,16.43-19.62,6.39,0,10.51,3.72,13.17,8.02V.73h5.12v53.23h-5.12v-7.58c-2.86,4.52-6.78,8.39-13.17,8.39-8.25,0-16.43-7.15-16.43-19.54ZM584.73,35.15v-.15c0-8.68-6.05-14.51-12.44-14.51s-12.11,5.4-12.11,14.51v.15c0,8.97,5.52,14.59,12.11,14.59s12.44-5.91,12.44-14.59Z"/>
  <path class="st0" d="M595.83,43.03v-.15c0-7.88,5.99-12.18,14.7-12.18,4.46,0,7.45.66,10.58,1.61v-1.31c0-6.78-3.79-10.28-10.24-10.28-4.06,0-7.25,1.09-10.44,2.77l-1.53-4.59c3.79-1.97,7.45-3.14,12.5-3.14s8.58,1.39,11.11,4.16c2.33,2.55,3.53,6.27,3.53,11.01v23.04h-4.92v-5.69c-2.4,3.43-6.32,6.49-12.44,6.49s-12.84-3.94-12.84-11.74ZM621.18,40.11v-3.65c-2.59-.8-5.85-1.61-10.11-1.61-6.45,0-10.04,3.06-10.04,7.8v.15c0,4.74,4.06,7.51,8.65,7.51,6.39,0,11.51-4.23,11.51-10.21Z"/>
  <path class="st0" d="M651.57,16.26h5.12v7.58c2.86-4.45,6.78-8.39,13.17-8.39,8.25,0,16.43,7.15,16.43,19.54v.15c0,12.25-8.12,19.62-16.43,19.62-6.39,0-10.51-3.72-13.17-8.02v18.89h-5.12V16.26ZM681.04,35.22v-.15c0-8.97-5.52-14.59-12.11-14.59s-12.44,5.98-12.44,14.51v.15c0,8.75,6.05,14.59,12.44,14.59s12.11-5.4,12.11-14.51Z"/>
  <path class="st0" d="M690.95,35.3v-.15c0-10.72,7.52-19.69,17.96-19.69s17.89,8.9,17.89,19.54v.15c0,10.72-7.65,19.69-18.03,19.69s-17.83-8.9-17.83-19.54ZM721.55,35.3v-.15c0-8.09-5.52-14.73-12.77-14.73s-12.57,6.64-12.57,14.59v.15c0,8.09,5.45,14.66,12.7,14.66s12.64-6.64,12.64-14.51Z"/>
  <path class="st0" d="M733.85.73h5.12v53.23h-5.12V.73Z"/>
  <path class="st0" d="M746.09,35.22v-.15c0-10.87,6.92-19.62,16.5-19.62,10.18,0,16.03,8.9,16.03,19.91,0,.8,0,1.17-.07,1.82h-27.27c.73,8.17,5.99,12.76,12.11,12.76,4.79,0,7.98-2.11,10.84-5.32l3.19,3.14c-3.46,4.3-7.58,7.07-14.17,7.07-9.38,0-17.16-7.95-17.16-19.62ZM773.43,33.03c-.53-6.78-4.06-12.83-10.98-12.83-6.05,0-10.44,5.54-11.17,12.83h22.15ZM766.71,0l5.32,2.7-7.58,7.88h-3.99l6.25-10.57Z"/>
  <path class="st0" d="M784.93,16.26h5.12v6.34c2.33-3.79,5.32-7.15,11.11-7.15s9.18,3.21,11.04,7.51c2.53-4.16,6.05-7.51,12.11-7.51,7.98,0,12.77,5.76,12.77,15.17v23.34h-5.12v-22.02c0-7.29-3.33-11.38-8.91-11.38-5.12,0-9.51,4.23-9.51,11.67v21.73h-5.06v-22.17c0-7.07-3.33-11.23-8.85-11.23s-9.58,4.96-9.58,11.89v21.51h-5.12V16.26Z"/>
  <path class="st0" d="M845.46,1.82h5.85v6.2h-5.85V1.82ZM845.8,16.26h5.12v37.7h-5.12V16.26Z"/>
  <path class="st0" d="M858.03,35.3v-.15c0-10.72,7.52-19.69,17.63-19.69,6.52,0,10.51,2.92,13.77,6.71l-3.39,3.94c-2.73-3.14-5.72-5.69-10.44-5.69-6.99,0-12.31,6.42-12.31,14.59v.15c0,8.17,5.45,14.66,12.64,14.66,4.46,0,7.78-2.41,10.51-5.62l3.26,3.36c-3.46,4.3-7.58,7.29-14.04,7.29-10.11,0-17.63-8.97-17.63-19.54Z"/>
  <path class="st0" d="M892.89,43.03v-.15c0-7.88,5.99-12.18,14.7-12.18,4.46,0,7.45.66,10.58,1.61v-1.31c0-6.78-3.79-10.28-10.24-10.28-4.06,0-7.25,1.09-10.44,2.77l-1.53-4.59c3.79-1.97,7.45-3.14,12.5-3.14s8.58,1.39,11.11,4.16c2.33,2.55,3.53,6.27,3.53,11.01v23.04h-4.92v-5.69c-2.4,3.43-6.32,6.49-12.44,6.49s-12.84-3.94-12.84-11.74ZM918.23,40.11v-3.65c-2.59-.8-5.85-1.61-10.11-1.61-6.45,0-10.04,3.06-10.04,7.8v.15c0,4.74,4.06,7.51,8.65,7.51,6.39,0,11.51-4.23,11.51-10.21Z"/>
  <path class="st0" d="M40.68,122.73v-.15c0-12.25,8.18-19.62,16.43-19.62,6.39,0,10.51,3.72,13.17,8.02v-22.75h5.12v53.23h-5.12v-7.58c-2.86,4.52-6.78,8.39-13.17,8.39-8.25,0-16.43-7.15-16.43-19.54ZM70.47,122.65v-.15c0-8.68-6.05-14.51-12.44-14.51s-12.11,5.4-12.11,14.51v.15c0,8.97,5.52,14.59,12.11,14.59s12.44-5.91,12.44-14.59Z"/>
  <path class="st0" d="M82.05,122.73v-.15c0-10.87,6.92-19.62,16.5-19.62,10.18,0,16.03,8.9,16.03,19.91,0,.8,0,1.17-.07,1.82h-27.27c.73,8.17,5.99,12.76,12.11,12.76,4.79,0,7.98-2.11,10.84-5.32l3.19,3.14c-3.46,4.3-7.58,7.07-14.17,7.07-9.38,0-17.16-7.95-17.16-19.62ZM109.39,120.54c-.53-6.78-4.06-12.83-10.98-12.83-6.05,0-10.44,5.54-11.17,12.83h22.15Z"/>
  <path class="st0" d="M136.92,90.42h12.91v51.05h-12.91v-51.05Z"/>
  <path class="st0" d="M167.05,102.82h-13.9v-12.4h40.78v12.4h-13.97v38.65h-12.91v-38.65Z"/>
  <path class="st0" d="M241.55,103.77h5.45l-14.43,38.94c-2.93,7.8-6.32,10.65-11.44,10.65-2.86,0-4.99-.66-7.32-1.9l1.73-4.45c1.66.95,3.19,1.39,5.39,1.39,3.13,0,4.99-1.75,7.05-7.07l-15.63-37.56h5.65l12.5,31.43,11.04-31.43Z"/>
  <path class="st0" d="M270.21,88.23h5.12v53.23h-5.12v-53.23Z"/>
  <path class="st0" d="M285.05,88.23h5.12v53.23h-5.12v-53.23Z"/>
  <path class="st0" d="M297.28,122.73v-.15c0-10.87,6.92-19.62,16.5-19.62,10.18,0,16.03,8.9,16.03,19.91,0,.8,0,1.17-.07,1.82h-27.27c.73,8.17,5.99,12.76,12.11,12.76,4.79,0,7.98-2.11,10.84-5.32l3.19,3.14c-3.46,4.3-7.58,7.07-14.17,7.07-9.38,0-17.16-7.95-17.16-19.62ZM324.62,120.54c-.53-6.78-4.06-12.83-10.98-12.83-6.05,0-10.44,5.54-11.17,12.83h22.15Z"/>
  <path class="st0" d="M331.07,103.77h5.65l11.57,31.28,11.64-31.28h5.52l-14.97,37.99h-4.52l-14.9-37.99Z"/>
  <path class="st0" d="M366.72,122.73v-.15c0-10.87,6.92-19.62,16.5-19.62,10.18,0,16.03,8.9,16.03,19.91,0,.8,0,1.17-.07,1.82h-27.27c.73,8.17,5.99,12.76,12.11,12.76,4.79,0,7.98-2.11,10.84-5.32l3.19,3.14c-3.46,4.3-7.58,7.07-14.17,7.07-9.38,0-17.16-7.95-17.16-19.62ZM394.06,120.54c-.53-6.78-4.06-12.83-10.98-12.83-6.05,0-10.44,5.54-11.17,12.83h22.15ZM387.35,87.5l5.32,2.7-7.58,7.88h-3.99l6.25-10.57Z"/>
  <path class="st0" d="M405.57,103.77h5.12v6.34c2.33-3.79,5.32-7.15,11.11-7.15s9.18,3.21,11.04,7.51c2.53-4.16,6.05-7.51,12.11-7.51,7.98,0,12.77,5.76,12.77,15.17v23.34h-5.12v-22.02c0-7.29-3.33-11.38-8.91-11.38-5.12,0-9.51,4.23-9.51,11.67v21.73h-5.06v-22.17c0-7.07-3.33-11.23-8.85-11.23s-9.58,4.96-9.58,11.89v21.51h-5.12v-37.7Z"/>
  <path class="st0" d="M463.84,122.8v-.15c0-10.72,7.52-19.69,17.96-19.69s17.89,8.9,17.89,19.54v.15c0,10.72-7.65,19.69-18.03,19.69s-17.83-8.9-17.83-19.54ZM494.43,122.8v-.15c0-8.09-5.52-14.73-12.77-14.73s-12.57,6.64-12.57,14.59v.15c0,8.09,5.45,14.66,12.7,14.66s12.64-6.64,12.64-14.51Z"/>
  <path class="st0" d="M503.41,136.66l2.59-4.01c3.73,3.14,7.85,4.81,11.91,4.81s7.12-2.26,7.12-5.98v-.15c0-3.72-4.06-5.25-8.58-6.64-5.32-1.75-11.37-3.65-11.37-10.65v-.15c0-6.49,4.92-10.79,11.71-10.79,4.26,0,8.85,1.61,12.37,4.16l-2.33,4.23c-3.19-2.26-6.78-3.65-10.18-3.65-4.06,0-6.65,2.33-6.65,5.47v.15c0,3.57,4.26,4.96,8.85,6.49,5.32,1.75,11.04,4.01,11.04,10.79v.15c0,7.15-5.39,11.3-12.24,11.3-4.99,0-10.31-2.12-14.23-5.54Z"/>
  <path class="st0" d="M537.2,88.23h5.12v53.23h-5.12v-53.23Z"/>
  <path class="st0" d="M548.97,130.53v-.15c0-7.88,5.99-12.18,14.7-12.18,4.46,0,7.45.66,10.58,1.61v-1.31c0-6.78-3.79-10.28-10.24-10.28-4.06,0-7.25,1.09-10.44,2.77l-1.53-4.59c3.79-1.97,7.45-3.14,12.5-3.14s8.58,1.39,11.11,4.16c2.33,2.55,3.53,6.27,3.53,11.01v23.04h-4.92v-5.69c-2.4,3.43-6.32,6.49-12.44,6.49s-12.84-3.94-12.84-11.74ZM574.32,127.61v-3.65c-2.59-.8-5.85-1.6-10.11-1.6-6.45,0-10.04,3.06-10.04,7.8v.15c0,4.74,4.06,7.51,8.65,7.51,6.39,0,11.51-4.23,11.51-10.21Z"/>
  <path class="st0" d="M602.12,130.53v-.15c0-7.88,5.99-12.18,14.7-12.18,4.46,0,7.45.66,10.58,1.61v-1.31c0-6.78-3.79-10.28-10.24-10.28-4.06,0-7.25,1.09-10.44,2.77l-1.53-4.59c3.79-1.97,7.45-3.14,12.5-3.14s8.58,1.39,11.11,4.16c2.33,2.55,3.53,6.27,3.53,11.01v23.04h-4.92v-5.69c-2.4,3.43-6.32,6.49-12.44,6.49s-12.84-3.94-12.84-11.74ZM627.46,127.61v-3.65c-2.59-.8-5.85-1.6-10.11-1.6-6.45,0-10.04,3.06-10.04,7.8v.15c0,4.74,4.06,7.51,8.65,7.51,6.39,0,11.51-4.23,11.51-10.21Z"/>
  <path class="st0" d="M657.86,103.77h5.12v9.84c2.53-6.27,7.52-10.72,14.04-10.5v6.05h-.4c-7.52,0-13.64,5.91-13.64,17.28v15.02h-5.12v-37.7Z"/>
  <path class="st0" d="M678.54,122.73v-.15c0-10.87,6.92-19.62,16.5-19.62,10.18,0,16.03,8.9,16.03,19.91,0,.8,0,1.17-.07,1.82h-27.27c.73,8.17,5.99,12.76,12.11,12.76,4.79,0,7.98-2.11,10.84-5.32l3.19,3.14c-3.46,4.3-7.58,7.07-14.17,7.07-9.38,0-17.16-7.95-17.16-19.62ZM705.88,120.54c-.53-6.78-4.06-12.83-10.98-12.83-6.05,0-10.44,5.54-11.17,12.83h22.15Z"/>
  <path class="st0" d="M712.33,103.77h5.65l11.57,31.28,11.64-31.28h5.52l-14.97,37.99h-4.52l-14.9-37.99Z"/>
  <path class="st0" d="M752.24,89.33h5.85v6.2h-5.85v-6.2ZM752.57,103.77h5.12v37.7h-5.12v-37.7Z"/>
  <path class="st0" d="M764.08,136.66l2.59-4.01c3.73,3.14,7.85,4.81,11.91,4.81s7.12-2.26,7.12-5.98v-.15c0-3.72-4.06-5.25-8.58-6.64-5.32-1.75-11.37-3.65-11.37-10.65v-.15c0-6.49,4.92-10.79,11.71-10.79,4.26,0,8.85,1.61,12.37,4.16l-2.33,4.23c-3.19-2.26-6.78-3.65-10.18-3.65-4.06,0-6.65,2.33-6.65,5.47v.15c0,3.57,4.26,4.96,8.85,6.49,5.32,1.75,11.04,4.01,11.04,10.79v.15c0,7.15-5.39,11.3-12.24,11.3-4.99,0-10.31-2.12-14.23-5.54Z"/>
  <path class="st0" d="M797.54,89.33h5.85v6.2h-5.85v-6.2ZM797.87,103.77h5.12v37.7h-5.12v-37.7Z"/>
  <path class="st0" d="M810.11,122.8v-.15c0-10.72,7.52-19.69,17.96-19.69s17.89,8.9,17.89,19.54v.15c0,10.72-7.65,19.69-18.03,19.69s-17.83-8.9-17.83-19.54ZM840.71,122.8v-.15c0-8.09-5.52-14.73-12.77-14.73s-12.57,6.64-12.57,14.59v.15c0,8.09,5.45,14.66,12.7,14.66s12.64-6.64,12.64-14.51ZM832.19,87.5l5.32,2.7-7.58,7.88h-3.99l6.25-10.57Z"/>
  <path class="st0" d="M852.54,103.77h5.12v6.56c2.33-4.08,5.85-7.36,11.77-7.36,8.25,0,13.17,6.13,13.17,15.1v23.41h-5.12v-22.02c0-7-3.39-11.38-9.51-11.38s-10.31,4.74-10.31,11.81v21.59h-5.12v-37.7Z"/>
</svg>