<?xml version="1.0" encoding="UTF-8" standalone="no"?><!DOCTYPE svg PUBLIC "-//W3C//DTD SVG 1.1//EN" "http://www.w3.org/Graphics/SVG/1.1/DTD/svg11.dtd"><svg xmlns="http://www.w3.org/2000/svg" xmlns:xlink="http://www.w3.org/1999/xlink" version="1.1" width="991" height="122" viewBox="0 0 991 122">
<desc>Created with SVGMaker Editor 3.0.0</desc>
<defs>
</defs>
<path transform="translate(0,0)" style="fill: rgb(255,255,255)" stroke-linecap="round" d="M 23.27 32.07 L 23.27 31.97 C 23.27 22.22 29.93 14.23 39.36 14.23 C 45.17 14.23 48.66 16.43 51.65 19.57 L 48.12 24.03 C 45.57 21.48 42.94 19.82 39.32 19.82 C 33.42 19.82 29.04 25.16 29.04 31.87 L 29.04 31.97 C 29.04 38.68 33.37 44.12 39.36 44.12 C 43.16 44.12 45.66 42.45 48.34 39.71 L 51.87 43.63 C 48.7 47.4 44.99 49.71 39.18 49.71 C 30.06 49.71 23.27 41.92 23.27 32.07 Z"/>
<path transform="translate(0,0)" style="fill: rgb(255,255,255)" stroke-linecap="round" d="M 55.32 36.34 L 55.32 36.24 C 55.32 28.84 60.68 22.72 67.92 22.72 C 75.16 22.72 80.48 28.75 80.48 36.14 L 80.48 36.24 C 80.48 43.54 75.12 49.71 67.83 49.71 C 60.54 49.71 55.32 43.68 55.32 36.33 Z M 75.07 36.34 L 75.07 36.24 C 75.07 31.68 72.08 27.91 67.83 27.91 C 63.58 27.91 60.72 31.63 60.72 36.14 L 60.72 36.24 C 60.72 40.75 63.76 44.52 67.92 44.52 C 72.34 44.52 75.07 40.8 75.07 36.34 Z"/>
<path transform="translate(0,0)" style="fill: rgb(255,255,255)" stroke-linecap="round" d="M 85.93 23.26 L 91.38 23.26 L 91.38 27.23 C 92.94 24.83 95.05 22.72 98.75 22.72 C 104.11 22.72 107.15 26.59 107.15 32.62 L 107.15 49.13 L 101.74 49.13 L 101.74 34.43 C 101.74 30.36 99.91 28.11 96.69 28.11 C 93.47 28.11 91.37 30.46 91.37 34.53 L 91.37 49.13 L 85.92 49.13 L 85.92 23.26 Z"/>
<path transform="translate(0,0)" style="fill: rgb(255,255,255)" stroke-linecap="round" d="M 125.44 32.07 L 125.44 31.97 C 125.44 21.97 132.41 14.14 141.89 14.14 C 148.24 14.14 152.44 17.08 155.16 21.24 L 148.63 26.78 C 146.84 24.38 144.83 22.76 141.79 22.76 C 137.41 22.76 134.33 26.88 134.33 31.87 L 134.33 31.97 C 134.33 37.11 137.41 41.13 141.79 41.13 C 145.05 41.13 146.93 39.46 148.85 36.96 L 155.38 42.06 C 152.39 46.52 148.45 49.8 141.57 49.8 C 132.63 49.8 125.44 42.3 125.44 32.06 Z"/>
<path transform="translate(0,0)" style="fill: rgb(255,255,255)" stroke-linecap="round" d="M 157.27 35.99 L 157.27 35.89 C 157.27 28.3 162.9 22.02 170.63 22.02 C 178.36 22.02 183.95 28.24 183.95 35.79 L 183.95 35.89 C 183.95 43.48 178.27 49.76 170.54 49.76 C 162.81 49.76 157.27 43.59 157.27 35.99 Z M 175.73 35.99 L 175.73 35.89 C 175.73 32.61 173.58 29.86 170.55 29.86 C 167.52 29.86 165.5 32.51 165.5 35.79 L 165.5 35.89 C 165.5 39.12 167.65 41.87 170.64 41.87 C 173.63 41.87 175.73 39.17 175.73 35.99 Z"/>
<path transform="translate(0,0)" style="fill: rgb(255,255,255)" stroke-linecap="round" d="M 187.53 22.62 L 196.02 22.62 L 196.02 26.15 C 197.67 23.95 199.73 22.03 203.35 22.03 C 209.07 22.03 214.08 27.27 214.08 35.75 L 214.08 35.85 C 214.08 44.47 209.12 49.72 203.4 49.72 C 199.73 49.72 197.63 47.91 196.03 45.9 L 196.03 56.97 L 187.54 56.97 L 187.54 22.62 Z M 205.76 35.9 L 205.76 35.8 C 205.76 32.27 203.48 29.77 200.8 29.77 C 198.12 29.77 195.84 32.27 195.84 35.8 L 195.84 35.9 C 195.84 39.43 198.03 41.93 200.8 41.93 C 203.57 41.93 205.76 39.48 205.76 35.9 Z"/>
<path transform="translate(0,0)" style="fill: rgb(255,255,255)" stroke-linecap="round" d="M 217.79 13.36 L 226.59 13.36 L 226.59 20.22 L 217.79 20.22 L 217.79 13.36 Z M 217.96 22.62 L 226.41 22.62 L 226.41 49.13 L 217.96 49.13 L 217.96 22.62 Z"/>
<path transform="translate(0,0)" style="fill: rgb(255,255,255)" stroke-linecap="round" d="M 231.42 13.36 L 239.87 13.36 L 239.87 49.13 L 231.42 49.13 L 231.42 13.36 Z"/>
<path transform="translate(0,0)" style="fill: rgb(255,255,255)" stroke-linecap="round" d="M 243.71 35.99 L 243.71 35.89 C 243.71 28.3 249.34 22.02 257.07 22.02 C 264.8 22.02 270.39 28.24 270.39 35.79 L 270.39 35.89 C 270.39 43.48 264.71 49.76 256.98 49.76 C 249.25 49.76 243.71 43.59 243.71 35.99 Z M 262.17 35.99 L 262.17 35.89 C 262.17 32.61 260.02 29.86 256.99 29.86 C 253.96 29.86 251.94 32.51 251.94 35.79 L 251.94 35.89 C 251.94 39.12 254.09 41.87 257.08 41.87 C 260.07 41.87 262.17 39.17 262.17 35.99 Z"/>
<path transform="translate(0,0)" style="fill: rgb(255,255,255)" stroke-linecap="round" d="M 275.26 40.89 L 275.26 30.06 L 272.4 30.06 L 272.4 22.61 L 275.26 22.61 L 275.26 15.9 L 283.71 15.9 L 283.71 22.61 L 289.34 22.61 L 289.34 30.06 L 283.71 30.06 L 283.71 39.08 C 283.71 40.99 284.47 41.73 286.03 41.73 C 287.15 41.73 288.22 41.39 289.25 40.85 L 289.25 48.1 C 287.69 49.03 285.72 49.67 283.35 49.67 C 278.21 49.67 275.26 47.22 275.26 40.9 Z"/>
<path transform="translate(0,0)" style="fill: rgb(255,255,255)" stroke-linecap="round" d="M 301.14 35.99 L 293.27 35.99 L 293.27 27.76 L 301.14 27.76 L 301.14 19.23 L 308.92 19.23 L 308.92 27.76 L 316.79 27.76 L 316.79 35.99 L 308.92 35.99 L 308.92 44.52 L 301.14 44.52 L 301.14 35.99 Z"/>
<path transform="translate(0,0)" style="fill: rgb(255,255,255)" stroke-linecap="round" d="M 322.1 14.83 L 335.55 14.83 C 343.42 14.83 348.51 19.24 348.51 26.83 L 348.51 26.93 C 348.51 35.06 342.83 39.33 335.1 39.33 L 330.77 39.33 L 330.77 49.13 L 322.1 49.13 L 322.1 14.83 Z M 334.93 31.88 C 337.97 31.88 339.89 30.12 339.89 27.37 L 339.89 27.27 C 339.89 24.33 337.97 22.81 334.88 22.81 L 330.77 22.81 L 330.77 31.87 L 334.93 31.87 Z"/>
<path transform="translate(0,0)" style="fill: rgb(255,255,255)" stroke-linecap="round" d="M 351.16 32.07 L 351.16 31.97 C 351.16 21.97 358.13 14.14 367.61 14.14 C 373.96 14.14 378.16 17.08 380.88 21.24 L 374.35 26.78 C 372.56 24.38 370.55 22.76 367.51 22.76 C 363.13 22.76 360.05 26.88 360.05 31.87 L 360.05 31.97 C 360.05 37.11 363.13 41.13 367.51 41.13 C 370.77 41.13 372.65 39.46 374.57 36.96 L 381.1 42.06 C 378.11 46.52 374.17 49.8 367.29 49.8 C 358.35 49.8 351.16 42.3 351.16 32.06 Z"/>
<path transform="translate(0,0)" style="fill: rgb(255,255,255)" stroke-linecap="round" d="M 415.25 23.26 L 420.88 23.26 L 411.49 49.82 C 409.57 55.16 407.51 57.12 403.71 57.12 C 401.43 57.12 399.78 56.53 398.12 55.5 L 399.95 51.14 C 400.98 51.73 402.01 52.12 403.12 52.12 C 404.68 52.12 405.58 51.39 406.47 49.18 L 396.64 23.26 L 402.45 23.26 L 409.07 42.47 L 415.24 23.26 Z"/>
<path transform="translate(0,0)" style="fill: rgb(255,255,255)" stroke-linecap="round" d="M 439.21 13.36 L 444.66 13.36 L 444.66 49.13 L 439.21 49.13 L 439.21 13.36 Z"/>
<path transform="translate(0,0)" style="fill: rgb(255,255,255)" stroke-linecap="round" d="M 450.11 41.68 L 450.11 41.58 C 450.11 35.95 454.13 33.25 459.9 33.25 C 462.58 33.25 464.41 33.69 466.25 34.33 L 466.25 33.69 C 466.25 29.97 464.19 28.06 460.4 28.06 C 457.72 28.06 455.8 28.7 453.65 29.68 L 452.18 25.02 C 454.82 23.8 457.36 22.91 461.12 22.91 C 464.65 22.91 467.24 23.89 468.94 25.8 C 470.68 27.71 471.49 30.41 471.49 33.79 L 471.49 49.13 L 466.22 49.13 L 466.22 45.9 C 464.61 48.01 462.15 49.67 458.53 49.67 C 454.11 49.67 450.13 46.93 450.13 41.68 Z M 466.34 39.82 L 466.34 38.06 C 464.95 37.47 463.12 37.03 460.98 37.03 C 457.45 37.03 455.44 38.6 455.44 41.34 L 455.44 41.44 C 455.44 43.94 457.41 45.36 460.04 45.36 C 463.62 45.36 466.34 43.15 466.34 39.82 Z"/>
<path transform="translate(0,0)" style="fill: rgb(255,255,255)" stroke-linecap="round" d="M 491.32 23.26 L 496.77 23.26 L 496.77 27.57 C 498.51 24.88 500.93 22.72 504.81 22.72 C 510.35 22.72 515.76 27.52 515.76 36.14 L 515.76 36.24 C 515.76 44.86 510.4 49.66 504.81 49.66 C 500.88 49.66 498.42 47.5 496.77 45.1 L 496.77 56.96 L 491.32 56.96 L 491.32 23.26 Z M 510.27 36.24 L 510.27 36.14 C 510.27 31.14 507.14 27.86 503.52 27.86 C 499.9 27.86 496.64 31.19 496.64 36.14 L 496.64 36.24 C 496.64 41.19 499.81 44.52 503.52 44.52 C 507.23 44.52 510.27 41.34 510.27 36.24 Z"/>
<path transform="translate(0,0)" style="fill: rgb(255,255,255)" stroke-linecap="round" d="M 520.06 36.34 L 520.06 36.24 C 520.06 28.84 525.42 22.72 532.66 22.72 C 539.9 22.72 545.22 28.75 545.22 36.14 L 545.22 36.24 C 545.22 43.54 539.86 49.71 532.57 49.71 C 525.28 49.71 520.06 43.68 520.06 36.33 Z M 539.82 36.34 L 539.82 36.24 C 539.82 31.68 536.83 27.91 532.58 27.91 C 528.33 27.91 525.47 31.63 525.47 36.14 L 525.47 36.24 C 525.47 40.75 528.51 44.52 532.67 44.52 C 537.09 44.52 539.82 40.8 539.82 36.34 Z"/>
<path transform="translate(0,0)" style="fill: rgb(255,255,255)" stroke-linecap="round" d="M 551.84 41.97 L 551.84 28.35 L 548.85 28.35 L 548.85 23.25 L 551.84 23.25 L 551.84 16.15 L 557.25 16.15 L 557.25 23.25 L 563.6 23.25 L 563.6 28.35 L 557.25 28.35 L 557.25 41.04 C 557.25 43.34 558.32 44.27 560.16 44.27 C 561.32 44.27 562.44 43.98 563.51 43.39 L 563.51 48.24 C 562.12 49.07 560.74 49.56 558.64 49.56 C 554.66 49.56 551.85 47.65 551.85 41.97 Z"/>
<path transform="translate(0,0)" style="fill: rgb(255,255,255)" stroke-linecap="round" d="M 567.13 36.29 L 567.13 36.19 C 567.13 28.74 571.91 22.72 578.66 22.72 C 586.17 22.72 589.97 29.19 589.97 36.64 C 589.97 37.18 589.93 37.72 589.88 38.31 L 572.54 38.31 C 573.12 42.57 575.8 44.88 579.33 44.88 C 582.01 44.88 583.8 43.8 585.72 41.79 L 588.89 44.88 C 586.61 47.82 583.57 49.73 579.24 49.73 C 572.45 49.73 567.13 44.29 567.13 36.31 Z M 584.6 34.38 C 584.24 30.61 582.19 27.57 578.61 27.57 C 575.26 27.57 572.98 30.31 572.49 34.38 L 584.6 34.38 Z"/>
<path transform="translate(0,0)" style="fill: rgb(255,255,255)" stroke-linecap="round" d="M 595.37 23.26 L 600.82 23.26 L 600.82 27.23 C 602.38 24.83 604.49 22.72 608.19 22.72 C 613.55 22.72 616.59 26.59 616.59 32.62 L 616.59 49.13 L 611.18 49.13 L 611.18 34.43 C 611.18 30.36 609.35 28.11 606.13 28.11 C 602.91 28.11 600.81 30.46 600.81 34.53 L 600.81 49.13 L 595.36 49.13 L 595.36 23.26 Z"/>
<path transform="translate(0,0)" style="fill: rgb(255,255,255)" stroke-linecap="round" d="M 621.84 36.34 L 621.84 36.24 C 621.84 28.89 627.02 22.72 634.13 22.72 C 638.55 22.72 641.28 24.53 643.56 27.18 L 640.16 31.15 C 638.51 29.24 636.76 27.92 634.08 27.92 C 630.15 27.92 627.24 31.64 627.24 36.15 L 627.24 36.25 C 627.24 40.86 630.14 44.53 634.3 44.53 C 636.85 44.53 638.68 43.26 640.42 41.35 L 643.68 44.88 C 641.36 47.77 638.63 49.73 634.03 49.73 C 627.01 49.73 621.83 43.7 621.83 36.35 Z"/>
<path transform="translate(0,0)" style="fill: rgb(255,255,255)" stroke-linecap="round" d="M 648.74 13.65 L 654.55 13.65 L 654.55 19.28 L 648.74 19.28 L 648.74 13.65 Z M 648.92 23.26 L 654.37 23.26 L 654.37 49.13 L 648.92 49.13 L 648.92 23.26 Z"/>
<path transform="translate(0,0)" style="fill: rgb(255,255,255)" stroke-linecap="round" d="M 659.83 41.68 L 659.83 41.58 C 659.83 35.95 663.85 33.25 669.62 33.25 C 672.3 33.25 674.13 33.69 675.97 34.33 L 675.97 33.69 C 675.97 29.97 673.91 28.06 670.12 28.06 C 667.44 28.06 665.52 28.7 663.37 29.68 L 661.9 25.02 C 664.54 23.8 667.08 22.91 670.84 22.91 C 674.37 22.91 676.96 23.89 678.66 25.8 C 680.4 27.71 681.21 30.41 681.21 33.79 L 681.21 49.13 L 675.94 49.13 L 675.94 45.9 C 674.33 48.01 671.87 49.67 668.25 49.67 C 663.83 49.67 659.85 46.93 659.85 41.68 Z M 676.05 39.82 L 676.05 38.06 C 674.66 37.47 672.83 37.03 670.69 37.03 C 667.16 37.03 665.15 38.6 665.15 41.34 L 665.15 41.44 C 665.15 43.94 667.12 45.36 669.75 45.36 C 673.33 45.36 676.05 43.15 676.05 39.82 Z"/>
<path transform="translate(0,0)" style="fill: rgb(255,255,255)" stroke-linecap="round" d="M 699.87 36.24 L 699.87 36.14 C 699.87 27.52 705.19 22.72 710.82 22.72 C 714.66 22.72 717.21 24.83 718.86 27.28 L 718.86 13.37 L 724.27 13.37 L 724.27 49.14 L 718.86 49.14 L 718.86 44.83 C 717.12 47.52 714.61 49.68 710.82 49.68 C 705.28 49.68 699.87 44.88 699.87 36.26 Z M 718.96 36.24 L 718.96 36.14 C 718.96 31.14 715.74 27.86 712.12 27.86 C 708.5 27.86 705.33 31.05 705.33 36.14 L 705.33 36.24 C 705.33 41.24 708.41 44.52 712.12 44.52 C 715.83 44.52 718.96 41.19 718.96 36.24 Z"/>
<path transform="translate(0,0)" style="fill: rgb(255,255,255)" stroke-linecap="round" d="M 729.77 36.29 L 729.77 36.19 C 729.77 28.74 734.55 22.72 741.3 22.72 C 748.81 22.72 752.61 29.19 752.61 36.64 C 752.61 37.18 752.57 37.72 752.52 38.31 L 735.18 38.31 C 735.76 42.57 738.44 44.88 741.97 44.88 C 744.65 44.88 746.44 43.8 748.36 41.79 L 751.53 44.88 C 749.25 47.82 746.21 49.73 741.88 49.73 C 735.09 49.73 729.77 44.29 729.77 36.31 Z M 747.25 34.38 C 746.89 30.61 744.84 27.57 741.26 27.57 C 737.91 27.57 735.63 30.31 735.14 34.38 L 747.25 34.38 Z"/>
<path transform="translate(0,0)" style="fill: rgb(255,255,255)" stroke-linecap="round" d="M 785.29 42.46 L 770.09 42.46 L 768.71 35.75 L 784.93 14.58 L 793.64 14.58 L 793.64 35.35 L 797.62 35.35 L 797.62 42.45 L 793.64 42.45 L 793.64 49.11 L 785.28 49.11 L 785.28 42.45 Z M 785.29 35.41 L 785.29 25.51 L 777.78 35.41 L 785.29 35.41 Z"/>
<path transform="translate(0,0)" style="fill: rgb(255,255,255)" stroke-linecap="round" d="M 800.71 32.07 L 800.71 31.97 C 800.71 22.27 806.34 14.14 815.24 14.14 C 824.14 14.14 829.68 22.18 829.68 31.88 L 829.68 31.98 C 829.68 41.68 824.09 49.81 815.15 49.81 C 806.21 49.81 800.71 41.77 800.71 32.07 Z M 820.95 32.07 L 820.95 31.97 C 820.95 26.48 818.58 22.51 815.14 22.51 C 811.7 22.51 809.42 26.38 809.42 31.87 L 809.42 31.97 C 809.42 37.51 811.79 41.38 815.23 41.38 C 818.67 41.38 820.95 37.51 820.95 32.07 Z"/>
<path transform="translate(0,0)" style="fill: rgb(255,255,255)" stroke-linecap="round" d="M 855.32 23.16 L 845.98 23.16 L 845.98 14.83 L 873.38 14.83 L 873.38 23.16 L 863.99 23.16 L 863.99 49.13 L 855.32 49.13 L 855.32 23.16 Z"/>
<path transform="translate(0,0)" style="fill: rgb(255,255,255)" stroke-linecap="round" d="M 874.81 32.07 L 874.81 31.97 C 874.81 22.12 882.05 14.14 891.7 14.14 C 901.35 14.14 908.5 22.08 908.5 31.88 L 908.5 31.98 C 908.5 41.83 901.26 49.81 891.61 49.81 C 881.96 49.81 874.81 41.87 874.81 32.07 Z M 899.62 32.07 L 899.62 31.97 C 899.62 26.97 896.4 22.71 891.62 22.71 C 886.84 22.71 883.66 26.92 883.66 31.87 L 883.66 31.97 C 883.66 36.87 886.92 41.23 891.7 41.23 C 896.48 41.23 899.61 37.02 899.61 32.07 Z"/>
<path transform="translate(0,0)" style="fill: rgb(255,255,255)" stroke-linecap="round" d="M 912.98 14.83 L 926.43 14.83 C 934.3 14.83 939.39 19.24 939.39 26.83 L 939.39 26.93 C 939.39 35.06 933.71 39.33 925.98 39.33 L 921.65 39.33 L 921.65 49.13 L 912.98 49.13 L 912.98 14.83 Z M 925.81 31.88 C 928.85 31.88 930.77 30.12 930.77 27.37 L 930.77 27.27 C 930.77 24.33 928.85 22.81 925.76 22.81 L 921.65 22.81 L 921.65 31.87 L 925.81 31.87 Z"/>
<path transform="translate(0,0)" style="fill: rgb(255,255,255)" stroke-linecap="round" d="M 940.69 44.03 L 945.52 37.71 C 948.69 40.45 952.09 41.83 955.66 41.83 C 958.03 41.83 959.28 41 959.28 39.48 L 959.28 39.38 C 959.28 37.91 958.25 37.22 953.96 36.05 C 947.35 34.38 942.16 32.38 942.16 25.32 L 942.16 25.22 C 942.16 18.8 946.76 14.25 954.27 14.25 C 959.63 14.25 963.74 15.82 967.14 18.81 L 962.81 25.52 C 959.95 23.22 956.87 22.14 954.05 22.14 C 951.95 22.14 950.92 23.02 950.92 24.35 L 950.92 24.45 C 950.92 25.97 951.99 26.75 956.37 27.78 C 963.52 29.49 967.99 32.04 967.99 38.46 L 967.99 38.56 C 967.99 45.57 962.94 49.73 955.34 49.73 C 949.75 49.73 944.61 47.82 940.68 44.05 Z"/>
<path transform="translate(0,0)" style="fill: rgb(255,255,255)" stroke-linecap="round" d="M136.1907 82.7062L142.0007 82.7062 148.3507 101.7162 154.7407 82.7062 160.4207 82.7062 150.7707 108.7762 145.9007 108.7762 136.2007 82.7062Z"/>
<path transform="translate(0,0)" style="fill: rgb(255,255,255)" stroke-linecap="round" d="M162.2907 101.1262L162.2907 101.0262C162.2907 95.3962 166.3107 92.6962 172.0807 92.6962 174.7607 92.6962 176.5907 93.1362 178.4307 93.7762L178.4307 93.1362C178.4307 89.4162 176.3707 87.5062 172.5807 87.5062 169.9007 87.5062 167.9807 88.1462 165.8307 89.1262L164.3607 84.4662C167.0007 83.2462 169.5407 82.3562 173.3007 82.3562 176.8307 82.3562 179.4207 83.3362 181.1207 85.2462 182.8607 87.1562 183.6707 89.8562 183.6707 93.2362L183.6707 108.5762 178.4007 108.5762 178.4007 105.3462C176.7907 107.4562 174.3307 109.1162 170.7107 109.1162 166.2907 109.1162 162.3107 106.3762 162.3107 101.1262ZM178.5107 99.2662L178.5107 97.5062C177.1207 96.9162 175.2907 96.4762 173.1507 96.4762 169.6207 96.4762 167.6107 98.0462 167.6107 100.7862L167.6107 100.8862C167.6107 103.3862 169.5807 104.8062 172.2107 104.8062 175.7907 104.8062 178.5107 102.5962 178.5107 99.2662Z"/>
<path transform="translate(0,0)" style="fill: rgb(255,255,255)" stroke-linecap="round" d="M190.4007 72.8062L195.8507 72.8062 195.8507 108.5762 190.4007 108.5762 190.4007 72.8062Z"/>
<path transform="translate(0,0)" style="fill: rgb(255,255,255)" stroke-linecap="round" d="M203.0107 73.0962L208.8207 73.0962 208.8207 78.7262 203.0107 78.7262 203.0107 73.0962ZM203.1907 82.7062L208.6407 82.7062 208.6407 108.5762 203.1907 108.5762 203.1907 82.7062Z"/>
<path transform="translate(0,0)" style="fill: rgb(255,255,255)" stroke-linecap="round" d="M214.5007 95.6862L214.5007 95.5862C214.5007 86.9662 219.8207 82.1662 225.4507 82.1662 229.2907 82.1662 231.8407 84.2762 233.4907 86.7262L233.4907 72.8162 238.9007 72.8162 238.9007 108.5862 233.4907 108.5862 233.4907 104.2762C231.7507 106.9662 229.2407 109.1262 225.4507 109.1262 219.9107 109.1262 214.5007 104.3262 214.5007 95.7062ZM233.5807 95.6862L233.5807 95.5862C233.5807 90.5862 230.3607 87.3062 226.7407 87.3062 223.1207 87.3062 219.9507 90.4962 219.9507 95.5862L219.9507 95.6862C219.9507 100.6862 223.0307 103.9662 226.7407 103.9662 230.4507 103.9662 233.5807 100.6362 233.5807 95.6862Z"/>
<path transform="translate(0,0)" style="fill: rgb(255,255,255)" stroke-linecap="round" d="M244.0807 101.1262L244.0807 101.0262C244.0807 95.3962 248.1007 92.6962 253.8707 92.6962 256.5507 92.6962 258.3807 93.1362 260.2207 93.7762L260.2207 93.1362C260.2207 89.4162 258.1607 87.5062 254.3707 87.5062 251.6907 87.5062 249.7707 88.1462 247.6207 89.1262L246.1507 84.4662C248.7907 83.2462 251.3307 82.3562 255.0907 82.3562 258.6207 82.3562 261.2107 83.3362 262.9107 85.2462 264.6507 87.1562 265.4607 89.8562 265.4607 93.2362L265.4607 108.5762 260.1907 108.5762 260.1907 105.3462C258.5807 107.4562 256.1207 109.1162 252.5007 109.1162 248.0807 109.1162 244.1007 106.3762 244.1007 101.1262ZM260.3107 99.2662L260.3107 97.5062C258.9207 96.9162 257.0907 96.4762 254.9507 96.4762 251.4207 96.4762 249.4107 98.0462 249.4107 100.7862L249.4107 100.8862C249.4107 103.3862 251.3807 104.8062 254.0107 104.8062 257.5907 104.8062 260.3107 102.5962 260.3107 99.2662Z"/>
<path transform="translate(0,0)" style="fill: rgb(255,255,255)" stroke-linecap="round" d="M270.0107 105.1862L272.4207 101.1662C275.0607 103.2762 277.6907 104.3462 280.1507 104.3462 282.4707 104.3462 283.8207 103.2662 283.8207 101.5562L283.8207 101.4562C283.8207 99.4962 281.3207 98.7662 278.5507 97.8262 275.1107 96.7962 271.1807 95.1762 271.1807 90.2862L271.1807 90.1862C271.1807 85.2362 274.8907 82.2462 279.5807 82.2462 282.5707 82.2462 285.7507 83.3762 288.2507 85.1862L286.1007 89.3962C283.8207 87.8762 281.4107 86.9462 279.4407 86.9462 277.3407 86.9462 276.1307 88.0762 276.1307 89.4962L276.1307 89.5962C276.1307 91.4562 278.6807 92.3362 281.4507 93.2662 284.8507 94.4462 288.7807 96.1562 288.7807 100.8162L288.7807 100.9162C288.7807 106.3562 284.9407 109.0462 280.0207 109.0462 276.6207 109.0462 273.0007 107.7762 270.0107 105.1762Z"/>
<path transform="translate(0,0)" style="fill: rgb(255,255,255)" stroke-linecap="round" d="M306.4307 95.7862L306.4307 95.6862C306.4307 88.3362 311.6107 82.1662 318.7207 82.1662 323.1407 82.1662 325.8707 83.9762 328.1507 86.6262L324.7507 90.5962C323.1007 88.6862 321.3507 87.3662 318.6707 87.3662 314.7407 87.3662 311.8307 91.0862 311.8307 95.5962L311.8307 95.6962C311.8307 100.3062 314.7307 103.9762 318.8907 103.9762 321.4407 103.9762 323.2707 102.7062 325.0107 100.7962L328.2707 104.3262C325.9507 107.2162 323.2207 109.1762 318.6207 109.1762 311.6007 109.1762 306.4207 103.1462 306.4207 95.7962Z"/>
<path transform="translate(0,0)" style="fill: rgb(255,255,255)" stroke-linecap="round" d="M331.6407 101.1262L331.6407 101.0262C331.6407 95.3962 335.6607 92.6962 341.4307 92.6962 344.1107 92.6962 345.9407 93.1362 347.7807 93.7762L347.7807 93.1362C347.7807 89.4162 345.7207 87.5062 341.9307 87.5062 339.2507 87.5062 337.3307 88.1462 335.1807 89.1262L333.7107 84.4662C336.3507 83.2462 338.8907 82.3562 342.6507 82.3562 346.1807 82.3562 348.7707 83.3362 350.4707 85.2462 352.2107 87.1562 353.0207 89.8562 353.0207 93.2362L353.0207 108.5762 347.7507 108.5762 347.7507 105.3462C346.1407 107.4562 343.6807 109.1162 340.0607 109.1162 335.6407 109.1162 331.6607 106.3762 331.6607 101.1262ZM347.8707 99.2662L347.8707 97.5062C346.4807 96.9162 344.6507 96.4762 342.5107 96.4762 338.9807 96.4762 336.9707 98.0462 336.9707 100.7862L336.9707 100.8862C336.9707 103.3862 338.9407 104.8062 341.5707 104.8062 345.1507 104.8062 347.8707 102.5962 347.8707 99.2662Z"/>
<path transform="translate(0,0)" style="fill: rgb(255,255,255)" stroke-linecap="round" d="M358.2807 95.6862L358.2807 95.5862C358.2807 86.9662 363.6007 82.1662 369.2307 82.1662 373.0707 82.1662 375.6207 84.2762 377.2707 86.7262L377.2707 72.8162 382.6807 72.8162 382.6807 108.5862 377.2707 108.5862 377.2707 104.2762C375.5307 106.9662 373.0207 109.1262 369.2307 109.1262 363.6907 109.1262 358.2807 104.3262 358.2807 95.7062ZM377.3607 95.6862L377.3607 95.5862C377.3607 90.5862 374.1407 87.3062 370.5207 87.3062 366.9007 87.3062 363.7307 90.4962 363.7307 95.5862L363.7307 95.6862C363.7307 100.6862 366.8107 103.9662 370.5207 103.9662 374.2307 103.9662 377.3607 100.6362 377.3607 95.6862Z"/>
<path transform="translate(0,0)" style="fill: rgb(255,255,255)" stroke-linecap="round" d="M387.8707 101.1262L387.8707 101.0262C387.8707 95.3962 391.8907 92.6962 397.6607 92.6962 400.3407 92.6962 402.1707 93.1362 404.0107 93.7762L404.0107 93.1362C404.0107 89.4162 401.9507 87.5062 398.1607 87.5062 395.4807 87.5062 393.5607 88.1462 391.4107 89.1262L389.9407 84.4662C392.5807 83.2462 395.1207 82.3562 398.8807 82.3562 402.4107 82.3562 405.0007 83.3362 406.7007 85.2462 408.4407 87.1562 409.2507 89.8562 409.2507 93.2362L409.2507 108.5762 403.9807 108.5762 403.9807 105.3462C402.3707 107.4562 399.9107 109.1162 396.2907 109.1162 391.8707 109.1162 387.8907 106.3762 387.8907 101.1262ZM404.0907 99.2662L404.0907 97.5062C402.7007 96.9162 400.8707 96.4762 398.7307 96.4762 395.2007 96.4762 393.1907 98.0462 393.1907 100.7862L393.1907 100.8862C393.1907 103.3862 395.1607 104.8062 397.7907 104.8062 401.3707 104.8062 404.0907 102.5962 404.0907 99.2662Z"/>
<path transform="translate(0,0)" style="fill: rgb(255,255,255)" stroke-linecap="round" d="M427.9207 95.6862L427.9207 95.5862C427.9207 86.9662 433.2407 82.1662 438.8707 82.1662 442.7107 82.1662 445.2607 84.2762 446.9107 86.7262L446.9107 72.8162 452.3207 72.8162 452.3207 108.5862 446.9107 108.5862 446.9107 104.2762C445.1707 106.9662 442.6607 109.1262 438.8707 109.1262 433.3307 109.1262 427.9207 104.3262 427.9207 95.7062ZM447.0007 95.6862L447.0007 95.5862C447.0007 90.5862 443.7807 87.3062 440.1607 87.3062 436.5407 87.3062 433.3707 90.4962 433.3707 95.5862L433.3707 95.6862C433.3707 100.6862 436.4507 103.9662 440.1607 103.9662 443.8707 103.9662 447.0007 100.6362 447.0007 95.6862Z"/>
<path transform="translate(0,0)" style="fill: rgb(255,255,255)" stroke-linecap="round" d="M457.8207 95.7362L457.8207 95.6362C457.8207 88.1862 462.6007 82.1662 469.3507 82.1662 476.8607 82.1662 480.6607 88.6362 480.6607 96.0862 480.6607 96.6262 480.6207 97.1662 480.5707 97.7562L463.2307 97.7562C463.8107 102.0162 466.4907 104.3262 470.0207 104.3262 472.7007 104.3262 474.4907 103.2462 476.4107 101.2362L479.5807 104.3262C477.3007 107.2662 474.2607 109.1762 469.9307 109.1762 463.1407 109.1762 457.8207 103.7362 457.8207 95.7562ZM475.2907 93.8262C474.9307 90.0562 472.8807 87.0162 469.3007 87.0162 465.9507 87.0162 463.6707 89.7562 463.1807 93.8262L475.2907 93.8262Z"/>
<path transform="translate(0,0)" style="fill: rgb(255,255,255)" stroke-linecap="round" d="M487.2307 101.4162L487.2307 87.7962 484.2407 87.7962 484.2407 82.6962 487.2307 82.6962 487.2307 75.5962 492.6407 75.5962 492.6407 82.6962 498.9907 82.6962 498.9907 87.7962 492.6407 87.7962 492.6407 100.4862C492.6407 102.7862 493.7107 103.7162 495.5507 103.7162 496.7107 103.7162 497.8307 103.4262 498.9007 102.8362L498.9007 107.6862C497.5107 108.5162 496.1307 109.0062 494.0307 109.0062 490.0507 109.0062 487.2407 107.0962 487.2407 101.4162Z"/>
<path transform="translate(0,0)" style="fill: rgb(255,255,255)" stroke-linecap="round" d="M502.8707 101.1262L502.8707 101.0262C502.8707 95.3962 506.8907 92.6962 512.6607 92.6962 515.3407 92.6962 517.1707 93.1362 519.0107 93.7762L519.0107 93.1362C519.0107 89.4162 516.9507 87.5062 513.1607 87.5062 510.4807 87.5062 508.5607 88.1462 506.4107 89.1262L504.9407 84.4662C507.5807 83.2462 510.1207 82.3562 513.8807 82.3562 517.4107 82.3562 520.0007 83.3362 521.7007 85.2462 523.4407 87.1562 524.2507 89.8562 524.2507 93.2362L524.2507 108.5762 518.9807 108.5762 518.9807 105.3462C517.3707 107.4562 514.9107 109.1162 511.2907 109.1162 506.8707 109.1162 502.8907 106.3762 502.8907 101.1262ZM519.1007 99.2662L519.1007 97.5062C517.7107 96.9162 515.8807 96.4762 513.7407 96.4762 510.2107 96.4762 508.2007 98.0462 508.2007 100.7862L508.2007 100.8862C508.2007 103.3862 510.1707 104.8062 512.8007 104.8062 516.3807 104.8062 519.1007 102.5962 519.1007 99.2662Z"/>
<path transform="translate(0,0)" style="fill: rgb(255,255,255)" stroke-linecap="round" d="M530.9907 72.8062L536.4407 72.8062 536.4407 108.5762 530.9907 108.5762 530.9907 72.8062Z"/>
<path transform="translate(0,0)" style="fill: rgb(255,255,255)" stroke-linecap="round" d="M543.7707 72.8062L549.2207 72.8062 549.2207 108.5762 543.7707 108.5762 543.7707 72.8062Z"/>
<path transform="translate(0,0)" style="fill: rgb(255,255,255)" stroke-linecap="round" d="M554.9907 95.7362L554.9907 95.6362C554.9907 88.1862 559.7707 82.1662 566.5207 82.1662 574.0307 82.1662 577.8307 88.6362 577.8307 96.0862 577.8307 96.6262 577.7907 97.1662 577.7407 97.7562L560.4007 97.7562C560.9807 102.0162 563.6607 104.3262 567.1907 104.3262 569.8707 104.3262 571.6607 103.2462 573.5807 101.2362L576.7507 104.3262C574.4707 107.2662 571.4307 109.1762 567.1007 109.1762 560.3107 109.1762 554.9907 103.7362 554.9907 95.7562ZM572.4607 93.8262C572.1007 90.0562 570.0507 87.0162 566.4707 87.0162 563.1207 87.0162 560.8407 89.7562 560.3507 93.8262L572.4607 93.8262Z"/>
<path transform="translate(0,0)" style="fill: rgb(255,255,255)" stroke-linecap="round" d="M595.0807 101.1262L595.0807 101.0262C595.0807 95.3962 599.1007 92.6962 604.8707 92.6962 607.5507 92.6962 609.3807 93.1362 611.2207 93.7762L611.2207 93.1362C611.2207 89.4162 609.1607 87.5062 605.3707 87.5062 602.6907 87.5062 600.7707 88.1462 598.6207 89.1262L597.1507 84.4662C599.7907 83.2462 602.3307 82.3562 606.0907 82.3562 609.6207 82.3562 612.2107 83.3362 613.9107 85.2462 615.6507 87.1562 616.4607 89.8562 616.4607 93.2362L616.4607 108.5762 611.1907 108.5762 611.1907 105.3462C609.5807 107.4562 607.1207 109.1162 603.5007 109.1162 599.0807 109.1162 595.1007 106.3762 595.1007 101.1262ZM611.3007 99.2662L611.3007 97.5062C609.9107 96.9162 608.0807 96.4762 605.9407 96.4762 602.4107 96.4762 600.4007 98.0462 600.4007 100.7862L600.4007 100.8862C600.4007 103.3862 602.3707 104.8062 605.0007 104.8062 608.5807 104.8062 611.3007 102.5962 611.3007 99.2662Z"/>
<path transform="translate(0,0)" style="fill: rgb(255,255,255)" stroke-linecap="round" d="M623.1907 72.8062L628.6407 72.8062 628.6407 108.5762 623.1907 108.5762 623.1907 72.8062Z"/>
<path transform="translate(0,0)" style="fill: rgb(255,255,255)" stroke-linecap="round" d="M649.2107 73.0962L655.0207 73.0962 655.0207 78.7262 649.2107 78.7262 649.2107 73.0962ZM649.3807 82.7062L654.8307 82.7062 654.8307 108.5762 649.3807 108.5762 649.3807 82.7062Z"/>
<path transform="translate(0,0)" style="fill: rgb(255,255,255)" stroke-linecap="round" d="M661.8507 82.7062L667.3007 82.7062 667.3007 86.6762C668.8607 84.2762 670.9707 82.1662 674.6707 82.1662 680.0307 82.1662 683.0707 86.0362 683.0707 92.0662L683.0707 108.5762 677.6607 108.5762 677.6607 93.8762C677.6607 89.8062 675.8307 87.5562 672.6107 87.5562 669.3907 87.5562 667.2907 89.9062 667.2907 93.9762L667.2907 108.5762 661.8407 108.5762 661.8407 82.7062Z"/>
<path transform="translate(0,0)" style="fill: rgb(255,255,255)" stroke-linecap="round" d="M687.6907 105.1862L690.1007 101.1662C692.7407 103.2762 695.3707 104.3462 697.8307 104.3462 700.1507 104.3462 701.5007 103.2662 701.5007 101.5562L701.5007 101.4562C701.5007 99.4962 699.0007 98.7662 696.2307 97.8262 692.7907 96.7962 688.8607 95.1762 688.8607 90.2862L688.8607 90.1862C688.8607 85.2362 692.5707 82.2462 697.2607 82.2462 700.2507 82.2462 703.4307 83.3762 705.9307 85.1862L703.7807 89.3962C701.5007 87.8762 699.0907 86.9462 697.1207 86.9462 695.0207 86.9462 693.8107 88.0762 693.8107 89.4962L693.8107 89.5962C693.8107 91.4562 696.3607 92.3362 699.1307 93.2662 702.5307 94.4462 706.4607 96.1562 706.4607 100.8162L706.4607 100.9162C706.4607 106.3562 702.6207 109.0462 697.7007 109.0462 694.3007 109.0462 690.6807 107.7762 687.6907 105.1762Z"/>
<path transform="translate(0,0)" style="fill: rgb(255,255,255)" stroke-linecap="round" d="M712.6707 101.4162L712.6707 87.7962 709.6807 87.7962 709.6807 82.6962 712.6707 82.6962 712.6707 75.5962 718.0807 75.5962 718.0807 82.6962 724.4307 82.6962 724.4307 87.7962 718.0807 87.7962 718.0807 100.4862C718.0807 102.7862 719.1507 103.7162 720.9907 103.7162 722.1507 103.7162 723.2707 103.4262 724.3407 102.8362L724.3407 107.6862C722.9507 108.5162 721.5707 109.0062 719.4707 109.0062 715.4907 109.0062 712.6807 107.0962 712.6807 101.4162Z"/>
<path transform="translate(0,0)" style="fill: rgb(255,255,255)" stroke-linecap="round" d="M728.3207 101.1262L728.3207 101.0262C728.3207 95.3962 732.3407 92.6962 738.1107 92.6962 740.7907 92.6962 742.6207 93.1362 744.4607 93.7762L744.4607 93.1362C744.4607 89.4162 742.4007 87.5062 738.6107 87.5062 735.9307 87.5062 734.0107 88.1462 731.8607 89.1262L730.3907 84.4662C733.0307 83.2462 735.5707 82.3562 739.3307 82.3562 742.8607 82.3562 745.4507 83.3362 747.1507 85.2462 748.8907 87.1562 749.7007 89.8562 749.7007 93.2362L749.7007 108.5762 744.4307 108.5762 744.4307 105.3462C742.8207 107.4562 740.3607 109.1162 736.7407 109.1162 732.3207 109.1162 728.3407 106.3762 728.3407 101.1262ZM744.5407 99.2662L744.5407 97.5062C743.1507 96.9162 741.3207 96.4762 739.1807 96.4762 735.6507 96.4762 733.6407 98.0462 733.6407 100.7862L733.6407 100.8862C733.6407 103.3862 735.6107 104.8062 738.2407 104.8062 741.8207 104.8062 744.5407 102.5962 744.5407 99.2662Z"/>
<path transform="translate(0,0)" style="fill: rgb(255,255,255)" stroke-linecap="round" d="M756.1207 82.7062L761.5707 82.7062 761.5707 86.6762C763.1307 84.2762 765.2407 82.1662 768.9407 82.1662 774.3007 82.1662 777.3407 86.0362 777.3407 92.0662L777.3407 108.5762 771.9307 108.5762 771.9307 93.8762C771.9307 89.8062 770.1007 87.5562 766.8807 87.5562 763.6607 87.5562 761.5607 89.9062 761.5607 93.9762L761.5607 108.5762 756.1107 108.5762 756.1107 82.7062Z"/>
<path transform="translate(0,0)" style="fill: rgb(255,255,255)" stroke-linecap="round" d="M784.9907 101.4162L784.9907 87.7962 782.0007 87.7962 782.0007 82.6962 784.9907 82.6962 784.9907 75.5962 790.4007 75.5962 790.4007 82.6962 796.7507 82.6962 796.7507 87.7962 790.4007 87.7962 790.4007 100.4862C790.4007 102.7862 791.4707 103.7162 793.3107 103.7162 794.4707 103.7162 795.5907 103.4262 796.6607 102.8362L796.6607 107.6862C795.2707 108.5162 793.8907 109.0062 791.7907 109.0062 787.8107 109.0062 785.0007 107.0962 785.0007 101.4162Z"/>
<path transform="translate(0,0)" style="fill: rgb(255,255,255)" stroke-linecap="round" d="M800.2807 95.7362L800.2807 95.6362C800.2807 88.1862 805.0607 82.1662 811.8107 82.1662 819.3207 82.1662 823.1207 88.6362 823.1207 96.0862 823.1207 96.6262 823.0807 97.1662 823.0307 97.7562L805.6907 97.7562C806.2707 102.0162 808.9507 104.3262 812.4807 104.3262 815.1607 104.3262 816.9507 103.2462 818.8707 101.2362L822.0407 104.3262C819.7607 107.2662 816.7207 109.1762 812.3907 109.1762 805.6007 109.1762 800.2807 103.7362 800.2807 95.7562ZM817.7507 93.8262C817.3907 90.0562 815.3407 87.0162 811.7607 87.0162 808.4107 87.0162 806.1307 89.7562 805.6407 93.8262L817.7507 93.8262Z"/>
<path transform="translate(0,0)" style="fill: rgb(255,255,255)" stroke-linecap="round" d="M827.7707 101.8062L833.7107 101.8062 833.7107 108.5662 827.7707 108.5662 827.7707 101.8062Z"/>
</svg>